<?xml version="1.0" standalone="no"?>
<!DOCTYPE svg PUBLIC "-//W3C//DTD SVG 1.1//EN" "http://www.w3.org/Graphics/SVG/1.1/DTD/svg11.dtd" >
<svg>
<metadata>
Created by FontForge 20090914 at Fri Oct 16 19:17:08 2020
 By www-data
Copyright (C) 1996, 2009 Hoefler &#38; Co. http://www.typography.com
</metadata>
<defs>
<font id="Whitney-Bold" horiz-adv-x="1097" >
  <font-face 
    font-family="Whitney Bold"
    font-weight="400"
    font-stretch="normal"
    units-per-em="2048"
    panose-1="0 0 0 0 0 0 0 0 0 0"
    ascent="1638"
    descent="-410"
    x-height="1004"
    cap-height="1413"
    bbox="-326 -563 2048 2085"
    underline-thickness="102"
    underline-position="-714"
    unicode-range="U+0020-U+FB04"
  />
<missing-glyph horiz-adv-x="748" 
d="M68 0v1365h544v-1365h-544zM136 68h408v1229h-408v-1229z" />
    <glyph glyph-name=".notdef" horiz-adv-x="748" 
d="M68 0v1365h544v-1365h-544zM136 68h408v1229h-408v-1229z" />
    <glyph glyph-name="space" unicode=" " horiz-adv-x="428" 
 />
    <glyph glyph-name="exclam" unicode="!" horiz-adv-x="604" 
d="M496 1413l-97 -885l-188 -41l-100 926h385zM469 0h-334v352h334v-352z" />
    <glyph glyph-name="quotedbl" unicode="&#x22;" horiz-adv-x="1064" 
d="M969 1384l-88 -614l-199 43l-84 571h371zM467 1384l-90 -614l-199 43l-82 571h371z" />
    <glyph glyph-name="numbersign" unicode="#" horiz-adv-x="1378" 
d="M1130 1360l-43 -264h213v-260h-253l-46 -287h228l39 -260h-307l-48 -293h-194l45 293h-279l-49 -307l-188 43l41 264h-211v260h252l45 287h-223l-43 260h307l47 293h196l-47 -293h281l49 307zM569 842l-47 -299h285l47 299h-285z" />
    <glyph glyph-name="dollar" unicode="$" horiz-adv-x="1124" 
d="M770 1513l-20.002 -134.999c90.667 -18 173.667 -46.667 249 -86l-43 -252c-84 48.667 -169.333 82.334 -256 101.001l-45 -299c92.667 -28.667 166.5 -60 221.5 -94s97.5 -78.167 127.5 -132.5s45 -120.833 45 -199.5c0 -140.667 -45.667 -246.834 -137 -318.501
s-214.333 -107.5 -369 -107.5h-2l-35 -240l-150 33l31 219c-117.333 18 -226.666 54.333 -327.999 109l39 247c121.333 -64.667 234 -104.667 338 -120l51 350c-67.333 21.333 -123.166 42.5 -167.499 63.5s-84.5 47.167 -120.5 78.5s-62.167 68.666 -78.5 111.999
s-24.5 94.333 -24.5 153c0 125.333 42.333 223.333 127 294s203 106 355 106h18l25 151zM771.998 381.001c0 38.667 -11.5 70.667 -34.5 96s-64.833 49.333 -125.5 72l-49 -320c68 0 119.833 13 155.5 39s53.5 63.667 53.5 113zM372.998 1030
c0 -34.667 11.168 -62.833 33.501 -84.5s64.166 -43.167 125.499 -64.5l41 276h-22c-118.667 0 -178 -42.333 -178 -127z" />
    <glyph glyph-name="percent" unicode="%" horiz-adv-x="1830" 
d="M764 995c0 -128 -32.333 -228.166 -97 -300.499s-146.334 -108.5 -245.001 -108.5c-100 0 -182.333 35.833 -247 107.5s-97 171.5 -97 299.5c0 127.333 32.5 227.166 97.5 299.499s147.167 108.5 246.5 108.5c98.667 0 180.334 -36 245.001 -108s97 -171.333 97 -298z
M563 -13.999l-182 43l446 682l439 688l184 -41l-449 -686zM1753 391.001c0 -126.667 -32.668 -226.166 -98.001 -298.499s-147.333 -108.5 -246 -108.5c-100 0 -182 35.667 -246 107s-96 170.666 -96 297.999c0 128.667 32.333 229.167 97 301.5
s146.334 108.5 245.001 108.5c100 0 182.333 -36 247 -108s97 -172 97 -300zM548.999 995.002c0 74 -10.833 131.5 -32.5 172.5s-53.167 61.5 -94.5 61.5c-87.333 0 -131 -78.667 -131 -236c0 -72.667 11.333 -129.667 34 -171s55 -62 97 -62s73.667 20.333 95 61
s32 98.667 32 174zM1538 391.002c0 73.333 -11.1689 130.667 -33.502 172s-54.166 62 -95.499 62c-43.333 0 -75.666 -20.5 -96.999 -61.5s-32 -99.167 -32 -174.5c0 -73.333 11.167 -130.5 33.5 -171.5s54.166 -61.5 95.499 -61.5c42.667 0 74.834 20.5 96.501 61.5
s32.5 98.833 32.5 173.5z" />
    <glyph glyph-name="ampersand" unicode="&#x26;" horiz-adv-x="1355" 
d="M1378 33l-345.999 -45.001l-121 137c-113.333 -100 -245 -150 -395 -150c-139.333 0 -251 35.667 -335 107s-126 168.333 -126 291c0 178 91.667 315.667 275 413c-41.333 52 -70.5 100.5 -87.5 145.5s-25.5 96.167 -25.5 153.5c0 101.333 36.833 185.833 110.5 253.5
s175.5 101.5 305.5 101.5c139.333 0 266.333 -28.667 381 -86l-47 -285c-121.333 65.333 -221 98 -299 98c-40.667 0 -72 -9.83301 -94 -29.5s-33 -45.167 -33 -76.5c0 -24 6.5 -47.833 19.5 -71.5s34.5 -52.5 64.5 -86.5l288 -334c25.333 70.667 45.333 162.334 60 275.001
l262 -58c-24.667 -170 -70.334 -313.333 -137.001 -430zM559.001 224.999c71.333 0 137 26.001 197 78.001l-271 307c-77.333 -58.667 -116 -128.334 -116 -209.001c0 -52.667 17 -95.167 51 -127.5s80.333 -48.5 139 -48.5z" />
    <glyph glyph-name="quotesingle" unicode="'" horiz-adv-x="569" 
d="M473 1384l-88 -614l-207 43l-82 571h377z" />
    <glyph glyph-name="parenleft" unicode="(" horiz-adv-x="827" 
d="M797 -137l-238 -56.002c-72 56 -134.5 111.5 -187.5 166.5s-101.5 116.167 -145.5 183.5s-77.333 141.166 -100 221.499s-34 165.833 -34 256.5c0 380 203.333 664 610 852l31 -209c-99.333 -86 -173.333 -180.167 -222 -282.5s-73 -221.166 -73 -356.499
c0 -147.333 28.167 -280.166 84.5 -398.499s147.833 -244.166 274.5 -377.499z" />
    <glyph glyph-name="parenright" unicode=")" horiz-adv-x="827" 
d="M31 1423l237 56c72 -56 134.5 -111.333 187.5 -166s101.5 -115.667 145.5 -183s77.333 -141 100 -221s34 -165.333 34 -256c0 -381.333 -203.333 -666 -610 -854l-31 209c99.333 86 173.333 180.167 222 282.5s73 221.166 73 356.499c0 147.333 -28 280.333 -84 399
s-147.333 244.334 -274 377.001z" />
    <glyph glyph-name="asterisk" unicode="*" horiz-adv-x="897" 
d="M834 1118l-220 -141l97 -244l-64 -41l-198 164l-201 -164l-62 41l97 244l-220 141l23 72l262 -14l60 249h79l62 -249l262 14z" />
    <glyph glyph-name="plus" unicode="+" horiz-adv-x="1171" 
d="M1061 571h-350v-362h-250v362h-350v242h350v363h250v-363h350v-242z" />
    <glyph glyph-name="comma" unicode="," horiz-adv-x="530" 
d="M485 352l-256 -655l-184 43l90 612h350z" />
    <glyph glyph-name="hyphen" unicode="-" horiz-adv-x="724" 
d="M643 449h-559v294h559v-294z" />
    <glyph glyph-name="period" unicode="." horiz-adv-x="530" 
d="M432 0h-334v352h334v-352z" />
    <glyph glyph-name="slash" unicode="/" horiz-adv-x="1085" 
d="M1063 1376l-881 -1636l-256 55l881 1637z" />
    <glyph glyph-name="zero" unicode="0" horiz-adv-x="1298" 
d="M1225 692c0 -228 -51.833 -404.833 -155.5 -530.5s-243.167 -188.5 -418.5 -188.5c-176 0 -316.167 62.833 -420.5 188.5s-156.5 302.5 -156.5 530.5s52.167 404.833 156.5 530.5s244.5 188.5 420.5 188.5c175.333 0 314.833 -62.833 418.5 -188.5
s155.5 -302.5 155.5 -530.5zM887 692c0 306 -78.667 458.998 -236 458.998c-79.333 0 -138.666 -39.167 -177.999 -117.5s-59 -192.166 -59 -341.499s19.667 -263.166 59 -341.499s98.666 -117.5 177.999 -117.5c157.333 0 236 153 236 459z" />
    <glyph glyph-name="one" unicode="1" horiz-adv-x="833" 
d="M694 0h-344v1065l-276 -109l-39 267l354 163h305v-1386z" />
    <glyph glyph-name="two" unicode="2" horiz-adv-x="1130" 
d="M1059 0l-977 -0.000976562v244l477 477c49.333 50.667 84.833 94.5 106.5 131.5s32.5 77.167 32.5 120.5c0 46.667 -15.5 82.834 -46.5 108.501s-74.833 38.5 -131.5 38.5c-114 0 -236 -47 -366 -141l-41 291c136 91.333 288.667 137 458 137
c142.667 0 255.167 -35.167 337.5 -105.5s123.5 -167.5 123.5 -291.5c0 -88.667 -20.667 -167.5 -62 -236.5s-108 -147.167 -200 -234.5l-276 -267h522z" />
    <glyph glyph-name="three" unicode="3" horiz-adv-x="1116" 
d="M1040 387c0 -87.333 -22.8311 -162.5 -68.498 -225.5s-107.5 -110.167 -185.5 -141.5s-167.333 -47 -268 -47c-174.667 0 -326.334 36.333 -455.001 109l43 266c124 -68 251 -102 381 -102c68.667 0 122.5 13.833 161.5 41.5s58.5 67.167 58.5 118.5
c0 58 -21.333 101.833 -64 131.5s-111 44.5 -205 44.5h-116l-41 254h147c85.333 0 148.666 14.167 189.999 42.5s62 67.833 62 118.5c0 44.667 -16.833 79.5 -50.5 104.5s-83.167 37.5 -148.5 37.5c-125.333 0 -243.333 -38.333 -354 -115l-43 260
c124.667 84.667 274 127 448 127c152 0 271 -33.333 357 -100s129 -154.667 129 -264c0 -86 -21.333 -155 -64 -207s-102.667 -92.333 -180 -121c86.667 -28 152.667 -68.5 198 -121.5s68 -123.167 68 -210.5z" />
    <glyph glyph-name="four" unicode="4" horiz-adv-x="1249" 
d="M1210 276h-194v-276h-322v276h-641v213l584 897h379v-878h194v-232zM694 508v549l-354 -549h354z" />
    <glyph glyph-name="five" unicode="5" horiz-adv-x="1136" 
d="M1063 463c0 -154.667 -51.332 -275 -153.999 -361s-237.667 -129 -405 -129c-150 0 -294.667 31.667 -434 95l45 284c136.667 -66.667 265.667 -100 387 -100c71.333 0 129.333 17.167 174 51.5s67 81.833 67 142.5c0 56.667 -18.333 101 -55 133s-88.667 48 -156 48
c-69.333 0 -135.333 -13.667 -198 -41l-211 47l47 751h817l43 -276h-602l-16 -246c65.333 16.667 130.666 25 195.999 25c137.333 0 247.5 -37 330.5 -111s124.5 -178.333 124.5 -313z" />
    <glyph glyph-name="six" unicode="6" horiz-adv-x="1181" 
d="M915 1143c-286.667 -65.333 -460.667 -187 -522 -365c102 67.333 213.333 101 334 101c74 0 140 -14.833 198 -44.5s105 -76.5 141 -140.5s54 -141.667 54 -233c0 -145.333 -48.667 -263 -146 -353s-220 -135 -368 -135c-161.333 0 -290.333 50.833 -387 152.5
s-145 246.167 -145 433.5c0 97.333 13.167 187.5 39.5 270.5s63 156 110 219s104 119 171 168s140.333 89.5 220 121.5s166.167 57 259.5 75zM608 637c-70.667 0 -146.333 -26.667 -227 -80c0.666992 -112 21.667 -196 63 -252s95.333 -84 162 -84
c60 0 107.833 19.667 143.5 59s53.5 92 53.5 158c0 132.667 -65 199 -195 199z" />
    <glyph glyph-name="seven" unicode="7" horiz-adv-x="1107" 
d="M1034 1120l-512 -1134l-325 57l485 1057h-580l-43 284h975v-264z" />
    <glyph glyph-name="eight" unicode="8" horiz-adv-x="1206" 
d="M72 362c0 72.667 21.333 139.83 64 201.497s103 114.167 181 157.5c-133.333 77.333 -200 182.333 -200 315c0 116 46.167 207.5 138.5 274.5s211.166 100.5 356.499 100.5c146.667 0 263.334 -33 350.001 -99s130 -151.667 130 -257c0 -126.667 -69 -234 -207 -322
c85.333 -42 148 -90.667 188 -146s60 -124.666 60 -207.999c0 -118 -48 -215.167 -144 -291.5s-225 -114.5 -387 -114.5c-84.667 0 -161 10.333 -229 31s-123.667 48.834 -167 84.501s-76.5 76.834 -99.5 123.501s-34.5 96.667 -34.5 150zM385 392.996
c0 -56 21 -101.332 63 -135.999s95.333 -52 160 -52c58.667 0 107.5 16.167 146.5 48.5s58.5 73.5 58.5 123.5c0 53.333 -19.5 96.666 -58.5 129.999s-113.167 71.333 -222.5 114c-98 -66 -147 -142 -147 -228zM422 1042c0 -44 17.332 -81.668 51.999 -113.001
s95.667 -64 183 -98c86 59.333 129 127 129 203c0 47.333 -17.167 85.5 -51.5 114.5s-79.166 43.5 -134.499 43.5c-52.667 0 -95.5 -14.167 -128.5 -42.5s-49.5 -64.166 -49.5 -107.499z" />
    <glyph glyph-name="nine" unicode="9" horiz-adv-x="1181" 
d="M250 242c290 55.333 467.334 170 532.001 344c-104.667 -66 -211 -99 -319 -99c-120.667 0 -217.834 36.333 -291.501 109s-110.5 179 -110.5 319c0 150 48.333 270.167 145 360.5s219.667 135.5 369 135.5c160.667 0 289.667 -51 387 -153s146 -246.333 146 -433
c0 -121.333 -20.333 -231.5 -61 -330.5s-98 -183 -172 -252s-160 -126 -258 -171s-207.333 -78.5 -328 -100.5zM575.001 729c75.333 0 150.667 25.333 226 76v4c0 118.667 -20.667 207.334 -62 266.001s-96 88 -164 88c-59.333 0 -106.833 -19.833 -142.5 -59.5
s-53.5 -94.834 -53.5 -165.501c0 -139.333 65.333 -209 196 -209z" />
    <glyph glyph-name="colon" unicode=":" horiz-adv-x="548" 
d="M440 655h-331v349h331v-349zM440 0h-331v348h331v-348z" />
    <glyph glyph-name="semicolon" unicode=";" horiz-adv-x="548" 
d="M453 655h-332v349h332v-349zM475 348l-254 -651l-186 43l90 608h350z" />
    <glyph glyph-name="less" unicode="&#x3c;" horiz-adv-x="1171" 
d="M1032 129l-915 455v217l915 454v-266l-610 -295l610 -297v-268z" />
    <glyph glyph-name="equal" unicode="=" horiz-adv-x="1208" 
d="M1061 817h-911v246h911v-246zM1061 324h-911v243h911v-243z" />
    <glyph glyph-name="greater" unicode="&#x3e;" horiz-adv-x="1171" 
d="M1055 584l-916 -455v268l611 293l-611 297v268l916 -454v-217z" />
    <glyph glyph-name="question" unicode="?" horiz-adv-x="1036" 
d="M600 0h-332v352h332v-352zM553 584l-5.99902 -68l-203 -47l-22 311l63 21c100 29.333 170.333 60.666 211 93.999s61 75 61 125c0 42.667 -15 75.834 -45 99.501s-73 35.5 -129 35.5c-121.333 0 -250.333 -48.333 -387 -145l-43 286c141.333 96 299.666 144 474.999 144
c144.667 0 257 -34.5 337 -103.5s120 -165.5 120 -289.5c0 -116 -35.5 -210.5 -106.5 -283.5s-179.5 -132.833 -325.5 -179.5z" />
    <glyph glyph-name="at" unicode="@" horiz-adv-x="1710" 
d="M1225 88c-70 0 -130.668 15.6699 -182.001 47.0029s-86.333 74.333 -105 129c-54 -61.333 -104 -106 -150 -134s-94.333 -42 -145 -42c-66.667 0 -120.167 22.833 -160.5 68.5s-60.5 110.834 -60.5 195.501c0 86 14 167.167 42 243.5s65.167 141 111.5 194
s100.333 94.833 162 125.5s125.834 46 192.501 46c116.667 0 230.667 -24 342 -72l-84 -451c-8 -58 -12 -95.333 -12 -112c0 -32.667 10.167 -59.334 30.5 -80.001s52.5 -31 96.5 -31c70 0 127 38 171 114s66 178.667 66 308c0 100 -14.833 188.833 -44.5 266.5
s-71.5 140.667 -125.5 189s-117.333 84.833 -190 109.5s-153.334 37 -242.001 37c-101.333 0 -199 -22 -293 -66s-176 -103.333 -246 -178s-126 -164.834 -168 -270.501s-63 -216.834 -63 -333.501c0 -106 14.833 -198.333 44.5 -277s72 -141.667 127 -189
s118.833 -82.5 191.5 -105.5s154.334 -34.5 245.001 -34.5c158.667 0 304 32.667 436 98l13 -73c-132.667 -64.667 -285 -97 -457 -97c-217.333 0 -386.666 57.5 -507.999 172.5s-182 282.833 -182 503.5c0 121.333 23 238.666 69 351.999s107.833 211.833 185.5 295.5
s170.167 150.667 277.5 201s219.333 75.5 336 75.5c208 0 374 -59.5 498 -178.5s186 -284.167 186 -495.5c0 -166.667 -35.833 -300.167 -107.5 -400.5s-170.834 -150.5 -297.501 -150.5zM751.999 297.003c23.333 0 48.833 10.5 76.5 31.5s63.5 56.833 107.5 107.5l59 314
c-20 8 -46.667 12 -80 12c-63.333 0 -119 -35.667 -167 -107s-72 -155.333 -72 -252c0 -70.667 25.333 -106 76 -106z" />
    <glyph glyph-name="A" unicode="A" horiz-adv-x="1437" 
d="M27 0l508 1419h385l491 -1376l-354 -57l-105 307h-487l-94 -293h-344zM709 1059l-160 -492h317z" />
    <glyph glyph-name="B" unicode="B" horiz-adv-x="1214" 
d="M1143 408c0 -134 -47.333 -235.498 -142 -304.498s-227.667 -103.5 -399 -103.5h-473v1413h481c158.667 0 278.667 -31.833 360 -95.5s122 -153.834 122 -270.501c0 -138.667 -68.333 -238.334 -205 -299.001c170.667 -54 256 -167.333 256 -340zM778 1008
c0 102 -64 153 -192 153h-125v-319h117c64.667 0 114.167 14.667 148.5 44s51.5 70 51.5 122zM813 432.002c0 122.667 -75.667 184.001 -227 184.001h-125v-364h129c71.333 0 126.333 15.167 165 45.5s58 75.166 58 134.499z" />
    <glyph glyph-name="C" unicode="C" horiz-adv-x="1230" 
d="M1165 84c-124.667 -72.667 -260.999 -108.999 -408.999 -108.999c-210 0 -375.5 65.667 -496.5 197s-181.5 309 -181.5 533c0 220.667 62.833 398 188.5 532s294.167 201 505.5 201c142.667 0 267 -30.667 373 -92l-49 -316c-97.333 76.667 -199 115 -305 115
c-110.667 0 -198.834 -39.333 -264.501 -118s-98.5 -185.334 -98.5 -320.001c0 -135.333 33.833 -242.333 101.5 -321s157.5 -118 269.5 -118c99.333 0 206.333 36.333 321 109z" />
    <glyph glyph-name="D" unicode="D" horiz-adv-x="1443" 
d="M1364 709c0 -105.333 -16.333 -201.332 -49 -287.999s-79.667 -161.334 -141 -224.001s-138.833 -111.167 -232.5 -145.5s-199.167 -51.5 -316.5 -51.5h-496v1413h487c120.667 0 228.5 -17 323.5 -51s173.5 -82 235.5 -144s109 -136 141 -222s48 -181.667 48 -287z
M1012 707.001c0 144 -36.5 252.334 -109.5 325.001s-171.833 109 -296.5 109h-127v-869h127c129.333 0 229.333 35.667 300 107s106 180.666 106 327.999z" />
    <glyph glyph-name="E" unicode="E" 
d="M1028 0h-899v1413h881v-283h-537v-266h410l45 -280h-455v-299h555v-285z" />
    <glyph glyph-name="F" unicode="F" horiz-adv-x="1030" 
d="M975 1120h-498v-289h369l49 -292h-418v-539h-348v1413h846v-293z" />
    <glyph glyph-name="G" unicode="G" horiz-adv-x="1396" 
d="M1290 123c-153.333 -100 -325.331 -150.002 -515.998 -150.002c-146.667 0 -272.834 30.833 -378.501 92.5s-185 147.167 -238 256.5s-79.5 237 -79.5 383c0 145.333 28.167 273.333 84.5 384s137.833 196.834 244.5 258.501s231.667 92.5 375 92.5
c162.667 0 306.667 -35 432 -105l-47 -305c-126 80.667 -251.333 121 -376 121c-118.667 0 -208.834 -40 -270.501 -120s-92.5 -188 -92.5 -324c0 -137.333 31.5 -247.166 94.5 -329.499s153.833 -123.5 272.5 -123.5c68 0 131.333 15 190 45v252h-246l-41 260h592v-688z
" />
    <glyph glyph-name="H" unicode="H" horiz-adv-x="1447" 
d="M1321 0h-352v573h-490v-573h-350v1413h350v-534h490v534h352v-1413z" />
    <glyph glyph-name="I" unicode="I" horiz-adv-x="624" 
d="M487 0h-350v1413h350v-1413z" />
    <glyph glyph-name="J" unicode="J" horiz-adv-x="870" 
d="M754 430c0 -78.667 -11.832 -147.001 -35.499 -205.001s-57.167 -104.167 -100.5 -138.5s-93 -59.666 -149 -75.999s-118.667 -24.5 -188 -24.5c-85.333 0 -150.333 6 -195 18l-47 295c57.333 -15.333 112.666 -23 165.999 -23c64.667 0 113.5 15.833 146.5 47.5
s49.5 85.5 49.5 161.5v928h353v-983z" />
    <glyph glyph-name="K" unicode="K" horiz-adv-x="1331" 
d="M1333 43l-383 -57l-471 671v-657h-350v1413h350v-604l436 604h406l-508 -659z" />
    <glyph glyph-name="L" unicode="L" horiz-adv-x="999" 
d="M961 0h-832v1413h350v-1110h434z" />
    <glyph glyph-name="M" unicode="M" horiz-adv-x="1824" 
d="M1737 0h-357l-61 946l-266 -948h-332l-266 948l-62 -946h-305l102 1413h453l275 -973l276 973h440z" />
    <glyph glyph-name="N" unicode="N" horiz-adv-x="1443" 
d="M1315 0h-303l-557 846v-846h-326v1413h340l520 -790v790h326v-1413z" />
    <glyph glyph-name="O" unicode="O" horiz-adv-x="1505" 
d="M1427 709c0 -144.667 -27.5 -272.501 -82.5 -383.501s-134 -197.5 -237 -259.5s-222.167 -93 -357.5 -93c-202 0 -364.5 67.333 -487.5 202s-184.5 311.334 -184.5 530.001c0 220 61.667 397.5 185 532.5s287 202.5 491 202.5c134.667 0 253.167 -30.5 355.5 -91.5
s180.833 -146.667 235.5 -257s82 -237.833 82 -382.5zM1075 706.999c0 142 -28.333 253.832 -85 335.499s-136 122.5 -238 122.5c-100.667 0 -179.834 -41 -237.501 -123s-86.5 -193.667 -86.5 -335s28.833 -253.166 86.5 -335.499s136.834 -123.5 237.501 -123.5
c101.333 0 180.5 41 237.5 123s85.5 194 85.5 336z" />
    <glyph glyph-name="P" unicode="P" horiz-adv-x="1181" 
d="M1139 952c0 -156 -51.167 -275.5 -153.5 -358.5s-241.166 -124.5 -416.499 -124.5h-90v-469h-350v1413h455c175.333 0 311.666 -39.167 408.999 -117.5s146 -192.833 146 -343.5zM799 946c0 135.333 -78.667 203 -236 203h-88v-416h82c161.333 0 242 71 242 213z" />
    <glyph glyph-name="Q" unicode="Q" horiz-adv-x="1505" 
d="M1427 729c0 -144.667 -29 -270.001 -87 -376.001s-138.667 -186.667 -242 -242l329 -105l-65 -299l-793 285c-164.667 59.333 -287.667 146.833 -369 262.5s-122 265.834 -122 450.501c0 144.667 27.833 272.667 83.5 384s134.667 197.666 237 258.999
s220.833 92 355.5 92c203.333 0 366.333 -64.667 489 -194s184 -301.666 184 -516.999zM1075 704.999c0 138.667 -28.666 250.002 -85.999 334.002s-136.333 126 -237 126s-179.834 -42.167 -237.501 -126.5s-86.5 -195.5 -86.5 -333.5c0 -138.667 29 -250.834 87 -336.501
s137 -128.5 237 -128.5c101.333 0 180.5 42.667 237.5 128s85.5 197.666 85.5 336.999z" />
    <glyph glyph-name="R" unicode="R" horiz-adv-x="1261" 
d="M1245 45l-371 -59l-309 499h-88v-485h-348v1413h494c172.667 0 306.167 -38.167 400.5 -114.5s141.5 -186.833 141.5 -331.5c0 -192 -88.667 -326 -266 -402zM821 946c0 66 -19.833 116.333 -59.5 151s-97.5 52 -173.5 52h-113v-412h109c76 0 134.5 18 175.5 54
s61.5 87.667 61.5 155z" />
    <glyph glyph-name="S" unicode="S" horiz-adv-x="1132" 
d="M1071 426c0 -74.667 -13.0029 -140.662 -39.0029 -197.995s-62.333 -103.5 -109 -138.5s-100 -61.333 -160 -79s-126 -26.5 -198 -26.5c-175.333 0 -339.666 35.333 -492.999 106l51 299c162.667 -87.333 312 -131 448 -131c51.333 0 92.5 11 123.5 33
s46.5 53.333 46.5 94s-15.333 73.667 -46 99s-95 56.666 -193 93.999c-75.333 29.333 -136.666 56.666 -183.999 81.999s-88.666 54.666 -123.999 87.999s-60.5 71.166 -75.5 113.499s-22.5 92.5 -22.5 150.5c0 88 21.833 164 65.5 228s101.5 111.667 173.5 143
s153.667 47 245 47c86.667 0 162.667 -7.83301 228 -23.5s131.333 -39.5 198 -71.5l-54 -295c-131.333 76.667 -254 115 -368 115c-51.333 0 -90.5 -10 -117.5 -30s-40.5 -47 -40.5 -81c0 -36.667 14 -66.334 42 -89.001s85.667 -51 173 -85c158.667 -58 270 -119 334 -183
s96 -151 96 -261z" />
    <glyph glyph-name="T" unicode="T" horiz-adv-x="1247" 
d="M1219 1116h-416v-1116h-352v1116h-400v297h1118z" />
    <glyph glyph-name="U" unicode="U" horiz-adv-x="1409" 
d="M1296 561c0 -96 -15 -181.499 -45 -256.499s-71.667 -136.167 -125 -183.5s-116 -83.166 -188 -107.499s-151.333 -36.5 -238 -36.5c-179.333 0 -322 49.167 -428 147.5s-159 243.166 -159 434.499v854h352v-852c0 -92 20.5 -163.167 61.5 -213.5
s100.5 -75.5 178.5 -75.5c78.667 0 138.167 24.667 178.5 74s60.5 119.666 60.5 210.999v856h352v-852z" />
    <glyph glyph-name="V" unicode="V" horiz-adv-x="1417" 
d="M1393 1413l-502 -1421h-377l-487 1378l374 57l322 -991l305 977h365z" />
    <glyph glyph-name="W" unicode="W" horiz-adv-x="2027" 
d="M1991 1413l-385 -1415h-355l-243 913l-244 -913h-352l-373 1370l379 59l213 -899l229 885h352l230 -885l200 885h349z" />
    <glyph glyph-name="X" unicode="X" horiz-adv-x="1353" 
d="M1327 45l-375 -59l-290 501l-279 -487h-358l444 719l-408 649l373 59l256 -448l242 434h362l-411 -668z" />
    <glyph glyph-name="Y" unicode="Y" horiz-adv-x="1372" 
d="M1370 1413l-510 -893v-520h-350v516l-490 860l373 51l307 -585l297 571h373z" />
    <glyph glyph-name="Z" unicode="Z" horiz-adv-x="1251" 
d="M1184 0h-1104v254l657 881h-587l-44 278h1059v-254l-657 -880h633z" />
    <glyph glyph-name="bracketleft" unicode="[" horiz-adv-x="856" 
d="M786 -213h-641v1626h629v-190h-332v-1246h314z" />
    <glyph glyph-name="backslash" unicode="\" horiz-adv-x="1085" 
d="M1159 -207l-256 -53l-880 1636l256 56z" />
    <glyph glyph-name="bracketright" unicode="]" horiz-adv-x="856" 
d="M70 1413h641v-1626h-629v190h332v1246h-314z" />
    <glyph glyph-name="asciicircum" unicode="^" horiz-adv-x="929" 
d="M815 1120h-197l-151 119l-152 -119h-196l205 301h286z" />
    <glyph glyph-name="underscore" unicode="_" horiz-adv-x="929" 
d="M934 -213h-938v143h938v-143z" />
    <glyph glyph-name="grave" unicode="`" horiz-adv-x="929" 
d="M700 1120h-204l-299 248l378 62z" />
    <glyph glyph-name="a" unicode="a" horiz-adv-x="1038" 
d="M940 0h-273.999l-21 125c-92 -96.667 -197 -145 -315 -145c-82 0 -148 24.167 -198 72.5s-75 116.833 -75 205.5c0 116.667 46 204.834 138 264.501s237.333 98.5 436 116.5v18c0 43.333 -12.5 75.333 -37.5 96s-63.167 31 -114.5 31
c-102.667 0 -210.334 -25 -323.001 -75l-37 233c127.333 52 263 78 407 78c142 0 246.5 -26.833 313.5 -80.5s100.5 -142.834 100.5 -267.501v-672zM631.001 276v213c-99.333 -15.333 -169 -38.833 -209 -70.5s-60 -71.5 -60 -119.5c0 -30.667 9 -54.667 27 -72
s42 -26 72 -26c57.333 0 114 25 170 75z" />
    <glyph glyph-name="b" unicode="b" horiz-adv-x="1107" 
d="M1044 528c0 -181.333 -44.499 -316.667 -133.499 -406s-213.5 -134 -373.5 -134c-164 0 -307.667 23.667 -431 71v1371l310 49v-586c83.333 87.333 172.666 131 267.999 131c108 0 195 -41.833 261 -125.5s99 -207.167 99 -370.5zM735.001 507.999
c0 80.667 -13.333 140.833 -40 180.5s-63 59.5 -109 59.5c-55.333 0 -112 -32.333 -170 -97v-395c39.333 -13.333 77.333 -20 114 -20c63.333 0 113.333 21.667 150 65s55 112.333 55 207z" />
    <glyph glyph-name="c" unicode="c" horiz-adv-x="925" 
d="M862 70c-95.333 -58.667 -201.665 -88 -318.998 -88c-146.667 0 -264.334 45.333 -353.001 136s-133 216 -133 376c0 85.333 13.167 162 39.5 230s62.333 123.167 108 165.5s98.5 74.666 158.5 96.999s124.667 33.5 194 33.5c108 0 207 -25.333 297 -76l-41 -264
c-78.667 49.333 -153.667 74 -225 74c-66 0 -118.667 -21.667 -158 -65s-59 -105.666 -59 -186.999c0 -82.667 21 -145.667 63 -189s96 -65 162 -65c75.333 0 151.666 25.333 228.999 76z" />
    <glyph glyph-name="d" unicode="d" horiz-adv-x="1114" 
d="M1008 0l-274.998 -0.000976562l-20 131c-90 -100.667 -186.333 -151 -289 -151c-108 0 -195.5 41.667 -262.5 125s-100.5 206 -100.5 368c0 92.667 11.5 174.334 34.5 245.001s54.667 127 95 169s85.166 73.333 134.499 94s102.666 31 159.999 31
c75.333 0 146.333 -11.667 213 -35v453l310 49v-1479zM698.002 355.999l-0.000976562 383c-43.333 19.333 -91.666 29 -144.999 29c-54 0 -97.5 -22.333 -130.5 -67s-49.5 -113 -49.5 -205c0 -82 13.833 -142.833 41.5 -182.5s64.834 -59.5 111.501 -59.5
c53.333 0 110.666 34 171.999 102z" />
    <glyph glyph-name="e" unicode="e" horiz-adv-x="1034" 
d="M973 92c-116 -74.667 -249.334 -111.999 -400.001 -111.999c-157.333 0 -282.666 43.5 -375.999 130.5s-140 216.167 -140 387.5c0 161.333 44.167 289.333 132.5 384s201.833 142 340.5 142c75.333 0 141.833 -13.333 199.5 -40s104.167 -63.834 139.5 -111.501
s61.833 -102.5 79.5 -164.5s26.5 -130 26.5 -204c0 -32 -1.33301 -58.667 -4 -80h-606c14.667 -146 97 -219 247 -219c101.333 0 211.333 35.333 330 106zM521.999 823.001c-45.333 0 -82.167 -19.333 -110.5 -58s-44.833 -95.667 -49.5 -171h318
c-10 152.667 -62.667 229 -158 229z" />
    <glyph glyph-name="f" unicode="f" horiz-adv-x="698" 
d="M709 1219c-48.667 6.66699 -85.667 10 -111 10c-82 0 -123 -41 -123 -123v-102h182l37 -252h-219v-752h-309v752h-139v252h139v131c0 222 127 333 381 333c34 0 75.667 -4 125 -12z" />
    <glyph glyph-name="g" unicode="g" horiz-adv-x="1093" 
d="M1053 -12c0 -108 -52.668 -195.164 -158.001 -261.497s-239.666 -99.5 -402.999 -99.5c-144.667 0 -261.5 21.167 -350.5 63.5s-133.5 101.166 -133.5 176.499c0 43.333 13.333 82.333 40 117s68 67.334 124 98.001c-36.667 30.667 -55 67.667 -55 111
c0 64 49.667 124 149 180c-62 27.333 -109.5 66.166 -142.5 116.499s-49.5 108.5 -49.5 174.5c0 108 39.5 194.333 118.5 259s180.167 97 303.5 97c121.333 0 224.333 -32 309 -96l235 90l39 -230l-176 -4c12.667 -36.667 19 -72 19 -106c0 -70 -19 -131.5 -57 -184.5
s-88.167 -92.833 -150.5 -119.5s-131.833 -40 -208.5 -40c-42 0 -72.667 1.33301 -92 4c-18 -16 -27 -31 -27 -45c0 -14.667 9.66699 -25.167 29 -31.5s63 -13.5 131 -21.5l184 -13c106 -10.667 186.167 -34.334 240.5 -71.001s81.5 -91.334 81.5 -164.001z
M474.999 -1.99707c-63.333 5.33301 -116 11.333 -158 18c-38 -36 -57 -72.667 -57 -110c0 -36.667 21 -65.667 63 -87s106.333 -32 193 -32c78.667 0 140.667 11.333 186 34s68 51 68 85c0 23.333 -10.667 41 -32 53s-59 21 -113 27zM644.999 674.003
c0 48 -13.168 87.333 -39.501 118s-62.166 46 -107.499 46c-44 0 -78.667 -16 -104 -48s-38 -72.667 -38 -122c0 -47.333 12.667 -85.833 38 -115.5s60 -44.5 104 -44.5c46 0 82 15.333 108 46s39 70.667 39 120z" />
    <glyph glyph-name="h" unicode="h" horiz-adv-x="1099" 
d="M999 0h-310.997v629c0 80.667 -34 121 -102 121c-52.667 0 -109.334 -30.333 -170.001 -91v-659h-310v1430l310 49v-600c47.333 46 94.666 81.667 141.999 107s99.666 38 156.999 38c92 0 162.333 -27 211 -81s73 -130.667 73 -230v-713z" />
    <glyph glyph-name="i" unicode="i" horiz-adv-x="536" 
d="M444 1300c0 -49.333 -16.667 -89.166 -50 -119.499s-75.333 -45.5 -126 -45.5c-50 0 -91.833 15.167 -125.5 45.5s-50.5 70.166 -50.5 119.499c0 50 16.833 90.833 50.5 122.5s75.5 47.5 125.5 47.5c50.667 0 92.667 -15.667 126 -47s50 -72.333 50 -123zM424 0h-311
v1004h311v-1004z" />
    <glyph glyph-name="j" unicode="j" horiz-adv-x="538" 
d="M444 1300c0 -49.333 -16.667 -89.166 -50 -119.499s-75.333 -45.5 -126 -45.5c-50 0 -91.833 15.167 -125.5 45.5s-50.5 70.166 -50.5 119.499c0 50 16.833 90.833 50.5 122.5s75.5 47.5 125.5 47.5c50.667 0 92.667 -15.667 126 -47s50 -72.333 50 -123zM424 -29
c0 -119.333 -30.834 -206.5 -92.501 -261.5s-147.5 -82.5 -257.5 -82.5c-47.333 0 -84.333 2.66699 -111 8l-37 242c30.667 -5.33301 55.334 -8 74.001 -8c37.333 0 65.5 9.5 84.5 28.5s28.5 51.833 28.5 98.5v1008h311v-1033z" />
    <glyph glyph-name="k" unicode="k" horiz-adv-x="1034" 
d="M1028 31l-323 -45l-289 483v-469h-310v1430l310 49v-885l264 410h340l-320 -461z" />
    <glyph glyph-name="l" unicode="l" horiz-adv-x="536" 
d="M424 0h-311v1430l311 49v-1479z" />
    <glyph glyph-name="m" unicode="m" horiz-adv-x="1660" 
d="M1561 0h-311.997v629c0 80.667 -32.667 121 -98 121c-48.667 0 -103.334 -29.333 -164.001 -88v-662h-309v629c0 80.667 -32.667 121 -98 121c-48.667 0 -103.334 -29.333 -164.001 -88v-662h-310v1004h273l22 -138c50 51.333 99.5 90.5 148.5 117.5
s103.5 40.5 163.5 40.5c123.333 0 206.666 -52.667 249.999 -158c50 50 100.167 88.833 150.5 116.5s104.5 41.5 162.5 41.5c92 0 162.5 -27 211.5 -81s73.5 -130.667 73.5 -230v-713z" />
    <glyph glyph-name="n" unicode="n" horiz-adv-x="1099" 
d="M999 0h-311v629c0 80.667 -34 121 -102 121c-52.667 0 -109.334 -30.333 -170.001 -91v-659h-310v1004h273l22 -138c50.667 50.667 100.834 89.667 150.501 117s104.167 41 163.5 41c92 0 162.333 -27 211 -81s73 -130.667 73 -230v-713z" />
    <glyph glyph-name="o" unicode="o" horiz-adv-x="1079" 
d="M1022 502c0 -158.667 -45.332 -285.332 -135.999 -379.999s-207 -142 -349 -142c-140.667 0 -255.834 47.167 -345.501 141.5s-134.5 220.5 -134.5 378.5c0 158.667 45.167 285.667 135.5 381s205.833 143 346.5 143c142 0 258 -47.333 348 -142
s135 -221.334 135 -380.001zM723.001 500.002c0 82.667 -15.998 148.667 -47.998 198s-77.333 74 -136 74s-103.834 -24.167 -135.501 -72.5s-47.5 -114.166 -47.5 -197.499c0 -82.667 16.167 -148.834 48.5 -198.501s77.166 -74.5 134.499 -74.5
c58.667 0 104 24.5 136 73.5s48 114.833 48 197.5z" />
    <glyph glyph-name="p" unicode="p" horiz-adv-x="1114" 
d="M1051 528c0 -92 -11.5049 -173.332 -34.5049 -243.999s-54.667 -126.834 -95 -168.501s-85.166 -73 -134.499 -94s-102.666 -31.5 -159.999 -31.5c-66.667 0 -137 11.667 -211 35v-359l-310 -47v1385h273l20 -132c42.667 46 86.834 82.833 132.501 110.5
s97.834 41.5 156.501 41.5c108.667 0 196.334 -41.833 263.001 -125.5s100 -207.167 100 -370.5zM738.995 508.001c0 80.667 -13.667 140.833 -41 180.5s-64 59.5 -110 59.5c-32 0 -61.333 -8.66699 -88 -26s-54.667 -43 -84 -77v-381c44.667 -20.667 91.667 -31 141 -31
c55.333 0 99.5 22.5 132.5 67.5s49.5 114.167 49.5 207.5z" />
    <glyph glyph-name="q" unicode="q" horiz-adv-x="1107" 
d="M1001 -334l-308.999 -47v490c-41.333 -39.333 -83 -70.666 -125 -93.999s-89.667 -35 -143 -35c-108.667 0 -196.334 41.5 -263.001 124.5s-100 205.833 -100 368.5c0 181.333 45 317.166 135 407.499s214.333 135.5 373 135.5c163.333 0 307.333 -24 432 -72v-1278z
M692.001 352l-0.000976562 396c-35.333 12 -73.333 18 -114 18c-63.333 0 -113.333 -21.5 -150 -64.5s-55 -111.5 -55 -205.5c0 -82.667 13.333 -143.667 40 -183s63 -59 109 -59c52.667 0 109.334 32.667 170.001 98z" />
    <glyph glyph-name="r" unicode="r" horiz-adv-x="772" 
d="M754 709c-140 -9.33301 -252.667 -60 -338 -152v-557h-310v1004h271l33 -199c34 64.667 74.167 116.167 120.5 154.5s103.5 59.833 171.5 64.5z" />
    <glyph glyph-name="s" unicode="s" horiz-adv-x="950" 
d="M891 309c0 -106 -35.333 -186.999 -106 -242.999s-172.667 -84 -306 -84c-147.333 0 -285 32.667 -413 98l36 237c59.333 -36.667 122.833 -65.5 190.5 -86.5s130.5 -31.5 188.5 -31.5c42 0 73.667 6.83301 95 20.5s32 32.5 32 56.5
c0 25.333 -11.167 45.666 -33.5 60.999s-67.833 31.333 -136.5 48c-132 34.667 -224.667 74.667 -278 120s-80 113.333 -80 204c0 94.667 34 170.5 102 227.5s163 85.5 285 85.5c136.667 0 259.667 -24.667 369 -74l-39 -237c-116 62.667 -226 94 -330 94
c-34.667 0 -61.167 -6 -79.5 -18s-27.5 -28 -27.5 -48c0 -22 11.167 -40 33.5 -54s67.833 -30.667 136.5 -50c136.667 -36 231 -76.667 283 -122s78 -113.333 78 -204z" />
    <glyph glyph-name="t" unicode="t" horiz-adv-x="743" 
d="M705 6c-46.667 -13.333 -106.333 -20 -179 -20c-56 0 -105.333 5.5 -148 16.5s-80.667 28.833 -114 53.5s-58.666 59 -75.999 103s-26 97.333 -26 160v433h-133v252h133v299l307 49v-348h190l39 -252h-229v-383c0 -79.333 41 -119 123 -119
c25.333 0 50.666 3.33301 75.999 10z" />
    <glyph glyph-name="u" unicode="u" horiz-adv-x="1099" 
d="M993 0h-272l-23 137c-51.333 -50.667 -101.833 -89.5 -151.5 -116.5s-103.5 -40.5 -161.5 -40.5c-92 0 -162.5 27 -211.5 81s-73.5 130 -73.5 228v715h310v-629c0 -82 34.667 -123 104 -123c53.333 0 110 30 170 90v662h309v-1004z" />
    <glyph glyph-name="v" unicode="v" horiz-adv-x="1036" 
d="M1020 1004l-348 -1008h-310l-344 983l332 39l187 -633l180 619h303z" />
    <glyph glyph-name="w" unicode="w" horiz-adv-x="1484" 
d="M1464 1004l-280 -1006h-297l-146 573l-143 -573h-299l-274 981l319 39l137 -604l142 590h278l143 -588l132 588h288z" />
    <glyph glyph-name="x" unicode="x" horiz-adv-x="1015" 
d="M985 25l-321 -39l-172 317l-166 -303h-295l303 496l-289 483l324 39l155 -291l152 277h293l-289 -474z" />
    <glyph glyph-name="y" unicode="y" horiz-adv-x="1044" 
d="M1028 1004l-358.001 -1029c-44 -128 -98.667 -218 -164 -270s-152.666 -78 -261.999 -78c-38.667 0 -79 4.33301 -121 13l-41 249c37.333 -10.667 78.333 -16 123 -16c82 0 138.667 34.667 170 104l8 21l-365 981l332 39l193 -631l182 617h303z" />
    <glyph glyph-name="z" unicode="z" horiz-adv-x="956" 
d="M907 0h-852v233l445 529h-391l-37 242h811v-236l-443 -526h428z" />
    <glyph glyph-name="braceleft" unicode="{" horiz-adv-x="1036" 
d="M963 -213l-317.999 0.00390625c-104 0 -183.167 23.5 -237.5 70.5s-81.5 112.833 -81.5 197.5c0 32.667 4.33301 78.667 13 138s13 103.666 13 132.999c0 65.333 -18.333 111.666 -55 138.999s-91.334 41 -164.001 41h-51l-31 190h84c71.333 0 125.333 13.5 162 40.5
s55 72.833 55 137.5c0 30.667 -4.33301 75.667 -13 135s-13 104.666 -13 135.999c0 84.667 27.167 150.5 81.5 197.5s133.5 70.5 237.5 70.5h307v-190h-182c-92.667 0 -139 -39 -139 -117c0 -26.667 4.33301 -66.167 13 -118.5s13 -94.166 13 -125.499
c0 -74 -19.5 -131.5 -58.5 -172.5s-97.167 -70.167 -174.5 -87.5v-4c77.333 -17.333 135.5 -46.5 174.5 -87.5s58.5 -98.5 58.5 -172.5c0 -30.667 -4.33301 -72.334 -13 -125.001s-13 -92.334 -13 -119.001c0 -78 46.333 -117 139 -117h162z" />
    <glyph glyph-name="bar" unicode="|" horiz-adv-x="614" 
d="M436 -340l-258 -41v1819l258 41v-1819z" />
    <glyph glyph-name="braceright" unicode="}" horiz-adv-x="1036" 
d="M72 1413l317 -0.00390625c104 0 183.333 -23.667 238 -71s82 -113 82 -197c0 -32.667 -4.83301 -78.667 -14.5 -138s-14.5 -103.666 -14.5 -132.999c0 -65.333 18.5 -111.666 55.5 -138.999s91.5 -41 163.5 -41h53l29 -190h-82c-72 0 -126.5 -13.5 -163.5 -40.5
s-55.5 -72.833 -55.5 -137.5c0 -30.667 4.83301 -75.667 14.5 -135s14.5 -104.666 14.5 -135.999c0 -84 -27.333 -149.667 -82 -197s-134 -71 -238 -71h-307v190h182c92.667 0 139 39 139 117c0 26.667 -4.66699 66.167 -14 118.5s-14 94.166 -14 125.499
c0 74 19.5 131.5 58.5 172.5s97.833 70.167 176.5 87.5v4c-78.667 17.333 -137.5 46.5 -176.5 87.5s-58.5 98.5 -58.5 172.5c0 30.667 4.66699 72.334 14 125.001s14 92.334 14 119.001c0 78 -46.333 117 -139 117h-162z" />
    <glyph glyph-name="asciitilde" unicode="~" horiz-adv-x="837" 
d="M762 727c-14 -102.667 -36.999 -176.165 -68.999 -220.498s-74.667 -66.5 -128 -66.5c-16 0 -32.333 2 -49 6s-31 8.33301 -43 13s-29.667 12 -53 22c-42.667 18 -71.834 29.667 -87.501 35s-30.834 8 -45.501 8c-16 0 -29 -6.33301 -39 -19s-19 -36.334 -27 -71.001
l-145 31c13.333 103.333 35.833 177 67.5 221s74.5 66 128.5 66c16 0 32.667 -2 50 -6s30.666 -7.83301 39.999 -11.5l54 -21.5c40.667 -18.667 69.334 -30.834 86.001 -36.501s33 -8.5 49 -8.5c15.333 0 27.833 6.66699 37.5 20s18.834 37.333 27.501 72z" />
    <glyph glyph-name="nonbreakingspace" unicode="&#xa0;" horiz-adv-x="212" 
 />
    <glyph glyph-name="exclamdown" unicode="&#xa1;" horiz-adv-x="604" 
d="M469 1061h-334v352h334v-352zM496 0h-385l94 885l188 43z" />
    <glyph glyph-name="cent" unicode="&#xa2;" horiz-adv-x="1011" 
d="M938 268c-103.333 -56.667 -211.999 -86 -325.999 -88l-30 -200l-154 34l27 179c-118 24.667 -210.667 80.5 -278 167.5s-101 196.833 -101 329.5c0 159.333 49.5 284.5 148.5 375.5s225.5 136.5 379.5 136.5h6l31 201l156 -35l-29 -182
c56 -11.333 110 -30.666 162 -57.999l-39 -247c-59.333 33.333 -117.333 55.666 -174 66.999l-80 -520c89.333 2 178.666 28 267.999 78zM369.001 686c0 -124 46.333 -203.999 139 -239.999l80 510c-72 -6 -126.5 -31.833 -163.5 -77.5s-55.5 -109.834 -55.5 -192.501z" />
    <glyph glyph-name="sterling" unicode="&#xa3;" horiz-adv-x="1128" 
d="M96 817h192.999l73 236c38 124.667 94 215.5 168 272.5s173 85.5 297 85.5c84.667 0 158.667 -10.333 222 -31l-41 -276c-44.667 14.667 -93.334 22 -146.001 22c-53.333 0 -95.166 -13 -125.499 -39s-55.166 -70.333 -74.499 -133l-44 -137h254l41 -260h-376l-91 -291
h568l43 -266h-961v207l111 350h-111v260z" />
    <glyph glyph-name="yen" unicode="&#xa5;" horiz-adv-x="1312" 
d="M160 455v155h272l-416 742l359 47l291 -580l280 565h352l-444 -774h264l25 -155h-330v-133h320v-156h-320v-166h-336v166h-303l-24 156h327v133h-317z" />
    <glyph glyph-name="section" unicode="&#xa7;" horiz-adv-x="1165" 
d="M1102 748c0 -68.667 -22.666 -133.668 -67.999 -195.001l-227 37c18 30.667 27 58.667 27 84s-11 45.333 -33 60s-63 29.334 -123 44.001l-160 39c-106.667 26 -185.167 60.5 -235.5 103.5s-75.5 104.833 -75.5 185.5c0 92.667 34.5 165 103.5 217s158.833 78 269.5 78
c119.333 0 230.333 -17.667 333 -53l-34 -213c-100.667 42 -193.667 63 -279 63c-34.667 0 -60.667 -6 -78 -18s-26 -27.667 -26 -47c0 -20 8.16699 -35.5 24.5 -46.5s48.166 -22.833 95.499 -35.5l177 -43c114 -28 194 -60.667 240 -98s69 -91.333 69 -162zM66.001 636.999
c0 34 6 68.5029 18 103.503s28.333 65.167 49 90.5l225 -36c-16 -30.667 -24 -58.667 -24 -84c0 -26 10.833 -46.333 32.5 -61s62.5 -29.334 122.5 -44.001l158 -39c106.667 -26 185.167 -60.333 235.5 -103s75.5 -104.334 75.5 -185.001c0 -92.667 -34.333 -165 -103 -217
s-157.667 -78 -267 -78c-120 0 -231.333 17.667 -334 53l33 213c107.333 -42.667 200.666 -64 279.999 -64c34.667 0 60.834 6.16699 78.501 18.5s26.5 28.166 26.5 47.499c0 20 -8.5 35.333 -25.5 46s-48.833 22.667 -95.5 36l-178 43c-112.667 28.667 -192 61.5 -238 98.5
s-69 90.833 -69 161.5z" />
    <glyph glyph-name="dieresis" unicode="&#xa8;" horiz-adv-x="929" 
d="M801 1122h-266v269h266v-269zM395 1122h-266v269h266v-269z" />
    <glyph glyph-name="copyright" unicode="&#xa9;" horiz-adv-x="1636" 
d="M1526 709c0 -143.333 -29.832 -271 -89.499 -383s-143.334 -198.833 -251.001 -260.5s-230.5 -92.5 -368.5 -92.5c-210 0 -380.167 67.5 -510.5 202.5s-195.5 311.5 -195.5 529.5c0 144 29.833 271.833 89.5 383.5s143.167 198.167 250.5 259.5s230 92 368 92
c138.667 0 261.667 -30.5 369 -91.5s190.5 -146.833 249.5 -257.5s88.5 -238 88.5 -382zM1436 707c0 103.333 -15.834 197.001 -47.501 281.001s-75.334 153.333 -131.001 208s-121 96.667 -196 126s-155.833 44 -242.5 44c-88 0 -169.667 -14.667 -245 -44
s-140.666 -71.333 -195.999 -126s-98.666 -123.834 -129.999 -207.501s-47 -177.5 -47 -281.5c0 -103.333 15.833 -197 47.5 -281s75.334 -153.5 131.001 -208.5s121 -97.167 196 -126.5s156.167 -44 243.5 -44c88 0 169.5 14.667 244.5 44s140.167 71.5 195.5 126.5
s98.666 124.333 129.999 208s47 177.5 47 281.5zM1116 362.001c-77.333 -43.333 -162.667 -65.002 -256 -65.002c-128.667 0 -230.5 38 -305.5 114s-112.5 176.667 -112.5 302c0 123.333 38.333 223.333 115 300s176.334 115 299.001 115c89.333 0 171.333 -17.667 246 -53
l-31 -201c-67.333 44 -134.333 66 -201 66c-59.333 0 -105.833 -20.667 -139.5 -62s-50.5 -95.666 -50.5 -162.999c0 -69.333 18.5 -124.666 55.5 -165.999s86.833 -62 149.5 -62c63.333 0 130.666 20.667 201.999 62z" />
    <glyph glyph-name="ordfeminine" unicode="&#xaa;" horiz-adv-x="821" 
d="M700 725l-186.001 0.000976562l-14 82c-69.333 -62.667 -142.333 -94 -219 -94c-56 0 -100.833 16.167 -134.5 48.5s-50.5 75.5 -50.5 129.5c0 76 31.333 133.833 94 173.5s162.334 64.5 299.001 74.5v12c0 32 -9.16699 54.667 -27.5 68s-46.5 20 -84.5 20
c-68.667 0 -141 -16.333 -217 -49l-23 151c88 36 183 54 285 54c93.333 0 163 -18.333 209 -55s69 -94.334 69 -173.001v-442zM720.999 455.001h-617v149h592zM488.999 911.001v129.001c-125.333 -18 -188 -56.667 -188 -116c0 -20.667 5.5 -36.834 16.5 -48.501
s26.833 -17.5 47.5 -17.5c40.667 0 82 17.667 124 53z" />
    <glyph glyph-name="guillemotleft" unicode="&#xab;" horiz-adv-x="1169" 
d="M608 1004l-223 -502l211 -477l-201 -43l-350 520l340 502h223zM1096 1004l-222 -502l209 -477l-200 -43l-351 520l342 502h222z" />
    <glyph glyph-name="uni00AD" unicode="&#xad;" horiz-adv-x="724" 
d="M643 449h-559v294h559v-294z" />
    <glyph glyph-name="registered" unicode="&#xae;" horiz-adv-x="1153" 
d="M1040 963c0 -140.667 -43.499 -255.168 -130.499 -343.501s-198.5 -132.5 -334.5 -132.5c-137.333 0 -249 43.833 -335 131.5s-129 202.5 -129 344.5c0 140.667 43.5 255.334 130.5 344.001s198.167 133 333.5 133c137.333 0 249.166 -44 335.499 -132
s129.5 -203 129.5 -345zM973.001 962.999c0 130.667 -37.667 233.5 -113 308.5s-170.333 112.5 -285 112.5s-209.5 -37.5 -284.5 -112.5s-112.5 -177.833 -112.5 -308.5c0 -130 37.5 -232.5 112.5 -307.5s169.833 -112.5 284.5 -112.5c115.333 0 210.5 37.5 285.5 112.5
s112.5 177.5 112.5 307.5zM827.001 734.999l-153 -24.001l-119 188h-29v-182h-141v524h201c64.667 0 115 -14.167 151 -42.5s54 -68.833 54 -121.5c0 -69.333 -31.667 -117.666 -95 -144.999zM649.001 1067c0 22.667 -7 40.333 -21 53s-33.667 19 -59 19h-43v-146h41
c54.667 0 82 24.667 82 74z" />
    <glyph glyph-name="macron" unicode="&#xaf;" horiz-adv-x="929" 
d="M776 1141h-622v215h622v-215z" />
    <glyph glyph-name="degree" unicode="&#xb0;" horiz-adv-x="913" 
d="M819 1034c0 -105.333 -33.999 -191.666 -101.999 -258.999s-154.667 -101 -260 -101c-106 0 -193 33.667 -261 101s-102 153.666 -102 258.999c0 104.667 34.167 191.334 102.5 260.001s155.166 103 260.499 103s192 -34.333 260 -103s102 -155.334 102 -260.001z
M635.001 1034c0 55.333 -16.5 101.333 -49.5 138s-75.833 55 -128.5 55s-95.5 -18.333 -128.5 -55s-49.5 -82.667 -49.5 -138c0 -56 16.5 -101.667 49.5 -137s75.833 -53 128.5 -53s95.5 17.667 128.5 53s49.5 81 49.5 137z" />
    <glyph glyph-name="plusminus" unicode="&#xb1;" horiz-adv-x="1105" 
d="M950 733h-274v-287h-246v287h-276v234h276v286h246v-286h274v-234zM1008 117h-910v237h910v-237z" />
    <glyph glyph-name="twosuperior" unicode="&#xb2;" horiz-adv-x="737" 
d="M674 829h-596v170l268 244c27.333 24 46.5 43.833 57.5 59.5s16.5 33.5 16.5 53.5c0 22 -7.66699 38.667 -23 50s-36.333 17 -63 17c-55.333 0 -127 -25 -215 -75l-27 188c90 53.333 185.667 80 287 80c86 0 153.167 -20.833 201.5 -62.5s72.5 -95.167 72.5 -160.5
c0 -50.667 -12.5 -94.5 -37.5 -131.5s-65.5 -79.833 -121.5 -128.5l-138 -117h285z" />
    <glyph glyph-name="threesuperior" unicode="&#xb3;" horiz-adv-x="737" 
d="M670 1042c0 -70 -30.3311 -125.333 -90.998 -166s-139 -61 -235 -61c-108.667 0 -202.334 19.667 -281.001 59l33 175c76.667 -37.333 154.667 -56 234 -56c36 0 64 6.83301 84 20.5s30 32.167 30 55.5c0 26.667 -12.167 46 -36.5 58s-65.833 18 -124.5 18h-68l-29 149
h99c96.667 0 145 25.333 145 76c0 20 -8.5 36 -25.5 48s-41.833 18 -74.5 18c-36 0 -73.833 -5.66699 -113.5 -17s-74.834 -26.333 -105.501 -45l-33 172c90.667 46.667 184.667 70 282 70c92 0 164.167 -18.333 216.5 -55s78.5 -86.667 78.5 -150
c0 -44.667 -13.833 -82 -41.5 -112s-66.167 -52.667 -115.5 -68c114.667 -30 172 -93 172 -189z" />
    <glyph glyph-name="acute" unicode="&#xb4;" horiz-adv-x="929" 
d="M731 1368l-301 -248h-197l123 310z" />
    <glyph glyph-name="paragraph" unicode="&#xb6;" horiz-adv-x="1126" 
d="M985 0h-184v1243h-135v-336l-74 -450c-162.667 5.33301 -290 47.5 -382 126.5s-138 192.5 -138 340.5c0 144.667 46.667 257.5 140 338.5s222 121.5 386 121.5h387v-1384z" />
    <glyph glyph-name="periodcentered" unicode="&#xb7;" horiz-adv-x="530" 
d="M432 418h-332v354h332v-354z" />
    <glyph glyph-name="cedilla" unicode="&#xb8;" horiz-adv-x="929" 
d="M700 -166l-284 -217h-199l111 281z" />
    <glyph glyph-name="onesuperior" unicode="&#xb9;" horiz-adv-x="737" 
d="M672 829h-566v177h179v397l-166 -64l-25 174l248 101h168v-608h131z" />
    <glyph glyph-name="ordmasculine" unicode="&#xba;" horiz-adv-x="823" 
d="M745 1053c0 -104 -31 -186.667 -93 -248s-142.667 -92 -242 -92c-96.667 0 -176.167 30.833 -238.5 92.5s-93.5 144.167 -93.5 247.5c0 104 31.167 187 93.5 249s141.833 93 238.5 93c98.667 0 179.167 -31 241.5 -93s93.5 -145 93.5 -249zM733 455h-635v149h611z
M535 1053c0 52.667 -11 94.8311 -33 126.498s-52.667 47.5 -92 47.5c-38 0 -67.667 -16 -89 -48s-32 -74 -32 -126c0 -53.333 10.667 -95.666 32 -126.999s51 -47 89 -47c39.333 0 70 15.833 92 47.5s33 73.834 33 126.501z" />
    <glyph glyph-name="guillemotright" unicode="&#xbb;" horiz-adv-x="1169" 
d="M1124 500l-340 -500h-223l223 500l-211 477l201 43zM637 500l-340 -500h-223l221 500l-209 477l201 43z" />
    <glyph glyph-name="onequarter" unicode="&#xbc;" horiz-adv-x="1658" 
d="M672 625h-566v176h179v397l-166 -63l-25 174l248 100h168v-608h131zM1593 143h-100v-149h-213v149h-338v142l283 491h268v-481h100v-152zM1298 289v125l15 207h-15l-65 -144l-55 -96l-62 -90l6 -10l90 8h86zM526 -29l-139 37l436 699l412 694l139 -37l-438 -698z" />
    <glyph glyph-name="onehalf" unicode="&#xbd;" horiz-adv-x="1658" 
d="M672 625h-566v176h179v397l-166 -63l-25 174l248 100h168v-608h131zM1595 0l-596 0.000976562v168l269 246c26 22 44.667 41 56 57s17 34.333 17 55c0 21.333 -7.83301 38 -23.5 50s-36.5 18 -62.5 18c-56 0 -127.667 -26 -215 -78l-26 191c88.667 52.667 184 79 286 79
c86 0 153.333 -20.833 202 -62.5s73 -95.167 73 -160.5c0 -36 -7.33301 -69.667 -22 -101s-32 -57.833 -52 -79.5s-48.667 -48.834 -86 -81.501l-137 -115h285zM496 -28.999l-140 37l437 699l411 694l139 -37l-438 -698z" />
    <glyph glyph-name="threequarters" unicode="&#xbe;" horiz-adv-x="1658" 
d="M670 838c0 -70 -30.332 -125.5 -90.999 -166.5s-139 -61.5 -235 -61.5c-107.333 0 -201 20 -281 60l33 174c76.667 -37.333 154.667 -56 234 -56c36 0 64 6.83301 84 20.5s30 32.167 30 55.5c0 26.667 -12.167 46 -36.5 58s-65.833 18 -124.5 18h-68l-29 150h99
c96.667 0 145 25 145 75c0 20 -8.5 36 -25.5 48s-41.833 18 -74.5 18c-36 0 -73.833 -5.66699 -113.5 -17s-74.834 -26.333 -105.501 -45l-33 172c90.667 46.667 184.667 70 282 70c92 0 164.167 -18.333 216.5 -55s78.5 -86.667 78.5 -150
c0 -44.667 -13.833 -82 -41.5 -112s-66.167 -52.667 -115.5 -68c114.667 -30 172 -92.667 172 -188zM1593 143h-100v-149h-213v149h-338v142l283 491h268v-481h100v-152zM1298 289v125l15 207h-15l-65 -144l-55 -96l-62 -90l6 -10l90 8h86zM506.001 -29l-139 37l436 699
l411 694l140 -37l-439 -698z" />
    <glyph glyph-name="questiondown" unicode="&#xbf;" horiz-adv-x="1036" 
d="M436 1413h332v-352h-332v352zM483 829l5.99902 68l203 47l23 -311l-64 -21c-100 -31.333 -170.333 -63.5 -211 -96.5s-61 -73.833 -61 -122.5c0 -42.667 15 -75.834 45 -99.501s73 -35.5 129 -35.5c121.333 0 250.333 48.333 387 145l43 -286
c-141.333 -96 -299.666 -144 -474.999 -144c-144.667 0 -257 34.667 -337 104s-120 166 -120 290c0 116 35.5 210.333 106.5 283s179.5 132.334 325.5 179.001z" />
    <glyph glyph-name="Agrave" unicode="&#xc0;" horiz-adv-x="1437" 
d="M27 0l508 1419h385l491 -1376l-354 -57l-105 307h-487l-94 -293h-344zM852 1538h-205l-299 248l379 61zM709 1059l-160 -492h317z" />
    <glyph glyph-name="Aacute" unicode="&#xc1;" horiz-adv-x="1437" 
d="M27 0l508 1419h385l491 -1376l-354 -57l-105 307h-487l-94 -293h-344zM1096 1786l-301 -248h-197l123 309zM709 1059l-160 -492h317z" />
    <glyph glyph-name="Acircumflex" unicode="&#xc2;" horiz-adv-x="1437" 
d="M27 0l508 1419h385l491 -1376l-354 -57l-105 307h-487l-94 -293h-344zM1071 1538h-197l-151 119l-152 -119h-196l205 301h286zM709 1059l-160 -492h317z" />
    <glyph glyph-name="Atilde" unicode="&#xc3;" horiz-adv-x="1437" 
d="M27 0l508 1419h385l491 -1376l-354 -57l-105 307h-487l-94 -293h-344zM1073 1823c-13.333 -102 -35.8301 -175 -67.4971 -219s-73.834 -66 -126.501 -66c-37.333 0 -86 13.667 -146 41c-42.667 18 -71.834 29.667 -87.501 35s-30.834 8 -45.501 8
c-16 0 -28.833 -6.33301 -38.5 -19s-18.5 -36.334 -26.5 -71.001l-148 31c14 103.333 37 176.833 69 220.5s74.667 65.5 128 65.5c24.667 0 47 -3 67 -9s46 -16.667 78 -32c64 -28.667 108.333 -43 133 -43c16 0 29 6.83301 39 20.5s19 37.834 27 72.501zM709.003 1059
l-160 -492h317z" />
    <glyph glyph-name="Adieresis" unicode="&#xc4;" horiz-adv-x="1437" 
d="M27 0l508 1419h385l491 -1376l-354 -57l-105 307h-487l-94 -293h-344zM709 1059l-160 -492h317zM1059 1540h-266v268h266v-268zM653 1540h-266v268h266v-268z" />
    <glyph glyph-name="Aring" unicode="&#xc5;" horiz-adv-x="1437" 
d="M991 1499c0 -52.667 -17 -99 -51 -139l471 -1317l-352 -57l-105 307h-491l-94 -293h-342l481 1352c-38 38 -57 87 -57 147c0 63.333 23.667 116 71 158s113.666 63 198.999 63c84.667 0 150.834 -21 198.501 -63s71.5 -94.667 71.5 -158zM709 1059l-162 -492h319z
M823 1499c0 32.667 -9.5 60.667 -28.5 84s-43.5 35 -73.5 35s-54.667 -11.667 -74 -35s-29 -51.333 -29 -84c0 -33.333 9.66699 -61.5 29 -84.5s44 -34.5 74 -34.5s54.5 11.5 73.5 34.5s28.5 51.167 28.5 84.5z" />
    <glyph glyph-name="AE" unicode="&#xc6;" horiz-adv-x="1857" 
d="M2 0l694 1413h1073v-283h-536v-266h409l46 -280h-455v-299h555v-285h-885v293h-403l-138 -293h-360zM623 567h280v613z" />
    <glyph glyph-name="Ccedilla" unicode="&#xc7;" horiz-adv-x="1230" 
d="M1165 84c-124.667 -72.667 -260.999 -108.999 -408.999 -108.999c-210 0 -375.5 65.667 -496.5 197s-181.5 309 -181.5 533c0 220.667 62.833 398 188.5 532s294.167 201 505.5 201c142.667 0 267 -30.667 373 -92l-49 -316c-97.333 76.667 -199 115 -305 115
c-110.667 0 -198.834 -39.333 -264.501 -118s-98.5 -185.334 -98.5 -320.001c0 -135.333 33.833 -242.333 101.5 -321s157.5 -118 269.5 -118c99.333 0 206.333 36.333 321 109zM938.001 -181.999l-285 -217h-198l110 280z" />
    <glyph glyph-name="Egrave" unicode="&#xc8;" 
d="M1028 0h-899v1413h881v-283h-537v-266h410l45 -280h-455v-299h555v-285zM705 1518h-205l-299 247l379 62z" />
    <glyph glyph-name="Eacute" unicode="&#xc9;" 
d="M948 1765l-301 -247h-196l122 309zM1028 0h-899v1413h881v-283h-537v-266h410l45 -280h-455v-299h555v-285z" />
    <glyph glyph-name="Ecircumflex" unicode="&#xca;" 
d="M924 1518h-197l-152 118l-151 -118h-197l205 301h287zM1028 0h-899v1413h881v-283h-537v-266h410l45 -280h-455v-299h555v-285z" />
    <glyph glyph-name="Edieresis" unicode="&#xcb;" 
d="M911 1520h-266v268h266v-268zM506 1520h-266v268h266v-268zM1028 0h-899v1413h881v-283h-537v-266h410l45 -280h-455v-299h555v-285z" />
    <glyph glyph-name="Igrave" unicode="&#xcc;" horiz-adv-x="624" 
d="M487 0h-350v1413h350v-1413zM440 1518h-204l-299 247l378 62z" />
    <glyph glyph-name="Iacute" unicode="&#xcd;" horiz-adv-x="624" 
d="M487 0h-350v1413h350v-1413zM684 1765l-301 -247h-197l123 309z" />
    <glyph glyph-name="Icircumflex" unicode="&#xce;" horiz-adv-x="624" 
d="M487 0h-350v1413h350v-1413zM659 1518h-196l-152 118l-151 -118h-197l205 301h287z" />
    <glyph glyph-name="Idieresis" unicode="&#xcf;" horiz-adv-x="624" 
d="M487 0h-350v1413h350v-1413zM649 1520h-266v268h266v-268zM244 1520h-267v268h267v-268z" />
    <glyph glyph-name="Eth" unicode="&#xd0;" horiz-adv-x="1501" 
d="M1425 709c0 -105.333 -16.333 -201.332 -49 -287.999s-79.667 -161.334 -141 -224.001s-138.833 -111.167 -232.5 -145.5s-199.167 -51.5 -316.5 -51.5h-498v580h-129l-47 292h176v541h488c120.667 0 228.667 -17 324 -51s173.833 -82 235.5 -144s108.667 -136 141 -222
s48.5 -181.667 48.5 -287zM1071 707.001c0 144 -36.167 252.334 -108.5 325.001s-171.166 109 -296.499 109h-136v-275h250v-282h-250v-312h136c129.333 0 229.166 35.667 299.499 107s105.5 180.666 105.5 327.999z" />
    <glyph glyph-name="Ntilde" unicode="&#xd1;" horiz-adv-x="1443" 
d="M1315 0h-303l-557 846v-846h-326v1413h340l520 -790v790h326v-1413zM1071 1796c-13.333 -102 -35.8301 -174.999 -67.4971 -218.999s-73.834 -66 -126.501 -66c-37.333 0 -86 13.667 -146 41c-42.667 18 -71.834 29.667 -87.501 35s-30.834 8 -45.501 8
c-16 0 -29 -6.33301 -39 -19s-19 -36.334 -27 -71.001l-147 31c14 103.333 37 177 69 221s74.667 66 128 66c24.667 0 47 -3 67 -9s46 -16.667 78 -32c64 -28.667 108.333 -43 133 -43c16 0 29 6.66699 39 20s19 37.333 27 72z" />
    <glyph glyph-name="Ograve" unicode="&#xd2;" horiz-adv-x="1505" 
d="M1427 709c0 -144.667 -27.5 -272.501 -82.5 -383.501s-134 -197.5 -237 -259.5s-222.167 -93 -357.5 -93c-202 0 -364.5 67.333 -487.5 202s-184.5 311.334 -184.5 530.001c0 220 61.667 397.5 185 532.5s287 202.5 491 202.5c134.667 0 253.167 -30.5 355.5 -91.5
s180.833 -146.667 235.5 -257s82 -237.833 82 -382.5zM1075 706.999c0 142 -28.333 253.832 -85 335.499s-136 122.5 -238 122.5c-100.667 0 -179.834 -41 -237.501 -123s-86.5 -193.667 -86.5 -335s28.833 -253.166 86.5 -335.499s136.834 -123.5 237.501 -123.5
c101.333 0 180.5 41 237.5 123s85.5 194 85.5 336zM881 1538h-205l-299 248l379 61z" />
    <glyph glyph-name="Oacute" unicode="&#xd3;" horiz-adv-x="1505" 
d="M1124 1786l-301 -248h-196l123 309zM1427 709c0 -144.667 -27.5 -272.501 -82.5 -383.501s-134 -197.5 -237 -259.5s-222.167 -93 -357.5 -93c-202 0 -364.5 67.333 -487.5 202s-184.5 311.334 -184.5 530.001c0 220 61.667 397.5 185 532.5s287 202.5 491 202.5
c134.667 0 253.167 -30.5 355.5 -91.5s180.833 -146.667 235.5 -257s82 -237.833 82 -382.5zM1075 706.999c0 142 -28.333 253.832 -85 335.499s-136 122.5 -238 122.5c-100.667 0 -179.834 -41 -237.501 -123s-86.5 -193.667 -86.5 -335s28.833 -253.166 86.5 -335.499
s136.834 -123.5 237.501 -123.5c101.333 0 180.5 41 237.5 123s85.5 194 85.5 336z" />
    <glyph glyph-name="Ocircumflex" unicode="&#xd4;" horiz-adv-x="1505" 
d="M1098 1538h-197l-151 119l-152 -119h-197l205 301h287zM1427 709c0 -144.667 -27.5 -272.501 -82.5 -383.501s-134 -197.5 -237 -259.5s-222.167 -93 -357.5 -93c-202 0 -364.5 67.333 -487.5 202s-184.5 311.334 -184.5 530.001c0 220 61.667 397.5 185 532.5
s287 202.5 491 202.5c134.667 0 253.167 -30.5 355.5 -91.5s180.833 -146.667 235.5 -257s82 -237.833 82 -382.5zM1075 706.999c0 142 -28.333 253.832 -85 335.499s-136 122.5 -238 122.5c-100.667 0 -179.834 -41 -237.501 -123s-86.5 -193.667 -86.5 -335
s28.833 -253.166 86.5 -335.499s136.834 -123.5 237.501 -123.5c101.333 0 180.5 41 237.5 123s85.5 194 85.5 336z" />
    <glyph glyph-name="Otilde" unicode="&#xd5;" horiz-adv-x="1505" 
d="M1427 709c0 -144.667 -27.5 -272.501 -82.5 -383.501s-134 -197.5 -237 -259.5s-222.167 -93 -357.5 -93c-202 0 -364.5 67.333 -487.5 202s-184.5 311.334 -184.5 530.001c0 220 61.667 397.5 185 532.5s287 202.5 491 202.5c134.667 0 253.167 -30.5 355.5 -91.5
s180.833 -146.667 235.5 -257s82 -237.833 82 -382.5zM1075 706.999c0 142 -28.333 253.832 -85 335.499s-136 122.5 -238 122.5c-100.667 0 -179.834 -41 -237.501 -123s-86.5 -193.667 -86.5 -335s28.833 -253.166 86.5 -335.499s136.834 -123.5 237.501 -123.5
c101.333 0 180.5 41 237.5 123s85.5 194 85.5 336zM1102 1823c-13.333 -102 -35.8311 -174.998 -67.498 -218.998s-74.167 -66 -127.5 -66c-24 0 -46 3.16699 -66 9.5s-46.333 16.833 -79 31.5c-42.667 18 -71.834 29.667 -87.501 35s-30.834 8 -45.501 8
c-16 0 -29 -6.33301 -39 -19s-19 -36.334 -27 -71.001l-147 31c14 103.333 37 176.833 69 220.5s74.333 65.5 127 65.5c39.333 0 88 -13.667 146 -41c64 -28.667 108.333 -43 133 -43c16 0 28.833 6.66699 38.5 20s18.5 37.666 26.5 72.999z" />
    <glyph glyph-name="Odieresis" unicode="&#xd6;" horiz-adv-x="1505" 
d="M1087 1540h-266v268h266v-268zM682 1540h-266v268h266v-268zM1427 709c0 -144.667 -27.5 -272.501 -82.5 -383.501s-134 -197.5 -237 -259.5s-222.167 -93 -357.5 -93c-202 0 -364.5 67.333 -487.5 202s-184.5 311.334 -184.5 530.001c0 220 61.667 397.5 185 532.5
s287 202.5 491 202.5c134.667 0 253.167 -30.5 355.5 -91.5s180.833 -146.667 235.5 -257s82 -237.833 82 -382.5zM1075 706.999c0 142 -28.333 253.832 -85 335.499s-136 122.5 -238 122.5c-100.667 0 -179.834 -41 -237.501 -123s-86.5 -193.667 -86.5 -335
s28.833 -253.166 86.5 -335.499s136.834 -123.5 237.501 -123.5c101.333 0 180.5 41 237.5 123s85.5 194 85.5 336z" />
    <glyph glyph-name="multiply" unicode="&#xd7;" horiz-adv-x="1171" 
d="M870 231l-286 291l-285 -289l-172 173l289 284l-291 287l176 176l287 -291l284 289l172 -172l-288 -285l291 -286z" />
    <glyph glyph-name="Oslash" unicode="&#xd8;" horiz-adv-x="1505" 
d="M1427 705c0 -108 -16.167 -207.332 -48.5 -297.999s-77.5 -167.834 -135.5 -231.501s-128.833 -113.334 -212.5 -149.001s-175.167 -53.5 -274.5 -53.5c-153.333 0 -286 41 -398 123l-94 -114l-213 47l168 204c-94 130.667 -141 289.334 -141 476.001
c0 144 28 271.333 84 382s135 196.5 237 257.5s219 91.5 351 91.5c150 0 282.333 -41 397 -123l94 115l213 -48l-168 -204c94 -130.667 141 -289 141 -475zM752 1178c-101.333 0 -181.332 -42.832 -239.999 -128.499s-88 -199.834 -88 -342.501
c0 -88.667 11 -164.667 33 -228l504 608c-58.667 60.667 -128.334 91 -209.001 91zM1081 707.002c0 80.667 -10.667 156.334 -32 227.001l-504 -610c54.667 -58.667 123.667 -88 207 -88c102.667 0 183.167 42.667 241.5 128s87.5 199.666 87.5 342.999z" />
    <glyph glyph-name="Ugrave" unicode="&#xd9;" horiz-adv-x="1409" 
d="M1296 561c0 -96 -15 -181.499 -45 -256.499s-71.667 -136.167 -125 -183.5s-116 -83.166 -188 -107.499s-151.333 -36.5 -238 -36.5c-179.333 0 -322 49.167 -428 147.5s-159 243.166 -159 434.499v854h352v-852c0 -92 20.5 -163.167 61.5 -213.5
s100.5 -75.5 178.5 -75.5c78.667 0 138.167 24.667 178.5 74s60.5 119.666 60.5 210.999v856h352v-852zM831 1511h-204l-299 248l379 62z" />
    <glyph glyph-name="Uacute" unicode="&#xda;" horiz-adv-x="1409" 
d="M1073 1759l-301 -248h-197l123 310zM1296 561c0 -96 -15 -181.499 -45 -256.499s-71.667 -136.167 -125 -183.5s-116 -83.166 -188 -107.499s-151.333 -36.5 -238 -36.5c-179.333 0 -322 49.167 -428 147.5s-159 243.166 -159 434.499v854h352v-852
c0 -92 20.5 -163.167 61.5 -213.5s100.5 -75.5 178.5 -75.5c78.667 0 138.167 24.667 178.5 74s60.5 119.666 60.5 210.999v856h352v-852z" />
    <glyph glyph-name="Ucircumflex" unicode="&#xdb;" horiz-adv-x="1409" 
d="M1049 1511h-197l-152 119l-151 -119h-197l205 301h287zM1296 561c0 -96 -15 -181.499 -45 -256.499s-71.667 -136.167 -125 -183.5s-116 -83.166 -188 -107.499s-151.333 -36.5 -238 -36.5c-179.333 0 -322 49.167 -428 147.5s-159 243.166 -159 434.499v854h352v-852
c0 -92 20.5 -163.167 61.5 -213.5s100.5 -75.5 178.5 -75.5c78.667 0 138.167 24.667 178.5 74s60.5 119.666 60.5 210.999v856h352v-852z" />
    <glyph glyph-name="Udieresis" unicode="&#xdc;" horiz-adv-x="1409" 
d="M1038 1513h-266v269h266v-269zM633 1513h-266v269h266v-269zM1296 561c0 -96 -15 -181.499 -45 -256.499s-71.667 -136.167 -125 -183.5s-116 -83.166 -188 -107.499s-151.333 -36.5 -238 -36.5c-179.333 0 -322 49.167 -428 147.5s-159 243.166 -159 434.499v854h352
v-852c0 -92 20.5 -163.167 61.5 -213.5s100.5 -75.5 178.5 -75.5c78.667 0 138.167 24.667 178.5 74s60.5 119.666 60.5 210.999v856h352v-852z" />
    <glyph glyph-name="Yacute" unicode="&#xdd;" horiz-adv-x="1372" 
d="M1370 1413l-510 -893v-520h-350v516l-490 860l373 51l307 -585l297 571h373zM1073 1759l-301 -248h-197l123 310z" />
    <glyph glyph-name="Thorn" unicode="&#xde;" horiz-adv-x="1193" 
d="M1137 735c0 -156 -51.168 -275.5 -153.501 -358.5s-241.166 -124.5 -416.499 -124.5h-88v-252h-350v1413h350v-217h103c176 0 312.5 -39 409.5 -117s145.5 -192.667 145.5 -344zM798.999 729c0 135.333 -78.667 203 -236 203h-88v-416h82c161.333 0 242 71 242 213z" />
    <glyph glyph-name="germandbls" unicode="&#xdf;" horiz-adv-x="1255" 
d="M1210 322c0 -108 -31.999 -191.002 -95.999 -249.002s-152 -87 -264 -87c-102.667 0 -198.334 21.667 -287.001 65l39 234c76 -45.333 145.667 -68 209 -68c32 0 57.333 8.33301 76 25s28 40.334 28 71.001c0 40 -22 78 -66 114s-120 70.333 -228 103l-31 205
c83.333 122.667 125 238 125 346c0 49.333 -10.167 87 -30.5 113s-49.833 39 -88.5 39c-39.333 0 -69.333 -14.167 -90 -42.5s-31 -68.833 -31 -121.5v-1069h-309v752h-139v252h139v43c0 136 37.333 240.167 112 312.5s182 108.5 322 108.5
c134.667 0 237.334 -32.833 308.001 -98.5s106 -152.834 106 -261.501c0 -77.333 -14.167 -144.833 -42.5 -202.5s-70.833 -118.5 -127.5 -182.5c123.333 -41.333 215.166 -93.666 275.499 -156.999s90.5 -144.666 90.5 -243.999z" />
    <glyph glyph-name="agrave" unicode="&#xe0;" horiz-adv-x="1038" 
d="M940 0h-273.999l-21 125c-92 -96.667 -197 -145 -315 -145c-82 0 -148 24.167 -198 72.5s-75 116.833 -75 205.5c0 116.667 46 204.834 138 264.501s237.333 98.5 436 116.5v18c0 43.333 -12.5 75.333 -37.5 96s-63.167 31 -114.5 31
c-102.667 0 -210.334 -25 -323.001 -75l-37 233c127.333 52 263 78 407 78c142 0 246.5 -26.833 313.5 -80.5s100.5 -142.834 100.5 -267.501v-672zM631.001 276v213c-99.333 -15.333 -169 -38.833 -209 -70.5s-60 -71.5 -60 -119.5c0 -30.667 9 -54.667 27 -72
s42 -26 72 -26c57.333 0 114 25 170 75zM653.001 1120h-204l-299 248l378 62z" />
    <glyph glyph-name="aacute" unicode="&#xe1;" horiz-adv-x="1038" 
d="M940 0h-273.999l-21 125c-92 -96.667 -197 -145 -315 -145c-82 0 -148 24.167 -198 72.5s-75 116.833 -75 205.5c0 116.667 46 204.834 138 264.501s237.333 98.5 436 116.5v18c0 43.333 -12.5 75.333 -37.5 96s-63.167 31 -114.5 31
c-102.667 0 -210.334 -25 -323.001 -75l-37 233c127.333 52 263 78 407 78c142 0 246.5 -26.833 313.5 -80.5s100.5 -142.834 100.5 -267.501v-672zM631.001 276v213c-99.333 -15.333 -169 -38.833 -209 -70.5s-60 -71.5 -60 -119.5c0 -30.667 9 -54.667 27 -72
s42 -26 72 -26c57.333 0 114 25 170 75zM895.001 1368l-301 -248h-197l123 310z" />
    <glyph glyph-name="acircumflex" unicode="&#xe2;" horiz-adv-x="1038" 
d="M940 0h-273.999l-21 125c-92 -96.667 -197 -145 -315 -145c-82 0 -148 24.167 -198 72.5s-75 116.833 -75 205.5c0 116.667 46 204.834 138 264.501s237.333 98.5 436 116.5v18c0 43.333 -12.5 75.333 -37.5 96s-63.167 31 -114.5 31
c-102.667 0 -210.334 -25 -323.001 -75l-37 233c127.333 52 263 78 407 78c142 0 246.5 -26.833 313.5 -80.5s100.5 -142.834 100.5 -267.501v-672zM631.001 276v213c-99.333 -15.333 -169 -38.833 -209 -70.5s-60 -71.5 -60 -119.5c0 -30.667 9 -54.667 27 -72
s42 -26 72 -26c57.333 0 114 25 170 75zM870.001 1120h-196l-152 119l-151 -119h-197l205 301h287z" />
    <glyph glyph-name="atilde" unicode="&#xe3;" horiz-adv-x="1038" 
d="M940 0h-273.999l-21 125c-92 -96.667 -197 -145 -315 -145c-82 0 -148 24.167 -198 72.5s-75 116.833 -75 205.5c0 116.667 46 204.834 138 264.501s237.333 98.5 436 116.5v18c0 43.333 -12.5 75.333 -37.5 96s-63.167 31 -114.5 31
c-102.667 0 -210.334 -25 -323.001 -75l-37 233c127.333 52 263 78 407 78c142 0 246.5 -26.833 313.5 -80.5s100.5 -142.834 100.5 -267.501v-672zM631.001 276v213c-99.333 -15.333 -169 -38.833 -209 -70.5s-60 -71.5 -60 -119.5c0 -30.667 9 -54.667 27 -72
s42 -26 72 -26c57.333 0 114 25 170 75zM872.001 1405c-13.333 -102 -35.8301 -174.999 -67.4971 -218.999s-73.834 -66 -126.501 -66c-37.333 0 -86 13.667 -146 41c-42.667 18 -71.834 29.667 -87.501 35s-30.834 8 -45.501 8c-16 0 -28.833 -6.33301 -38.5 -19
s-18.5 -36.334 -26.5 -71.001l-148 31c14 103.333 37 177 69 221s74.667 66 128 66c24.667 0 47 -3 67 -9s46 -16.667 78 -32c64 -28.667 108.667 -43 134 -43c16 0 28.833 6.66699 38.5 20s18.5 37.333 26.5 72z" />
    <glyph glyph-name="adieresis" unicode="&#xe4;" horiz-adv-x="1038" 
d="M940 0h-273.999l-21 125c-92 -96.667 -197 -145 -315 -145c-82 0 -148 24.167 -198 72.5s-75 116.833 -75 205.5c0 116.667 46 204.834 138 264.501s237.333 98.5 436 116.5v18c0 43.333 -12.5 75.333 -37.5 96s-63.167 31 -114.5 31
c-102.667 0 -210.334 -25 -323.001 -75l-37 233c127.333 52 263 78 407 78c142 0 246.5 -26.833 313.5 -80.5s100.5 -142.834 100.5 -267.501v-672zM631.001 276v213c-99.333 -15.333 -169 -38.833 -209 -70.5s-60 -71.5 -60 -119.5c0 -30.667 9 -54.667 27 -72
s42 -26 72 -26c57.333 0 114 25 170 75zM860.001 1122h-266v269h266v-269zM455.001 1122h-267v269h267v-269z" />
    <glyph glyph-name="aring" unicode="&#xe5;" horiz-adv-x="1038" 
d="M940 0h-273.999l-21 125c-92 -96.667 -197 -145 -315 -145c-82 0 -148 24.167 -198 72.5s-75 116.833 -75 205.5c0 116.667 46 204.834 138 264.501s237.333 98.5 436 116.5v18c0 43.333 -12.5 75.333 -37.5 96s-63.167 31 -114.5 31
c-102.667 0 -210.334 -25 -323.001 -75l-37 233c127.333 52 263 78 407 78c142 0 246.5 -26.833 313.5 -80.5s100.5 -142.834 100.5 -267.501v-672zM631.001 276v213c-99.333 -15.333 -169 -38.833 -209 -70.5s-60 -71.5 -60 -119.5c0 -30.667 9 -54.667 27 -72
s42 -26 72 -26c57.333 0 114 25 170 75zM795.001 1337c0 -64 -23.666 -116.833 -70.999 -158.5s-114 -62.5 -200 -62.5s-152.5 20.833 -199.5 62.5s-70.5 94.5 -70.5 158.5c0 63.333 23.667 116.166 71 158.499s113.666 63.5 198.999 63.5s151.833 -21.167 199.5 -63.5
s71.5 -95.166 71.5 -158.499zM627.002 1337c0 32.667 -9.66699 60.667 -29 84s-44 35 -74 35s-54.5 -11.667 -73.5 -35s-28.5 -51.333 -28.5 -84c0 -33.333 9.5 -61.333 28.5 -84s43.5 -34 73.5 -34s54.667 11.333 74 34s29 50.667 29 84z" />
    <glyph glyph-name="ae" unicode="&#xe6;" horiz-adv-x="1599" 
d="M1538 504c0 -34.667 -1.3291 -61.334 -3.99609 -80.001h-604c14.667 -146 96.667 -219 246 -219c102.667 0 212.334 35.333 329.001 106l33 -219c-116 -74.667 -249 -112 -399 -112c-174 0 -306.667 49.667 -398 149c-119.333 -99.333 -242 -149 -368 -149
c-94.667 0 -171 23.5 -229 70.5s-87 115.5 -87 205.5c0 114.667 45.5 202.5 136.5 263.5s234.833 100.833 431.5 119.5v18c0 44 -11.667 76.167 -35 96.5s-60.333 30.5 -111 30.5c-102.667 0 -210.334 -25 -323.001 -75l-37 233c127.333 52 257.666 78 390.999 78
c80.667 0 145 -10.333 193 -31s86.667 -54.667 116 -102c76.667 91.333 173.667 137 291 137c71.333 0 134.666 -13.333 189.999 -40s100.166 -63.667 134.499 -111s60.166 -102.166 77.499 -164.499s26 -130.5 26 -204.5zM1243 594c-4 75.333 -19.5 132.333 -46.5 171
s-64.167 58 -111.5 58c-43.333 0 -79 -19.5 -107 -58.5s-44 -95.833 -48 -170.5h313zM653.004 283c-20 68 -30 135.333 -30 202v2c-96 -15.333 -163.5 -38.833 -202.5 -70.5s-58.5 -69.5 -58.5 -113.5c0 -68 35.667 -102 107 -102c62 0 123.333 27.333 184 82z" />
    <glyph glyph-name="ccedilla" unicode="&#xe7;" horiz-adv-x="925" 
d="M862 70c-95.333 -58.667 -201.665 -88 -318.998 -88c-146.667 0 -264.334 45.333 -353.001 136s-133 216 -133 376c0 85.333 13.167 162 39.5 230s62.333 123.167 108 165.5s98.5 74.666 158.5 96.999s124.667 33.5 194 33.5c108 0 207 -25.333 297 -76l-41 -264
c-78.667 49.333 -153.667 74 -225 74c-66 0 -118.667 -21.667 -158 -65s-59 -105.666 -59 -186.999c0 -82.667 21 -145.667 63 -189s96 -65 162 -65c75.333 0 151.666 25.333 228.999 76zM752.001 -166l-285 -217h-199l111 281z" />
    <glyph glyph-name="egrave" unicode="&#xe8;" horiz-adv-x="1034" 
d="M973 92c-116 -74.667 -249.334 -111.999 -400.001 -111.999c-157.333 0 -282.666 43.5 -375.999 130.5s-140 216.167 -140 387.5c0 161.333 44.167 289.333 132.5 384s201.833 142 340.5 142c75.333 0 141.833 -13.333 199.5 -40s104.167 -63.834 139.5 -111.501
s61.833 -102.5 79.5 -164.5s26.5 -130 26.5 -204c0 -32 -1.33301 -58.667 -4 -80h-606c14.667 -146 97 -219 247 -219c101.333 0 211.333 35.333 330 106zM663.999 1120h-205l-299 248l379 62zM521.999 823.001c-45.333 0 -82.167 -19.333 -110.5 -58
s-44.833 -95.667 -49.5 -171h318c-10 152.667 -62.667 229 -158 229z" />
    <glyph glyph-name="eacute" unicode="&#xe9;" horiz-adv-x="1034" 
d="M973 92c-116 -74.667 -249.334 -111.999 -400.001 -111.999c-157.333 0 -282.666 43.5 -375.999 130.5s-140 216.167 -140 387.5c0 161.333 44.167 289.333 132.5 384s201.833 142 340.5 142c75.333 0 141.833 -13.333 199.5 -40s104.167 -63.834 139.5 -111.501
s61.833 -102.5 79.5 -164.5s26.5 -130 26.5 -204c0 -32 -1.33301 -58.667 -4 -80h-606c14.667 -146 97 -219 247 -219c101.333 0 211.333 35.333 330 106zM904.999 1368l-301 -248h-196l122 310zM521.999 823.001c-45.333 0 -82.167 -19.333 -110.5 -58
s-44.833 -95.667 -49.5 -171h318c-10 152.667 -62.667 229 -158 229z" />
    <glyph glyph-name="ecircumflex" unicode="&#xea;" horiz-adv-x="1034" 
d="M973 92c-116 -74.667 -249.334 -111.999 -400.001 -111.999c-157.333 0 -282.666 43.5 -375.999 130.5s-140 216.167 -140 387.5c0 161.333 44.167 289.333 132.5 384s201.833 142 340.5 142c75.333 0 141.833 -13.333 199.5 -40s104.167 -63.834 139.5 -111.501
s61.833 -102.5 79.5 -164.5s26.5 -130 26.5 -204c0 -32 -1.33301 -58.667 -4 -80h-606c14.667 -146 97 -219 247 -219c101.333 0 211.333 35.333 330 106zM880.999 1120h-197l-152 119l-151 -119h-197l205 301h287zM521.999 823.001c-45.333 0 -82.167 -19.333 -110.5 -58
s-44.833 -95.667 -49.5 -171h318c-10 152.667 -62.667 229 -158 229z" />
    <glyph glyph-name="edieresis" unicode="&#xeb;" horiz-adv-x="1034" 
d="M973 92c-116 -74.667 -249.334 -111.999 -400.001 -111.999c-157.333 0 -282.666 43.5 -375.999 130.5s-140 216.167 -140 387.5c0 161.333 44.167 289.333 132.5 384s201.833 142 340.5 142c75.333 0 141.833 -13.333 199.5 -40s104.167 -63.834 139.5 -111.501
s61.833 -102.5 79.5 -164.5s26.5 -130 26.5 -204c0 -32 -1.33301 -58.667 -4 -80h-606c14.667 -146 97 -219 247 -219c101.333 0 211.333 35.333 330 106zM464.999 1122h-266v269h266v-269zM869.999 1122h-266v269h266v-269zM521.999 823.001
c-45.333 0 -82.167 -19.333 -110.5 -58s-44.833 -95.667 -49.5 -171h318c-10 152.667 -62.667 229 -158 229z" />
    <glyph glyph-name="igrave" unicode="&#xec;" horiz-adv-x="536" 
d="M424 0h-311v1004h311v-1004zM397 1120h-204l-299 248l378 62z" />
    <glyph glyph-name="iacute" unicode="&#xed;" horiz-adv-x="536" 
d="M641 1368l-301 -248h-197l123 310zM424 0h-311v1004h311v-1004z" />
    <glyph glyph-name="icircumflex" unicode="&#xee;" horiz-adv-x="536" 
d="M614 1120h-196l-152 119l-151 -119h-197l205 301h287zM424 0h-311v1004h311v-1004z" />
    <glyph glyph-name="idieresis" unicode="&#xef;" horiz-adv-x="536" 
d="M604 1122h-266v269h266v-269zM199 1122h-267v269h267v-269zM424 0h-311v1004h311v-1004z" />
    <glyph glyph-name="eth" unicode="&#xf0;" horiz-adv-x="1103" 
d="M506 1030h-177.998l106 150c-44 20 -100.667 39 -170 57l37 240c110 -24 205 -54.333 285 -91l63 93l176 -37l-100 -135c210 -145.333 315 -368 315 -668c0 -233.333 -60 -410 -180 -530c-86 -88 -198 -132 -336 -132c-134.667 0 -245.834 43.167 -333.501 129.5
s-131.5 204.5 -131.5 354.5c0 143.333 36.167 259.333 108.5 348s163.166 133 272.499 133c108.667 0 207 -39.667 295 -119c-18.667 118 -76 212.333 -172 283zM543.002 219c63.333 0 112.5 33.333 147.5 100s52.5 163 52.5 289v6c-71.333 57.333 -143 86 -215 86
c-51.333 0 -92.833 -21.667 -124.5 -65s-47.5 -104 -47.5 -182c0 -72 17 -129 51 -171s79.333 -63 136 -63z" />
    <glyph glyph-name="ntilde" unicode="&#xf1;" horiz-adv-x="1099" 
d="M999 0h-311v629c0 80.667 -34 121 -102 121c-52.667 0 -109.334 -30.333 -170.001 -91v-659h-310v1004h273l22 -138c50.667 50.667 100.834 89.667 150.501 117s104.167 41 163.5 41c92 0 162.333 -27 211 -81s73 -130.667 73 -230v-713zM907 1405
c-13.333 -102 -35.8301 -174.999 -67.4971 -218.999s-73.834 -66 -126.501 -66c-37.333 0 -86 13.667 -146 41c-42.667 18 -71.834 29.667 -87.501 35s-30.834 8 -45.501 8c-16 0 -28.833 -6.33301 -38.5 -19s-18.5 -36.334 -26.5 -71.001l-148 31c14 103.333 37 177 69 221
s74.667 66 128 66c24.667 0 47 -3 67 -9s46 -16.667 78 -32c64 -28.667 108.333 -43 133 -43c16 0 29 6.66699 39 20s19 37.333 27 72z" />
    <glyph glyph-name="ograve" unicode="&#xf2;" horiz-adv-x="1079" 
d="M1022 502c0 -158.667 -45.332 -285.332 -135.999 -379.999s-207 -142 -349 -142c-140.667 0 -255.834 47.167 -345.501 141.5s-134.5 220.5 -134.5 378.5c0 158.667 45.167 285.667 135.5 381s205.833 143 346.5 143c142 0 258 -47.333 348 -142
s135 -221.334 135 -380.001zM723.001 500.002c0 82.667 -15.998 148.667 -47.998 198s-77.333 74 -136 74s-103.834 -24.167 -135.501 -72.5s-47.5 -114.166 -47.5 -197.499c0 -82.667 16.167 -148.834 48.5 -198.501s77.166 -74.5 134.499 -74.5
c58.667 0 104 24.5 136 73.5s48 114.833 48 197.5zM668.003 1120h-205l-299 248l379 62z" />
    <glyph glyph-name="oacute" unicode="&#xf3;" horiz-adv-x="1079" 
d="M909 1368l-301 -248h-196l123 310zM1022 502c0 -158.667 -45.332 -285.332 -135.999 -379.999s-207 -142 -349 -142c-140.667 0 -255.834 47.167 -345.501 141.5s-134.5 220.5 -134.5 378.5c0 158.667 45.167 285.667 135.5 381s205.833 143 346.5 143
c142 0 258 -47.333 348 -142s135 -221.334 135 -380.001zM723.001 500.002c0 82.667 -15.998 148.667 -47.998 198s-77.333 74 -136 74s-103.834 -24.167 -135.501 -72.5s-47.5 -114.166 -47.5 -197.499c0 -82.667 16.167 -148.834 48.5 -198.501
s77.166 -74.5 134.499 -74.5c58.667 0 104 24.5 136 73.5s48 114.833 48 197.5z" />
    <glyph glyph-name="ocircumflex" unicode="&#xf4;" horiz-adv-x="1079" 
d="M885 1120h-197l-151 119l-152 -119h-197l205 301h287zM1022 502c0 -158.667 -45.332 -285.332 -135.999 -379.999s-207 -142 -349 -142c-140.667 0 -255.834 47.167 -345.501 141.5s-134.5 220.5 -134.5 378.5c0 158.667 45.167 285.667 135.5 381s205.833 143 346.5 143
c142 0 258 -47.333 348 -142s135 -221.334 135 -380.001zM723.001 500.002c0 82.667 -15.998 148.667 -47.998 198s-77.333 74 -136 74s-103.834 -24.167 -135.501 -72.5s-47.5 -114.166 -47.5 -197.499c0 -82.667 16.167 -148.834 48.5 -198.501
s77.166 -74.5 134.499 -74.5c58.667 0 104 24.5 136 73.5s48 114.833 48 197.5z" />
    <glyph glyph-name="otilde" unicode="&#xf5;" horiz-adv-x="1079" 
d="M1022 502c0 -158.667 -45.332 -285.332 -135.999 -379.999s-207 -142 -349 -142c-140.667 0 -255.834 47.167 -345.501 141.5s-134.5 220.5 -134.5 378.5c0 158.667 45.167 285.667 135.5 381s205.833 143 346.5 143c142 0 258 -47.333 348 -142
s135 -221.334 135 -380.001zM723.001 500.002c0 82.667 -15.998 148.667 -47.998 198s-77.333 74 -136 74s-103.834 -24.167 -135.501 -72.5s-47.5 -114.166 -47.5 -197.499c0 -82.667 16.167 -148.834 48.5 -198.501s77.166 -74.5 134.499 -74.5
c58.667 0 104 24.5 136 73.5s48 114.833 48 197.5zM887.003 1405c-13.333 -102 -35.8311 -174.999 -67.498 -218.999s-74.167 -66 -127.5 -66c-24 0 -46 3.16699 -66 9.5s-46.333 16.833 -79 31.5c-42.667 18 -71.834 29.667 -87.501 35s-30.834 8 -45.501 8
c-16 0 -29 -6.33301 -39 -19s-19 -36.334 -27 -71.001l-147 31c14 103.333 37 177 69 221s74.333 66 127 66c39.333 0 88 -13.667 146 -41c64 -28.667 108.333 -43 133 -43c16 0 28.833 6.66699 38.5 20s18.5 37.333 26.5 72z" />
    <glyph glyph-name="odieresis" unicode="&#xf6;" horiz-adv-x="1079" 
d="M874 1122h-266v269h266v-269zM469 1122h-266v269h266v-269zM1022 502c0 -158.667 -45.332 -285.332 -135.999 -379.999s-207 -142 -349 -142c-140.667 0 -255.834 47.167 -345.501 141.5s-134.5 220.5 -134.5 378.5c0 158.667 45.167 285.667 135.5 381
s205.833 143 346.5 143c142 0 258 -47.333 348 -142s135 -221.334 135 -380.001zM723.001 500.002c0 82.667 -15.998 148.667 -47.998 198s-77.333 74 -136 74s-103.834 -24.167 -135.501 -72.5s-47.5 -114.166 -47.5 -197.499c0 -82.667 16.167 -148.834 48.5 -198.501
s77.166 -74.5 134.499 -74.5c58.667 0 104 24.5 136 73.5s48 114.833 48 197.5z" />
    <glyph glyph-name="divide" unicode="&#xf7;" horiz-adv-x="1171" 
d="M723 967h-274v266h274v-266zM1061 573h-950v238h950v-238zM723 152h-274v266h274v-266z" />
    <glyph glyph-name="oslash" unicode="&#xf8;" horiz-adv-x="1079" 
d="M1022 502c0 -104.667 -21.166 -197 -63.499 -277s-99.5 -140.833 -171.5 -182.5s-152.667 -62.5 -242 -62.5c-108 0 -201.667 27 -281 81l-65 -81l-166 36l125 150c-66 90 -99 201.333 -99 334c0 158 45.167 284.833 135.5 380.5s204.5 143.5 342.5 143.5
c105.333 0 198.666 -28.667 279.999 -86l68 86l166 -37l-127 -153c65.333 -92 98 -202.667 98 -332zM733.001 500c0 44.667 -5.33203 87.667 -15.999 129l-293 -365c29.333 -31.333 67.666 -47 114.999 -47c61.333 0 109 25.667 143 77s51 120 51 206zM539.002 786
c-60 0 -106.499 -25.833 -139.499 -77.5s-49.5 -120.5 -49.5 -206.5c0 -48 5 -90.333 15 -127l290 362c-32.667 32.667 -71.334 49 -116.001 49z" />
    <glyph glyph-name="ugrave" unicode="&#xf9;" horiz-adv-x="1099" 
d="M993 0h-272l-23 137c-51.333 -50.667 -101.833 -89.5 -151.5 -116.5s-103.5 -40.5 -161.5 -40.5c-92 0 -162.5 27 -211.5 81s-73.5 130 -73.5 228v715h310v-629c0 -82 34.667 -123 104 -123c53.333 0 110 30 170 90v662h309v-1004zM678 1120h-205l-299 248l379 62z" />
    <glyph glyph-name="uacute" unicode="&#xfa;" horiz-adv-x="1099" 
d="M920 1368l-302 -248h-196l123 310zM993 0h-272l-23 137c-51.333 -50.667 -101.833 -89.5 -151.5 -116.5s-103.5 -40.5 -161.5 -40.5c-92 0 -162.5 27 -211.5 81s-73.5 130 -73.5 228v715h310v-629c0 -82 34.667 -123 104 -123c53.333 0 110 30 170 90v662h309v-1004z" />
    <glyph glyph-name="ucircumflex" unicode="&#xfb;" horiz-adv-x="1099" 
d="M893 1120h-197l-151 119l-152 -119h-196l204 301h287zM993 0h-272l-23 137c-51.333 -50.667 -101.833 -89.5 -151.5 -116.5s-103.5 -40.5 -161.5 -40.5c-92 0 -162.5 27 -211.5 81s-73.5 130 -73.5 228v715h310v-629c0 -82 34.667 -123 104 -123c53.333 0 110 30 170 90
v662h309v-1004z" />
    <glyph glyph-name="udieresis" unicode="&#xfc;" horiz-adv-x="1099" 
d="M883 1122h-267v269h267v-269zM477 1122h-266v269h266v-269zM993 0h-272l-23 137c-51.333 -50.667 -101.833 -89.5 -151.5 -116.5s-103.5 -40.5 -161.5 -40.5c-92 0 -162.5 27 -211.5 81s-73.5 130 -73.5 228v715h310v-629c0 -82 34.667 -123 104 -123
c53.333 0 110 30 170 90v662h309v-1004z" />
    <glyph glyph-name="yacute" unicode="&#xfd;" horiz-adv-x="1044" 
d="M1028 1004l-358.001 -1029c-44 -128 -98.667 -218 -164 -270s-152.666 -78 -261.999 -78c-38.667 0 -79 4.33301 -121 13l-41 249c37.333 -10.667 78.333 -16 123 -16c82 0 138.667 34.667 170 104l8 21l-365 981l332 39l193 -631l182 617h303zM917.999 1368l-302 -248
h-196l123 310z" />
    <glyph glyph-name="thorn" unicode="&#xfe;" horiz-adv-x="1114" 
d="M1051 528c0 -92 -11.5029 -173.332 -34.5029 -243.999s-54.667 -126.834 -95 -168.501s-85.166 -73 -134.499 -94s-102.666 -31.5 -159.999 -31.5c-66.667 0 -137 11.667 -211 35v-359l-310 -47v1811l310 49v-592c82 91.333 172.667 137 272 137
c108.667 0 196.334 -41.833 263.001 -125.5s100 -207.167 100 -370.5zM738.997 508.001c0 80.667 -13.667 140.833 -41 180.5s-64 59.5 -110 59.5c-32 0 -61.333 -8.66699 -88 -26s-54.667 -43 -84 -77v-381c44.667 -20.667 91 -31 139 -31c56 0 100.667 22.5 134 67.5
s50 114.167 50 207.5z" />
    <glyph glyph-name="ydieresis" unicode="&#xff;" horiz-adv-x="1044" 
d="M1028 1004l-358.001 -1029c-44 -128 -98.667 -218 -164 -270s-152.666 -78 -261.999 -78c-38.667 0 -79 4.33301 -121 13l-41 249c37.333 -10.667 78.333 -16 123 -16c82 0 138.667 34.667 170 104l8 21l-365 981l332 39l193 -631l182 617h303zM880.999 1122h-267v269
h267v-269zM474.999 1122h-266v269h266v-269z" />
    <glyph glyph-name="Amacron" unicode="&#x100;" horiz-adv-x="1437" 
d="M27 0l508 1419h385l491 -1376l-354 -57l-105 307h-487l-94 -293h-344zM1034 1559h-622v215h622v-215zM709 1059l-160 -492h317z" />
    <glyph glyph-name="amacron" unicode="&#x101;" horiz-adv-x="1038" 
d="M940 0h-273.999l-21 125c-92 -96.667 -197 -145 -315 -145c-82 0 -148 24.167 -198 72.5s-75 116.833 -75 205.5c0 116.667 46 204.834 138 264.501s237.333 98.5 436 116.5v18c0 43.333 -12.5 75.333 -37.5 96s-63.167 31 -114.5 31
c-102.667 0 -210.334 -25 -323.001 -75l-37 233c127.333 52 263 78 407 78c142 0 246.5 -26.833 313.5 -80.5s100.5 -142.834 100.5 -267.501v-672zM631.001 276v213c-99.333 -15.333 -169 -38.833 -209 -70.5s-60 -71.5 -60 -119.5c0 -30.667 9 -54.667 27 -72
s42 -26 72 -26c57.333 0 114 25 170 75zM836.001 1141h-623v215h623v-215z" />
    <glyph glyph-name="Abreve" unicode="&#x102;" horiz-adv-x="1437" 
d="M27 0l508 1419h385l491 -1376l-354 -57l-105 307h-487l-94 -293h-344zM1049 1815c-14 -88.667 -48.334 -157.334 -103.001 -206.001s-129 -73 -223 -73c-93.333 0 -167.166 24.333 -221.499 73s-88.5 117.334 -102.5 206.001l170 26
c15.333 -41.333 34.833 -70.833 58.5 -88.5s55.5 -26.5 95.5 -26.5s71.833 8.83301 95.5 26.5s43.167 47.167 58.5 88.5zM708.999 1059l-160 -492h317z" />
    <glyph glyph-name="abreve" unicode="&#x103;" horiz-adv-x="1038" 
d="M940 0h-273.999l-21 125c-92 -96.667 -197 -145 -315 -145c-82 0 -148 24.167 -198 72.5s-75 116.833 -75 205.5c0 116.667 46 204.834 138 264.501s237.333 98.5 436 116.5v18c0 43.333 -12.5 75.333 -37.5 96s-63.167 31 -114.5 31
c-102.667 0 -210.334 -25 -323.001 -75l-37 233c127.333 52 263 78 407 78c142 0 246.5 -26.833 313.5 -80.5s100.5 -142.834 100.5 -267.501v-672zM631.001 276v213c-99.333 -15.333 -169 -38.833 -209 -70.5s-60 -71.5 -60 -119.5c0 -30.667 9 -54.667 27 -72
s42 -26 72 -26c57.333 0 114 25 170 75zM850.001 1397c-14 -88.667 -48.332 -157.334 -102.999 -206.001s-129 -73 -223 -73c-93.333 0 -167 24.333 -221 73s-88 117.334 -102 206.001l170 26c15.333 -41.333 34.666 -70.666 57.999 -87.999s55 -26 95 -26
s71.833 8.66699 95.5 26s43.167 46.666 58.5 87.999z" />
    <glyph glyph-name="Aogonek" unicode="&#x104;" horiz-adv-x="1437" 
d="M27 0l508.001 1419h385l491 -1376l-63 -10l-52 -82c-32.667 -51.333 -49 -91.666 -49 -120.999c0 -40.667 24 -61 72 -61c21.333 0 50 4.66699 86 14v-152c-70.667 -31.333 -141 -47 -211 -47c-58.667 0 -104.334 14.167 -137.001 42.5s-49 69.5 -49 123.5
c0 62.667 37.333 144.667 112 246l-63 -10l-105 307h-487l-94 -293h-344zM709.001 1059l-160 -492h317z" />
    <glyph glyph-name="aogonek" unicode="&#x105;" horiz-adv-x="1038" 
d="M940 0l-54.999 -0.000976562l-31 -49c-32.667 -51.333 -49 -91.666 -49 -120.999c0 -40.667 24 -61 72 -61c21.333 0 50 4.66699 86 14v-152c-70.667 -31.333 -141 -47 -211 -47c-58.667 0 -104.5 14.167 -137.5 42.5s-49.5 69.5 -49.5 123.5c0 62.667 39 146 117 250
h-16l-21 125c-92 -96.667 -197 -145 -315 -145c-82 0 -148 24.167 -198 72.5s-75 116.833 -75 205.5c0 116.667 46 204.834 138 264.501s237.333 98.5 436 116.5v18c0 43.333 -12.5 75.333 -37.5 96s-63.167 31 -114.5 31c-102.667 0 -210.334 -25 -323.001 -75l-37 233
c127.333 52 263 78 407 78c142 0 246.5 -26.833 313.5 -80.5s100.5 -142.834 100.5 -267.501v-672zM631.001 275.999v213c-99.333 -15.333 -169 -38.833 -209 -70.5s-60 -71.5 -60 -119.5c0 -30.667 9 -54.667 27 -72s42 -26 72 -26c57.333 0 114 25 170 75z" />
    <glyph glyph-name="Cacute" unicode="&#x106;" horiz-adv-x="1230" 
d="M1102 1786l-301 -248h-197l123 309zM1165 84c-124.667 -72.667 -260.999 -108.999 -408.999 -108.999c-210 0 -375.5 65.667 -496.5 197s-181.5 309 -181.5 533c0 220.667 62.833 398 188.5 532s294.167 201 505.5 201c142.667 0 267 -30.667 373 -92l-49 -316
c-97.333 76.667 -199 115 -305 115c-110.667 0 -198.834 -39.333 -264.501 -118s-98.5 -185.334 -98.5 -320.001c0 -135.333 33.833 -242.333 101.5 -321s157.5 -118 269.5 -118c99.333 0 206.333 36.333 321 109z" />
    <glyph glyph-name="cacute" unicode="&#x107;" horiz-adv-x="925" 
d="M915 1368l-301 -248h-196l123 310zM862 70c-95.333 -58.667 -201.665 -88 -318.998 -88c-146.667 0 -264.334 45.333 -353.001 136s-133 216 -133 376c0 85.333 13.167 162 39.5 230s62.333 123.167 108 165.5s98.5 74.666 158.5 96.999s124.667 33.5 194 33.5
c108 0 207 -25.333 297 -76l-41 -264c-78.667 49.333 -153.667 74 -225 74c-66 0 -118.667 -21.667 -158 -65s-59 -105.666 -59 -186.999c0 -82.667 21 -145.667 63 -189s96 -65 162 -65c75.333 0 151.666 25.333 228.999 76z" />
    <glyph glyph-name="Cdotaccent" unicode="&#x10a;" horiz-adv-x="1230" 
d="M1165 84c-124.667 -72.667 -260.999 -108.999 -408.999 -108.999c-210 0 -375.5 65.667 -496.5 197s-181.5 309 -181.5 533c0 220.667 62.833 398 188.5 532s294.167 201 505.5 201c142.667 0 267 -30.667 373 -92l-49 -316c-97.333 76.667 -199 115 -305 115
c-110.667 0 -198.834 -39.333 -264.501 -118s-98.5 -185.334 -98.5 -320.001c0 -135.333 33.833 -242.333 101.5 -321s157.5 -118 269.5 -118c99.333 0 206.333 36.333 321 109zM870.001 1540h-276v268h276v-268z" />
    <glyph glyph-name="cdotaccent" unicode="&#x10b;" horiz-adv-x="925" 
d="M862 70c-95.333 -58.667 -201.665 -88 -318.998 -88c-146.667 0 -264.334 45.333 -353.001 136s-133 216 -133 376c0 85.333 13.167 162 39.5 230s62.333 123.167 108 165.5s98.5 74.666 158.5 96.999s124.667 33.5 194 33.5c108 0 207 -25.333 297 -76l-41 -264
c-78.667 49.333 -153.667 74 -225 74c-66 0 -118.667 -21.667 -158 -65s-59 -105.666 -59 -186.999c0 -82.667 21 -145.667 63 -189s96 -65 162 -65c75.333 0 151.666 25.333 228.999 76zM682.001 1122h-276v269h276v-269z" />
    <glyph glyph-name="Ccaron" unicode="&#x10c;" horiz-adv-x="1230" 
d="M383 1839h197l151 -119l152 119h196l-205 -301h-286zM1165 84c-124.667 -72.667 -260.999 -108.999 -408.999 -108.999c-210 0 -375.5 65.667 -496.5 197s-181.5 309 -181.5 533c0 220.667 62.833 398 188.5 532s294.167 201 505.5 201c142.667 0 267 -30.667 373 -92
l-49 -316c-97.333 76.667 -199 115 -305 115c-110.667 0 -198.834 -39.333 -264.501 -118s-98.5 -185.334 -98.5 -320.001c0 -135.333 33.833 -242.333 101.5 -321s157.5 -118 269.5 -118c99.333 0 206.333 36.333 321 109z" />
    <glyph glyph-name="ccaron" unicode="&#x10d;" horiz-adv-x="925" 
d="M195 1421h196l152 -118l151 118h197l-205 -301h-287zM862 70c-95.333 -58.667 -201.665 -88 -318.998 -88c-146.667 0 -264.334 45.333 -353.001 136s-133 216 -133 376c0 85.333 13.167 162 39.5 230s62.333 123.167 108 165.5s98.5 74.666 158.5 96.999
s124.667 33.5 194 33.5c108 0 207 -25.333 297 -76l-41 -264c-78.667 49.333 -153.667 74 -225 74c-66 0 -118.667 -21.667 -158 -65s-59 -105.666 -59 -186.999c0 -82.667 21 -145.667 63 -189s96 -65 162 -65c75.333 0 151.666 25.333 228.999 76z" />
    <glyph glyph-name="Dcaron" unicode="&#x10e;" horiz-adv-x="1443" 
d="M336 1819h196l152 -119l152 119h196l-205 -301h-286zM1364 709c0 -105.333 -16.333 -201.332 -49 -287.999s-79.667 -161.334 -141 -224.001s-138.833 -111.167 -232.5 -145.5s-199.167 -51.5 -316.5 -51.5h-496v1413h487c120.667 0 228.5 -17 323.5 -51
s173.5 -82 235.5 -144s109 -136 141 -222s48 -181.667 48 -287zM1012 707.001c0 144 -36.5 252.334 -109.5 325.001s-171.833 109 -296.5 109h-127v-869h127c129.333 0 229.333 35.667 300 107s106 180.666 106 327.999z" />
    <glyph glyph-name="dcaron" unicode="&#x10f;" horiz-adv-x="1114" 
d="M1343 1481c16.667 -51.333 25 -100.666 25 -147.999c0 -99.333 -46.333 -193.333 -139 -282l-146 30c36 72 54 141 54 207c0 45.333 -13 98.666 -39 159.999zM1008 0l-274.998 -0.000976562l-20 131c-90 -100.667 -186.333 -151 -289 -151
c-108 0 -195.5 41.667 -262.5 125s-100.5 206 -100.5 368c0 92.667 11.5 174.334 34.5 245.001s54.667 127 95 169s85.166 73.333 134.499 94s102.666 31 159.999 31c75.333 0 146.333 -11.667 213 -35v453l310 49v-1479zM698.002 355.999l-0.000976562 383
c-43.333 19.333 -91.666 29 -144.999 29c-54 0 -97.5 -22.333 -130.5 -67s-49.5 -113 -49.5 -205c0 -82 13.833 -142.833 41.5 -182.5s64.834 -59.5 111.501 -59.5c53.333 0 110.666 34 171.999 102z" />
    <glyph glyph-name="Dcroat" unicode="&#x110;" horiz-adv-x="1501" 
d="M1425 709c0 -105.333 -16.333 -201.332 -49 -287.999s-79.667 -161.334 -141 -224.001s-138.833 -111.167 -232.5 -145.5s-199.167 -51.5 -316.5 -51.5h-498v580h-129l-47 292h176v541h488c120.667 0 228.667 -17 324 -51s173.833 -82 235.5 -144s108.667 -136 141 -222
s48.5 -181.667 48.5 -287zM1071 707.001c0 144 -36.167 252.334 -108.5 325.001s-171.166 109 -296.499 109h-136v-275h250v-282h-250v-312h136c129.333 0 229.166 35.667 299.499 107s105.5 180.666 105.5 327.999z" />
    <glyph glyph-name="dcroat" unicode="&#x111;" horiz-adv-x="1114" 
d="M1008 0l-274.998 -0.000976562l-20 131c-90 -100.667 -186.333 -151 -289 -151c-108 0 -195.5 41.667 -262.5 125s-100.5 206 -100.5 368c0 92.667 11.5 174.334 34.5 245.001s54.667 127 95 169s85.166 73.333 134.499 94s102.666 31 159.999 31
c75.333 0 146.333 -11.667 213 -35v147h-233l-31 191h264v115l310 49v-164h133v-191h-133v-1124zM698.002 355.999l-0.000976562 383c-43.333 19.333 -91.666 29 -144.999 29c-54 0 -97.5 -22.333 -130.5 -67s-49.5 -113 -49.5 -205c0 -82 13.833 -142.833 41.5 -182.5
s64.834 -59.5 111.501 -59.5c53.333 0 110.666 34 171.999 102z" />
    <glyph glyph-name="Emacron" unicode="&#x112;" 
d="M1028 0h-899v1413h881v-283h-537v-266h410l45 -280h-455v-299h555v-285zM887 1538h-623v215h623v-215z" />
    <glyph glyph-name="emacron" unicode="&#x113;" horiz-adv-x="1034" 
d="M973 92c-116 -74.667 -249.334 -111.999 -400.001 -111.999c-157.333 0 -282.666 43.5 -375.999 130.5s-140 216.167 -140 387.5c0 161.333 44.167 289.333 132.5 384s201.833 142 340.5 142c75.333 0 141.833 -13.333 199.5 -40s104.167 -63.834 139.5 -111.501
s61.833 -102.5 79.5 -164.5s26.5 -130 26.5 -204c0 -32 -1.33301 -58.667 -4 -80h-606c14.667 -146 97 -219 247 -219c101.333 0 211.333 35.333 330 106zM845.999 1141h-623v215h623v-215zM521.999 823.001c-45.333 0 -82.167 -19.333 -110.5 -58
s-44.833 -95.667 -49.5 -171h318c-10 152.667 -62.667 229 -158 229z" />
    <glyph glyph-name="Ebreve" unicode="&#x114;" 
d="M1028 0h-899v1413h881v-283h-537v-266h410l45 -280h-455v-299h555v-285zM901 1794c-14 -88 -48.332 -156.333 -102.999 -205s-129 -73 -223 -73c-93.333 0 -167 24.167 -221 72.5s-88 116.833 -102 205.5l170 27c15.333 -41.333 34.666 -70.833 57.999 -88.5
s55 -26.5 95 -26.5s71.833 8.83301 95.5 26.5s43.167 47.167 58.5 88.5z" />
    <glyph glyph-name="ebreve" unicode="&#x115;" horiz-adv-x="1034" 
d="M973 92c-116 -74.667 -249.334 -111.999 -400.001 -111.999c-157.333 0 -282.666 43.5 -375.999 130.5s-140 216.167 -140 387.5c0 161.333 44.167 289.333 132.5 384s201.833 142 340.5 142c75.333 0 141.833 -13.333 199.5 -40s104.167 -63.834 139.5 -111.501
s61.833 -102.5 79.5 -164.5s26.5 -130 26.5 -204c0 -32 -1.33301 -58.667 -4 -80h-606c14.667 -146 97 -219 247 -219c101.333 0 211.333 35.333 330 106zM859.999 1397c-14 -88.667 -48.167 -157.334 -102.5 -206.001s-128.5 -73 -222.5 -73
c-93.333 0 -167.166 24.333 -221.499 73s-88.5 117.334 -102.5 206.001l170 26c15.333 -41.333 34.833 -70.666 58.5 -87.999s55.5 -26 95.5 -26s71.667 8.66699 95 26s42.666 46.666 57.999 87.999zM521.999 823.001c-45.333 0 -82.167 -19.333 -110.5 -58
s-44.833 -95.667 -49.5 -171h318c-10 152.667 -62.667 229 -158 229z" />
    <glyph glyph-name="Edotaccent" unicode="&#x116;" 
d="M1028 0h-899v1413h881v-283h-537v-266h410l45 -280h-455v-299h555v-285zM715 1520h-277v268h277v-268z" />
    <glyph glyph-name="edotaccent" unicode="&#x117;" horiz-adv-x="1034" 
d="M973 92c-116 -74.667 -249.334 -111.999 -400.001 -111.999c-157.333 0 -282.666 43.5 -375.999 130.5s-140 216.167 -140 387.5c0 161.333 44.167 289.333 132.5 384s201.833 142 340.5 142c75.333 0 141.833 -13.333 199.5 -40s104.167 -63.834 139.5 -111.501
s61.833 -102.5 79.5 -164.5s26.5 -130 26.5 -204c0 -32 -1.33301 -58.667 -4 -80h-606c14.667 -146 97 -219 247 -219c101.333 0 211.333 35.333 330 106zM673.999 1122h-277v269h277v-269zM521.999 823.001c-45.333 0 -82.167 -19.333 -110.5 -58
s-44.833 -95.667 -49.5 -171h318c-10 152.667 -62.667 229 -158 229z" />
    <glyph glyph-name="Eogonek" unicode="&#x118;" 
d="M1028 0l-71.999 -0.000976562l-30 -49c-32.667 -51.333 -49 -91.666 -49 -120.999c0 -40.667 23.667 -61 71 -61c21.333 0 50 4.66699 86 14v-152c-70.667 -31.333 -141 -47 -211 -47c-58.667 0 -104.334 14.167 -137.001 42.5s-49 69.5 -49 123.5
c0 62.667 39 146 117 250h-625v1413h881v-283h-537v-266h410l45 -280h-455v-299h555v-285z" />
    <glyph glyph-name="eogonek" unicode="&#x119;" horiz-adv-x="1034" 
d="M530 1024c75.333 0 141.83 -13.3301 199.497 -39.9971s104.167 -63.834 139.5 -111.501s61.833 -102.5 79.5 -164.5s26.5 -130 26.5 -204c0 -34.667 -1.33301 -61.334 -4 -80.001h-606c16.667 -146 99 -219 247 -219c101.333 0 211.333 35.333 330 106l29 -196l-111 -140
c-46 -60 -69 -108.333 -69 -145c0 -40.667 24.333 -61 73 -61c21.333 0 50 4.66699 86 14v-152c-73.333 -31.333 -143.666 -47 -210.999 -47c-59.333 0 -105.166 14.167 -137.499 42.5s-48.5 69.5 -48.5 123.5c0 61.333 35.333 140.666 106 237.999
c-24 -5.33301 -52.667 -8 -86 -8c-157.333 0 -282.666 43.5 -375.999 130.5s-140 216.167 -140 387.5c0 161.333 44.167 289.333 132.5 384s201.833 142 340.5 142zM521.997 823.003c-44 0 -80 -19.333 -108 -58s-44.333 -95.667 -49 -171h315
c-10 152.667 -62.667 229 -158 229z" />
    <glyph glyph-name="Ecaron" unicode="&#x11a;" 
d="M227 1819h197l151 -119l152 119h197l-205 -301h-287zM1028 0h-899v1413h881v-283h-537v-266h410l45 -280h-455v-299h555v-285z" />
    <glyph glyph-name="ecaron" unicode="&#x11b;" horiz-adv-x="1034" 
d="M973 92c-116 -74.667 -249.334 -111.999 -400.001 -111.999c-157.333 0 -282.666 43.5 -375.999 130.5s-140 216.167 -140 387.5c0 161.333 44.167 289.333 132.5 384s201.833 142 340.5 142c75.333 0 141.833 -13.333 199.5 -40s104.167 -63.834 139.5 -111.501
s61.833 -102.5 79.5 -164.5s26.5 -130 26.5 -204c0 -32 -1.33301 -58.667 -4 -80h-606c14.667 -146 97 -219 247 -219c101.333 0 211.333 35.333 330 106zM185.999 1421h197l152 -118l151 118h197l-205 -301h-287zM521.999 823.001c-45.333 0 -82.167 -19.333 -110.5 -58
s-44.833 -95.667 -49.5 -171h318c-10 152.667 -62.667 229 -158 229z" />
    <glyph glyph-name="Gbreve" unicode="&#x11e;" horiz-adv-x="1396" 
d="M1290 123c-153.333 -100 -325.331 -150.002 -515.998 -150.002c-146.667 0 -272.834 30.833 -378.501 92.5s-185 147.167 -238 256.5s-79.5 237 -79.5 383c0 145.333 28.167 273.333 84.5 384s137.833 196.834 244.5 258.501s231.667 92.5 375 92.5
c162.667 0 306.667 -35 432 -105l-47 -305c-126 80.667 -251.333 121 -376 121c-118.667 0 -208.834 -40 -270.501 -120s-92.5 -188 -92.5 -324c0 -137.333 31.5 -247.166 94.5 -329.499s153.833 -123.5 272.5 -123.5c68 0 131.333 15 190 45v252h-246l-41 260h592v-688z
M1073 1815c-14 -88.667 -48.167 -157.334 -102.5 -206.001s-128.5 -73 -222.5 -73c-93.333 0 -167.166 24.333 -221.499 73s-88.5 117.334 -102.5 206.001l170 26c15.333 -41.333 34.833 -70.833 58.5 -88.5s55.5 -26.5 95.5 -26.5s71.667 8.83301 95 26.5
s42.666 47.167 57.999 88.5z" />
    <glyph glyph-name="gbreve" unicode="&#x11f;" horiz-adv-x="1093" 
d="M1053 -12c0 -108 -52.668 -195.164 -158.001 -261.497s-239.666 -99.5 -402.999 -99.5c-144.667 0 -261.5 21.167 -350.5 63.5s-133.5 101.166 -133.5 176.499c0 43.333 13.333 82.333 40 117s68 67.334 124 98.001c-36.667 30.667 -55 67.667 -55 111
c0 64 49.667 124 149 180c-62 27.333 -109.5 66.166 -142.5 116.499s-49.5 108.5 -49.5 174.5c0 108 39.5 194.333 118.5 259s180.167 97 303.5 97c121.333 0 224.333 -32 309 -96l235 90l39 -230l-176 -4c12.667 -36.667 19 -72 19 -106c0 -70 -19 -131.5 -57 -184.5
s-88.167 -92.833 -150.5 -119.5s-131.833 -40 -208.5 -40c-42 0 -72.667 1.33301 -92 4c-18 -16 -27 -31 -27 -45c0 -14.667 9.66699 -25.167 29 -31.5s63 -13.5 131 -21.5l184 -13c106 -10.667 186.167 -34.334 240.5 -71.001s81.5 -91.334 81.5 -164.001zM841.999 1397
c-14 -88.667 -48.333 -157.334 -103 -206.001s-129 -73 -223 -73c-93.333 0 -167 24.333 -221 73s-88 117.334 -102 206.001l169 26c15.333 -41.333 34.833 -70.666 58.5 -87.999s55.5 -26 95.5 -26s71.833 8.66699 95.5 26s43.167 46.666 58.5 87.999zM474.999 -1.99707
c-63.333 5.33301 -116 11.333 -158 18c-38 -36 -57 -72.667 -57 -110c0 -36.667 21 -65.667 63 -87s106.333 -32 193 -32c78.667 0 140.667 11.333 186 34s68 51 68 85c0 23.333 -10.667 41 -32 53s-59 21 -113 27zM644.999 674.003c0 48 -13.168 87.333 -39.501 118
s-62.166 46 -107.499 46c-44 0 -78.667 -16 -104 -48s-38 -72.667 -38 -122c0 -47.333 12.667 -85.833 38 -115.5s60 -44.5 104 -44.5c46 0 82 15.333 108 46s39 70.667 39 120z" />
    <glyph glyph-name="Gdotaccent" unicode="&#x120;" horiz-adv-x="1396" 
d="M1290 123c-153.333 -100 -325.331 -150.002 -515.998 -150.002c-146.667 0 -272.834 30.833 -378.501 92.5s-185 147.167 -238 256.5s-79.5 237 -79.5 383c0 145.333 28.167 273.333 84.5 384s137.833 196.834 244.5 258.501s231.667 92.5 375 92.5
c162.667 0 306.667 -35 432 -105l-47 -305c-126 80.667 -251.333 121 -376 121c-118.667 0 -208.834 -40 -270.501 -120s-92.5 -188 -92.5 -324c0 -137.333 31.5 -247.166 94.5 -329.499s153.833 -123.5 272.5 -123.5c68 0 131.333 15 190 45v252h-246l-41 260h592v-688z
M887.002 1540h-277v268h277v-268z" />
    <glyph glyph-name="gdotaccent" unicode="&#x121;" horiz-adv-x="1093" 
d="M1053 -12c0 -108 -52.668 -195.164 -158.001 -261.497s-239.666 -99.5 -402.999 -99.5c-144.667 0 -261.5 21.167 -350.5 63.5s-133.5 101.166 -133.5 176.499c0 43.333 13.333 82.333 40 117s68 67.334 124 98.001c-36.667 30.667 -55 67.667 -55 111
c0 64 49.667 124 149 180c-62 27.333 -109.5 66.166 -142.5 116.499s-49.5 108.5 -49.5 174.5c0 108 39.5 194.333 118.5 259s180.167 97 303.5 97c121.333 0 224.333 -32 309 -96l235 90l39 -230l-176 -4c12.667 -36.667 19 -72 19 -106c0 -70 -19 -131.5 -57 -184.5
s-88.167 -92.833 -150.5 -119.5s-131.833 -40 -208.5 -40c-42 0 -72.667 1.33301 -92 4c-18 -16 -27 -31 -27 -45c0 -14.667 9.66699 -25.167 29 -31.5s63 -13.5 131 -21.5l184 -13c106 -10.667 186.167 -34.334 240.5 -71.001s81.5 -91.334 81.5 -164.001z
M474.999 -1.99707c-63.333 5.33301 -116 11.333 -158 18c-38 -36 -57 -72.667 -57 -110c0 -36.667 21 -65.667 63 -87s106.333 -32 193 -32c78.667 0 140.667 11.333 186 34s68 51 68 85c0 23.333 -10.667 41 -32 53s-59 21 -113 27zM644.999 674.003
c0 48 -13.168 87.333 -39.501 118s-62.166 46 -107.499 46c-44 0 -78.667 -16 -104 -48s-38 -72.667 -38 -122c0 -47.333 12.667 -85.833 38 -115.5s60 -44.5 104 -44.5c46 0 82 15.333 108 46s39 70.667 39 120zM654.998 1122h-276v269h276v-269z" />
    <glyph glyph-name="uni0122" unicode="&#x122;" horiz-adv-x="1396" 
d="M580 -166l247 47c62 -56 93 -116 93 -180c0 -90.667 -61 -178.667 -183 -264l-190 39c37.333 43.333 64 81 80 113s24 63.333 24 94c0 50 -23.667 100.333 -71 151zM1290 123c-153.333 -100 -325.331 -150.002 -515.998 -150.002
c-146.667 0 -272.834 30.833 -378.501 92.5s-185 147.167 -238 256.5s-79.5 237 -79.5 383c0 145.333 28.167 273.333 84.5 384s137.833 196.834 244.5 258.501s231.667 92.5 375 92.5c162.667 0 306.667 -35 432 -105l-47 -305c-126 80.667 -251.333 121 -376 121
c-118.667 0 -208.834 -40 -270.501 -120s-92.5 -188 -92.5 -324c0 -137.333 31.5 -247.166 94.5 -329.499s153.833 -123.5 272.5 -123.5c68 0 131.333 15 190 45v252h-246l-41 260h592v-688z" />
    <glyph glyph-name="uni0123" unicode="&#x123;" horiz-adv-x="1093" 
d="M1053 -12c0 -108 -52.668 -195.164 -158.001 -261.497s-239.666 -99.5 -402.999 -99.5c-144.667 0 -261.5 21.167 -350.5 63.5s-133.5 101.166 -133.5 176.499c0 43.333 13.333 82.333 40 117s68 67.334 124 98.001c-36.667 30.667 -55 67.667 -55 111
c0 64 49.667 124 149 180c-62 27.333 -109.5 66.166 -142.5 116.499s-49.5 108.5 -49.5 174.5c0 108 39.5 194.333 118.5 259s180.167 97 303.5 97c121.333 0 224.333 -32 309 -96l235 90l39 -230l-176 -4c12.667 -36.667 19 -72 19 -106c0 -70 -19 -131.5 -57 -184.5
s-88.167 -92.833 -150.5 -119.5s-131.833 -40 -208.5 -40c-42 0 -72.667 1.33301 -92 4c-18 -16 -27 -31 -27 -45c0 -14.667 9.66699 -25.167 29 -31.5s63 -13.5 131 -21.5l184 -13c106 -10.667 186.167 -34.334 240.5 -71.001s81.5 -91.334 81.5 -164.001zM679.999 1151
l-248 -47c-61.333 55.333 -92 115.333 -92 180c0 91.333 60.667 179.333 182 264l191 -39c-38 -44 -65 -81.667 -81 -113s-24 -62.333 -24 -93c0 -50 24 -100.667 72 -152zM474.999 -1.99707c-63.333 5.33301 -116 11.333 -158 18c-38 -36 -57 -72.667 -57 -110
c0 -36.667 21 -65.667 63 -87s106.333 -32 193 -32c78.667 0 140.667 11.333 186 34s68 51 68 85c0 23.333 -10.667 41 -32 53s-59 21 -113 27zM644.999 674.003c0 48 -13.168 87.333 -39.501 118s-62.166 46 -107.499 46c-44 0 -78.667 -16 -104 -48s-38 -72.667 -38 -122
c0 -47.333 12.667 -85.833 38 -115.5s60 -44.5 104 -44.5c46 0 82 15.333 108 46s39 70.667 39 120z" />
    <glyph glyph-name="Hbar" unicode="&#x126;" horiz-adv-x="1568" 
d="M1380 0h-352v561h-487v-561h-353v1042h-145l-35 211h180v160h351v-160h493v160h348v-160h164v-211h-164v-1042zM539 858h493v193h-493v-193z" />
    <glyph glyph-name="hbar" unicode="&#x127;" horiz-adv-x="1099" 
d="M670 1124h-253.997v-245c47.333 46 94.666 81.667 141.999 107s99.666 38 156.999 38c92 0 162.333 -27 211 -81s73 -130.667 73 -230v-713h-311v629c0 80.667 -34 121 -102 121c-52.667 0 -109.334 -30.333 -170.001 -91v-659h-310v1124h-112l-33 191h145v115l310 49
v-164h254v-191z" />
    <glyph glyph-name="Imacron" unicode="&#x12a;" horiz-adv-x="624" 
d="M487 0h-350v1413h350v-1413zM625 1538h-623v215h623v-215z" />
    <glyph glyph-name="imacron" unicode="&#x12b;" horiz-adv-x="536" 
d="M424 0h-311v1004h311v-1004zM580 1141h-623v215h623v-215z" />
    <glyph glyph-name="Ibreve" unicode="&#x12c;" horiz-adv-x="624" 
d="M487 0h-350v1413h350v-1413zM639 1794c-14 -88 -48.332 -156.333 -102.999 -205s-129 -73 -223 -73c-93.333 0 -167 24.167 -221 72.5s-88 116.833 -102 205.5l170 27c15.333 -41.333 34.666 -70.833 57.999 -88.5s55 -26.5 95 -26.5s71.833 8.83301 95.5 26.5
s43.167 47.167 58.5 88.5z" />
    <glyph glyph-name="ibreve" unicode="&#x12d;" horiz-adv-x="536" 
d="M424 0h-311v1004h311v-1004zM594 1397c-14 -88.667 -48.332 -157.334 -102.999 -206.001s-129 -73 -223 -73c-93.333 0 -167 24.333 -221 73s-88 117.334 -102 206.001l170 26c15.333 -41.333 34.666 -70.666 57.999 -87.999s55 -26 95 -26s71.833 8.66699 95.5 26
s43.167 46.666 58.5 87.999z" />
    <glyph glyph-name="Iogonek" unicode="&#x12e;" horiz-adv-x="624" 
d="M487 0l-63 -0.000976562l-31 -49c-32.667 -51.333 -49 -91.666 -49 -120.999c0 -40.667 24 -61 72 -61c21.333 0 50 4.66699 86 14v-152c-70.667 -31.333 -141 -47 -211 -47c-58.667 0 -104.5 14.167 -137.5 42.5s-49.5 69.5 -49.5 123.5c0 62.667 39 146 117 250h-84
v1413h350v-1413z" />
    <glyph glyph-name="iogonek" unicode="&#x12f;" horiz-adv-x="536" 
d="M424 0l-47 -0.000976562l-31 -49c-32.667 -51.333 -49 -91.666 -49 -120.999c0 -40.667 24 -61 72 -61c21.333 0 50 4.66699 86 14v-152c-70.667 -31.333 -141 -47 -211 -47c-58.667 0 -104.5 14.167 -137.5 42.5s-49.5 69.5 -49.5 123.5c0 62.667 39 146 117 250h-61
v1004h311v-1004zM444 1300c0 -49.333 -16.667 -89.166 -50 -119.499s-75.333 -45.5 -126 -45.5c-50 0 -91.833 15.167 -125.5 45.5s-50.5 70.166 -50.5 119.499c0 50 16.833 90.833 50.5 122.5s75.5 47.5 125.5 47.5c50.667 0 92.667 -15.667 126 -47s50 -72.333 50 -123z
" />
    <glyph glyph-name="Idotaccent" unicode="&#x130;" horiz-adv-x="624" 
d="M487 0h-350v1413h350v-1413zM453 1520h-277v268h277v-268z" />
    <glyph glyph-name="dotlessi" unicode="&#x131;" horiz-adv-x="536" 
d="M424 0h-311v1004h311v-1004z" />
    <glyph glyph-name="uni0136" unicode="&#x136;" horiz-adv-x="1331" 
d="M524 -133l248 47c61.333 -55.333 92 -115.333 92 -180c0 -91.333 -60.667 -179.333 -182 -264l-190 38c37.333 43.333 64 81 80 113s24 63.333 24 94c0 50 -24 100.667 -72 152zM1333 43l-383 -57l-471 671v-657h-350v1413h350v-604l436 604h406l-508 -659z" />
    <glyph glyph-name="uni0137" unicode="&#x137;" horiz-adv-x="1034" 
d="M375 -150l248 47.999c61.333 -55.333 92 -115.666 92 -180.999c0 -90.667 -61 -178.667 -183 -264l-190 39c37.333 43.333 64 81 80 113s24 63.333 24 94c0 50 -23.667 100.333 -71 151zM1028 30.999l-323 -45l-289 483v-469h-310v1430l310 49v-885l264 410h340
l-320 -461z" />
    <glyph glyph-name="Lacute" unicode="&#x139;" horiz-adv-x="999" 
d="M725 1778l-301 -248h-197l123 309zM961 0h-832v1413h350v-1110h434z" />
    <glyph glyph-name="lacute" unicode="&#x13a;" horiz-adv-x="536" 
d="M657 1804l-301 -248h-196l123 310zM424 0h-311v1430l311 49v-1479z" />
    <glyph glyph-name="uni013B" unicode="&#x13b;" horiz-adv-x="999" 
d="M371 -164l247 47c62 -56 93 -116 93 -180c0 -90.667 -61 -178.667 -183 -264l-190 39c37.333 43.333 64 81 80 113s24 63.333 24 94c0 50 -23.667 100.333 -71 151zM961 0h-832v1413h350v-1110h434z" />
    <glyph glyph-name="uni013C" unicode="&#x13c;" horiz-adv-x="536" 
d="M100 -150l248 48c61.333 -55.333 92 -115.666 92 -180.999c0 -91.333 -60.667 -179.333 -182 -264l-190 39c37.333 43.333 64 81 80 113s24 63.333 24 94c0 49.333 -24 99.666 -72 150.999zM424 0h-311v1430l311 49v-1479z" />
    <glyph glyph-name="Lcaron" unicode="&#x13d;" horiz-adv-x="999" 
d="M850 1438c16 -48.667 24 -97.999 24 -147.999c0 -99.333 -46.333 -193.333 -139 -282l-145 30c35.333 70.667 53 139.667 53 207c0 45.333 -13 98.666 -39 159.999zM961 0.000976562h-832v1413h350v-1110h434z" />
    <glyph glyph-name="lcaron" unicode="&#x13e;" horiz-adv-x="536" 
d="M762 1481c16 -48.667 24 -97.999 24 -147.999c0 -99.333 -46.333 -193.333 -139 -282l-145 30c35.333 70.667 53 139.667 53 207c0 45.333 -13 98.666 -39 159.999zM424 0.000976562h-311v1430l311 49v-1479z" />
    <glyph glyph-name="Ldot" unicode="&#x13f;" horiz-adv-x="999" 
d="M934 616h-260v269h260v-269zM961 0h-832v1413h350v-1110h434z" />
    <glyph glyph-name="ldot" unicode="&#x140;" horiz-adv-x="692" 
d="M424 0h-311v1430l311 49v-1479zM727 582h-221v309h221v-309z" />
    <glyph glyph-name="Lslash" unicode="&#x141;" horiz-adv-x="1058" 
d="M799 791l-260 -140v-348h434l49 -303h-834v461l-131 -72l-45 270l176 95v659h351v-469l260 143v-296z" />
    <glyph glyph-name="lslash" unicode="&#x142;" horiz-adv-x="651" 
d="M479 0h-305v485l-121 -65l-47 272l168 88v650l305 49v-539l148 80v-295l-148 -78v-647z" />
    <glyph glyph-name="Nacute" unicode="&#x143;" horiz-adv-x="1443" 
d="M1094 1759l-301 -248h-197l123 310zM1315 0h-303l-557 846v-846h-326v1413h340l520 -790v790h326v-1413z" />
    <glyph glyph-name="nacute" unicode="&#x144;" horiz-adv-x="1099" 
d="M930 1368l-301 -248h-197l123 310zM999 0h-311v629c0 80.667 -34 121 -102 121c-52.667 0 -109.334 -30.333 -170.001 -91v-659h-310v1004h273l22 -138c50.667 50.667 100.834 89.667 150.501 117s104.167 41 163.5 41c92 0 162.333 -27 211 -81s73 -130.667 73 -230
v-713z" />
    <glyph glyph-name="uni0145" unicode="&#x145;" horiz-adv-x="1443" 
d="M553 -133l248 46.999c61.333 -55.333 92 -115.333 92 -180c0 -91.333 -60.667 -179.333 -182 -264l-191 38c38 44 65 81.833 81 113.5s24 62.834 24 93.501c0 50 -24 100.667 -72 152zM1315 -0.000976562h-303l-557 846v-846h-326v1413h340l520 -790v790h326v-1413z" />
    <glyph glyph-name="uni0146" unicode="&#x146;" horiz-adv-x="1099" 
d="M389 -150l248 47.999c61.333 -55.333 92 -115.666 92 -180.999c0 -91.333 -60.667 -179.333 -182 -264l-191 39c38 44 65 81.833 81 113.5s24 62.834 24 93.501c0 49.333 -24 99.666 -72 150.999zM999 -0.000976562h-311v629c0 80.667 -34 121 -102 121
c-52.667 0 -109.334 -30.333 -170.001 -91v-659h-310v1004h273l22 -138c50.667 50.667 100.834 89.667 150.501 117s104.167 41 163.5 41c92 0 162.333 -27 211 -81s73 -130.667 73 -230v-713z" />
    <glyph glyph-name="Ncaron" unicode="&#x147;" horiz-adv-x="1443" 
d="M373 1812h196l152 -118l151 118h197l-205 -301h-286zM1315 0h-303l-557 846v-846h-326v1413h340l520 -790v790h326v-1413z" />
    <glyph glyph-name="ncaron" unicode="&#x148;" horiz-adv-x="1099" 
d="M209 1421h197l151 -118l152 118h196l-205 -301h-286zM999 0h-311v629c0 80.667 -34 121 -102 121c-52.667 0 -109.334 -30.333 -170.001 -91v-659h-310v1004h273l22 -138c50.667 50.667 100.834 89.667 150.501 117s104.167 41 163.5 41c92 0 162.333 -27 211 -81
s73 -130.667 73 -230v-713z" />
    <glyph glyph-name="Omacron" unicode="&#x14c;" horiz-adv-x="1505" 
d="M1063 1559h-623v215h623v-215zM1427 709c0 -144.667 -27.5 -272.501 -82.5 -383.501s-134 -197.5 -237 -259.5s-222.167 -93 -357.5 -93c-202 0 -364.5 67.333 -487.5 202s-184.5 311.334 -184.5 530.001c0 220 61.667 397.5 185 532.5s287 202.5 491 202.5
c134.667 0 253.167 -30.5 355.5 -91.5s180.833 -146.667 235.5 -257s82 -237.833 82 -382.5zM1075 706.999c0 142 -28.333 253.832 -85 335.499s-136 122.5 -238 122.5c-100.667 0 -179.834 -41 -237.501 -123s-86.5 -193.667 -86.5 -335s28.833 -253.166 86.5 -335.499
s136.834 -123.5 237.501 -123.5c101.333 0 180.5 41 237.5 123s85.5 194 85.5 336z" />
    <glyph glyph-name="omacron" unicode="&#x14d;" horiz-adv-x="1079" 
d="M850 1141h-623v215h623v-215zM1022 502c0 -158.667 -45.332 -285.332 -135.999 -379.999s-207 -142 -349 -142c-140.667 0 -255.834 47.167 -345.501 141.5s-134.5 220.5 -134.5 378.5c0 158.667 45.167 285.667 135.5 381s205.833 143 346.5 143
c142 0 258 -47.333 348 -142s135 -221.334 135 -380.001zM723.001 500.002c0 82.667 -15.998 148.667 -47.998 198s-77.333 74 -136 74s-103.834 -24.167 -135.501 -72.5s-47.5 -114.166 -47.5 -197.499c0 -82.667 16.167 -148.834 48.5 -198.501
s77.166 -74.5 134.499 -74.5c58.667 0 104 24.5 136 73.5s48 114.833 48 197.5z" />
    <glyph glyph-name="Obreve" unicode="&#x14e;" horiz-adv-x="1505" 
d="M1427 709c0 -144.667 -27.5 -272.501 -82.5 -383.501s-134 -197.5 -237 -259.5s-222.167 -93 -357.5 -93c-202 0 -364.5 67.333 -487.5 202s-184.5 311.334 -184.5 530.001c0 220 61.667 397.5 185 532.5s287 202.5 491 202.5c134.667 0 253.167 -30.5 355.5 -91.5
s180.833 -146.667 235.5 -257s82 -237.833 82 -382.5zM1075 706.999c0 142 -28.333 253.832 -85 335.499s-136 122.5 -238 122.5c-100.667 0 -179.834 -41 -237.501 -123s-86.5 -193.667 -86.5 -335s28.833 -253.166 86.5 -335.499s136.834 -123.5 237.501 -123.5
c101.333 0 180.5 41 237.5 123s85.5 194 85.5 336zM1077 1815c-14 -88.667 -48.167 -157.334 -102.5 -206.001s-128.5 -73 -222.5 -73c-93.333 0 -167.166 24.333 -221.499 73s-88.5 117.334 -102.5 206.001l170 26c15.333 -41.333 34.833 -70.833 58.5 -88.5
s55.5 -26.5 95.5 -26.5s71.667 8.83301 95 26.5s42.666 47.167 57.999 88.5z" />
    <glyph glyph-name="obreve" unicode="&#x14f;" horiz-adv-x="1079" 
d="M1022 502c0 -158.667 -45.332 -285.332 -135.999 -379.999s-207 -142 -349 -142c-140.667 0 -255.834 47.167 -345.501 141.5s-134.5 220.5 -134.5 378.5c0 158.667 45.167 285.667 135.5 381s205.833 143 346.5 143c142 0 258 -47.333 348 -142
s135 -221.334 135 -380.001zM723.001 500.002c0 82.667 -15.998 148.667 -47.998 198s-77.333 74 -136 74s-103.834 -24.167 -135.501 -72.5s-47.5 -114.166 -47.5 -197.499c0 -82.667 16.167 -148.834 48.5 -198.501s77.166 -74.5 134.499 -74.5
c58.667 0 104 24.5 136 73.5s48 114.833 48 197.5zM864.003 1397c-14 -88.667 -48.167 -157.334 -102.5 -206.001s-128.5 -73 -222.5 -73c-93.333 0 -167.166 24.333 -221.499 73s-88.5 117.334 -102.5 206.001l170 26c15.333 -41.333 34.833 -70.666 58.5 -87.999
s55.5 -26 95.5 -26s71.667 8.66699 95 26s42.666 46.666 57.999 87.999z" />
    <glyph glyph-name="Ohungarumlaut" unicode="&#x150;" horiz-adv-x="1505" 
d="M1427 709c0 -144.667 -27.5 -272.501 -82.5 -383.501s-134 -197.5 -237 -259.5s-222.167 -93 -357.5 -93c-202 0 -364.5 67.333 -487.5 202s-184.5 311.334 -184.5 530.001c0 220 61.667 397.5 185 532.5s287 202.5 491 202.5c134.667 0 253.167 -30.5 355.5 -91.5
s180.833 -146.667 235.5 -257s82 -237.833 82 -382.5zM1075 706.999c0 142 -28.333 253.832 -85 335.499s-136 122.5 -238 122.5c-100.667 0 -179.834 -41 -237.501 -123s-86.5 -193.667 -86.5 -335s28.833 -253.166 86.5 -335.499s136.834 -123.5 237.501 -123.5
c101.333 0 180.5 41 237.5 123s85.5 194 85.5 336zM1266 1786l-275 -246h-192l100 234l-260 -234h-193l132 307l327 -61l27 61z" />
    <glyph glyph-name="ohungarumlaut" unicode="&#x151;" horiz-adv-x="1079" 
d="M1022 502c0 -158.667 -45.332 -285.332 -135.999 -379.999s-207 -142 -349 -142c-140.667 0 -255.834 47.167 -345.501 141.5s-134.5 220.5 -134.5 378.5c0 158.667 45.167 285.667 135.5 381s205.833 143 346.5 143c142 0 258 -47.333 348 -142
s135 -221.334 135 -380.001zM723.001 500.002c0 82.667 -15.998 148.667 -47.998 198s-77.333 74 -136 74s-103.834 -24.167 -135.501 -72.5s-47.5 -114.166 -47.5 -197.499c0 -82.667 16.167 -148.834 48.5 -198.501s77.166 -74.5 134.499 -74.5
c58.667 0 104 24.5 136 73.5s48 114.833 48 197.5zM1051 1368l-275 -246h-192l100 234l-260 -234h-193l131 308l328 -62l27 62z" />
    <glyph glyph-name="OE" unicode="&#x152;" horiz-adv-x="1861" 
d="M1792 0l-965 0.000976562c-120.667 0 -228.5 17 -323.5 51s-173.333 82.167 -235 144.5s-108.5 136.5 -140.5 222.5s-48 181.667 -48 287s16.333 201.333 49 288s79.667 161.167 141 223.5s138.833 110.666 232.5 144.999s199.167 51.5 316.5 51.5h955v-283h-537v-266
h410l43 -280h-453v-299h555v-285zM897 272.001v869h-59c-129.333 0 -229.666 -35.5 -300.999 -106.5s-107 -180.167 -107 -327.5c0 -144 36.667 -252.5 110 -325.5s172.666 -109.5 297.999 -109.5h59z" />
    <glyph glyph-name="oe" unicode="&#x153;" horiz-adv-x="1699" 
d="M1638 504c0 -34.667 -1.33398 -61.332 -4.00098 -79.999h-604c16.667 -146 99.334 -219 248.001 -219c101.333 0 211.333 35.333 330 106l30 -219c-116 -74.667 -246.333 -112 -391 -112c-172 0 -297.667 56.667 -377 170c-85.333 -113.333 -200.666 -170 -345.999 -170
c-134 0 -245.333 47.333 -334 142s-133 220.667 -133 378c0 158 45 284.833 135 380.5s204.333 143.5 343 143.5c148.667 0 261 -57.333 337 -172c84.667 114.667 196.667 172 336 172c58 0 110.667 -8.66699 158 -26s87.666 -41.666 120.999 -72.999
s61.5 -68.833 84.5 -112.5s39.833 -91.334 50.5 -143.001s16 -106.834 16 -165.501zM1343 594.002c-10 152.667 -61.667 229 -155 229c-44.667 0 -81.167 -19.5 -109.5 -58.5s-44.5 -95.833 -48.5 -170.5h313zM722.999 500.002c0 82.667 -15.998 148.334 -47.998 197.001
s-77.333 73 -136 73s-103.834 -23.833 -135.501 -71.5s-47.5 -113.167 -47.5 -196.5c0 -82.667 16.167 -148.834 48.5 -198.501s77.166 -74.5 134.499 -74.5c58.667 0 104 24.5 136 73.5s48 114.833 48 197.5z" />
    <glyph glyph-name="Racute" unicode="&#x154;" horiz-adv-x="1261" 
d="M987 1765l-301 -247h-197l123 309zM1245 45l-371 -59l-309 499h-88v-485h-348v1413h494c172.667 0 306.167 -38.167 400.5 -114.5s141.5 -186.833 141.5 -331.5c0 -192 -88.667 -326 -266 -402zM821 946c0 66 -19.833 116.333 -59.5 151s-97.5 52 -173.5 52h-113v-412
h109c76 0 134.5 18 175.5 54s61.5 87.667 61.5 155z" />
    <glyph glyph-name="racute" unicode="&#x155;" horiz-adv-x="772" 
d="M766 1368l-301 -248h-197l123 310zM754 709c-140 -9.33301 -252.667 -60 -338 -152v-557h-310v1004h271l33 -199c34 64.667 74.167 116.167 120.5 154.5s103.5 59.833 171.5 64.5z" />
    <glyph glyph-name="uni0156" unicode="&#x156;" horiz-adv-x="1261" 
d="M467 -133l248 46.999c61.333 -55.333 92 -115.333 92 -180c0 -91.333 -60.667 -179.333 -182 -264l-191 38c38 44 65 81.833 81 113.5s24 62.834 24 93.501c0 50 -24 100.667 -72 152zM1245 44.999l-371 -59l-309 499h-88v-485h-348v1413h494
c172.667 0 306.167 -38.167 400.5 -114.5s141.5 -186.833 141.5 -331.5c0 -192 -88.667 -326 -266 -402zM821 945.999c0 66 -19.833 116.333 -59.5 151s-97.5 52 -173.5 52h-113v-412h109c76 0 134.5 18 175.5 54s61.5 87.667 61.5 155z" />
    <glyph glyph-name="uni0157" unicode="&#x157;" horiz-adv-x="772" 
d="M115 -150l247 48c62 -56 93 -116.333 93 -181c0 -90.667 -61 -178.667 -183 -264l-190 39c37.333 43.333 64 81 80 113s24 63.333 24 94c0 50 -23.667 100.333 -71 151zM754 709c-140 -9.33301 -252.667 -60 -338 -152v-557h-310v1004h271l33 -199
c34 64.667 74.167 116.167 120.5 154.5s103.5 59.833 171.5 64.5z" />
    <glyph glyph-name="Rcaron" unicode="&#x158;" horiz-adv-x="1261" 
d="M268 1819h197l151 -119l152 119h197l-205 -301h-287zM1245 45l-371 -59l-309 499h-88v-485h-348v1413h494c172.667 0 306.167 -38.167 400.5 -114.5s141.5 -186.833 141.5 -331.5c0 -192 -88.667 -326 -266 -402zM821 946c0 66 -19.833 116.333 -59.5 151
s-97.5 52 -173.5 52h-113v-412h109c76 0 134.5 18 175.5 54s61.5 87.667 61.5 155z" />
    <glyph glyph-name="rcaron" unicode="&#x159;" horiz-adv-x="772" 
d="M49 1421h197l151 -118l152 118h196l-204 -301h-287zM754 709c-140 -9.33301 -252.667 -60 -338 -152v-557h-310v1004h271l33 -199c34 64.667 74.167 116.167 120.5 154.5s103.5 59.833 171.5 64.5z" />
    <glyph glyph-name="Sacute" unicode="&#x15a;" horiz-adv-x="1132" 
d="M958 1786l-301 -248h-196l123 309zM1071 426c0 -74.667 -13.0029 -140.662 -39.0029 -197.995s-62.333 -103.5 -109 -138.5s-100 -61.333 -160 -79s-126 -26.5 -198 -26.5c-175.333 0 -339.666 35.333 -492.999 106l51 299c162.667 -87.333 312 -131 448 -131
c51.333 0 92.5 11 123.5 33s46.5 53.333 46.5 94s-15.333 73.667 -46 99s-95 56.666 -193 93.999c-75.333 29.333 -136.666 56.666 -183.999 81.999s-88.666 54.666 -123.999 87.999s-60.5 71.166 -75.5 113.499s-22.5 92.5 -22.5 150.5c0 88 21.833 164 65.5 228
s101.5 111.667 173.5 143s153.667 47 245 47c86.667 0 162.667 -7.83301 228 -23.5s131.333 -39.5 198 -71.5l-54 -295c-131.333 76.667 -254 115 -368 115c-51.333 0 -90.5 -10 -117.5 -30s-40.5 -47 -40.5 -81c0 -36.667 14 -66.334 42 -89.001s85.667 -51 173 -85
c158.667 -58 270 -119 334 -183s96 -151 96 -261z" />
    <glyph glyph-name="sacute" unicode="&#x15b;" horiz-adv-x="950" 
d="M868 1368l-301 -248h-196l123 310zM891 309c0 -106 -35.333 -186.999 -106 -242.999s-172.667 -84 -306 -84c-147.333 0 -285 32.667 -413 98l36 237c59.333 -36.667 122.833 -65.5 190.5 -86.5s130.5 -31.5 188.5 -31.5c42 0 73.667 6.83301 95 20.5s32 32.5 32 56.5
c0 25.333 -11.167 45.666 -33.5 60.999s-67.833 31.333 -136.5 48c-132 34.667 -224.667 74.667 -278 120s-80 113.333 -80 204c0 94.667 34 170.5 102 227.5s163 85.5 285 85.5c136.667 0 259.667 -24.667 369 -74l-39 -237c-116 62.667 -226 94 -330 94
c-34.667 0 -61.167 -6 -79.5 -18s-27.5 -28 -27.5 -48c0 -22 11.167 -40 33.5 -54s67.833 -30.667 136.5 -50c136.667 -36 231 -76.667 283 -122s78 -113.333 78 -204z" />
    <glyph glyph-name="Scedilla" unicode="&#x15e;" horiz-adv-x="1132" 
d="M1071 426c0 -74.667 -13.0029 -140.662 -39.0029 -197.995s-62.333 -103.5 -109 -138.5s-100 -61.333 -160 -79s-126 -26.5 -198 -26.5c-175.333 0 -339.666 35.333 -492.999 106l51 299c162.667 -87.333 312 -131 448 -131c51.333 0 92.5 11 123.5 33
s46.5 53.333 46.5 94s-15.333 73.667 -46 99s-95 56.666 -193 93.999c-75.333 29.333 -136.666 56.666 -183.999 81.999s-88.666 54.666 -123.999 87.999s-60.5 71.166 -75.5 113.499s-22.5 92.5 -22.5 150.5c0 88 21.833 164 65.5 228s101.5 111.667 173.5 143
s153.667 47 245 47c86.667 0 162.667 -7.83301 228 -23.5s131.333 -39.5 198 -71.5l-54 -295c-131.333 76.667 -254 115 -368 115c-51.333 0 -90.5 -10 -117.5 -30s-40.5 -47 -40.5 -81c0 -36.667 14 -66.334 42 -89.001s85.667 -51 173 -85c158.667 -58 270 -119 334 -183
s96 -151 96 -261zM794.997 -181.995l-285 -217h-199l111 280z" />
    <glyph glyph-name="scedilla" unicode="&#x15f;" horiz-adv-x="950" 
d="M891 309c0 -106 -35.333 -186.999 -106 -242.999s-172.667 -84 -306 -84c-147.333 0 -285 32.667 -413 98l36 237c59.333 -36.667 122.833 -65.5 190.5 -86.5s130.5 -31.5 188.5 -31.5c42 0 73.667 6.83301 95 20.5s32 32.5 32 56.5
c0 25.333 -11.167 45.666 -33.5 60.999s-67.833 31.333 -136.5 48c-132 34.667 -224.667 74.667 -278 120s-80 113.333 -80 204c0 94.667 34 170.5 102 227.5s163 85.5 285 85.5c136.667 0 259.667 -24.667 369 -74l-39 -237c-116 62.667 -226 94 -330 94
c-34.667 0 -61.167 -6 -79.5 -18s-27.5 -28 -27.5 -48c0 -22 11.167 -40 33.5 -54s67.833 -30.667 136.5 -50c136.667 -36 231 -76.667 283 -122s78 -113.333 78 -204zM705 -165.999l-285 -217h-199l111 281z" />
    <glyph glyph-name="Scaron" unicode="&#x160;" horiz-adv-x="1132" 
d="M238 1839h196l152 -119l151 119h197l-205 -301h-287zM1071 426c0 -74.667 -13.0029 -140.662 -39.0029 -197.995s-62.333 -103.5 -109 -138.5s-100 -61.333 -160 -79s-126 -26.5 -198 -26.5c-175.333 0 -339.666 35.333 -492.999 106l51 299
c162.667 -87.333 312 -131 448 -131c51.333 0 92.5 11 123.5 33s46.5 53.333 46.5 94s-15.333 73.667 -46 99s-95 56.666 -193 93.999c-75.333 29.333 -136.666 56.666 -183.999 81.999s-88.666 54.666 -123.999 87.999s-60.5 71.166 -75.5 113.499s-22.5 92.5 -22.5 150.5
c0 88 21.833 164 65.5 228s101.5 111.667 173.5 143s153.667 47 245 47c86.667 0 162.667 -7.83301 228 -23.5s131.333 -39.5 198 -71.5l-54 -295c-131.333 76.667 -254 115 -368 115c-51.333 0 -90.5 -10 -117.5 -30s-40.5 -47 -40.5 -81c0 -36.667 14 -66.334 42 -89.001
s85.667 -51 173 -85c158.667 -58 270 -119 334 -183s96 -151 96 -261z" />
    <glyph glyph-name="scaron" unicode="&#x161;" horiz-adv-x="950" 
d="M150 1421h196l152 -118l151 118h197l-205 -301h-287zM891 309c0 -106 -35.333 -186.999 -106 -242.999s-172.667 -84 -306 -84c-147.333 0 -285 32.667 -413 98l36 237c59.333 -36.667 122.833 -65.5 190.5 -86.5s130.5 -31.5 188.5 -31.5c42 0 73.667 6.83301 95 20.5
s32 32.5 32 56.5c0 25.333 -11.167 45.666 -33.5 60.999s-67.833 31.333 -136.5 48c-132 34.667 -224.667 74.667 -278 120s-80 113.333 -80 204c0 94.667 34 170.5 102 227.5s163 85.5 285 85.5c136.667 0 259.667 -24.667 369 -74l-39 -237c-116 62.667 -226 94 -330 94
c-34.667 0 -61.167 -6 -79.5 -18s-27.5 -28 -27.5 -48c0 -22 11.167 -40 33.5 -54s67.833 -30.667 136.5 -50c136.667 -36 231 -76.667 283 -122s78 -113.333 78 -204z" />
    <glyph glyph-name="uni0162" unicode="&#x162;" horiz-adv-x="1247" 
d="M459 -164l248 47c61.333 -55.333 92 -115.333 92 -180c0 -90.667 -61 -178.667 -183 -264l-190 39c37.333 43.333 64 81 80 113s24 63.333 24 94c0 50 -23.667 100.333 -71 151zM1219 1116h-416v-1116h-352v1116h-400v297h1118z" />
    <glyph glyph-name="uni0163" unicode="&#x163;" horiz-adv-x="743" 
d="M238 -150l247 48c62 -56 93 -116.333 93 -181c0 -90.667 -61 -178.667 -183 -264l-190 39c37.333 43.333 64 81 80 113s24 63.333 24 94c0 50 -23.667 100.333 -71 151zM705 6c-46.667 -13.333 -106.333 -20 -179 -20c-56 0 -105.333 5.5 -148 16.5
s-80.667 28.833 -114 53.5s-58.666 59 -75.999 103s-26 97.333 -26 160v433h-133v252h133v299l307 49v-348h190l39 -252h-229v-383c0 -79.333 41 -119 123 -119c25.333 0 50.666 3.33301 75.999 10z" />
    <glyph glyph-name="Tcaron" unicode="&#x164;" horiz-adv-x="1247" 
d="M279 1819h196l152 -119l151 119h197l-205 -301h-287zM1219 1116h-416v-1116h-352v1116h-400v297h1118z" />
    <glyph glyph-name="tcaron" unicode="&#x165;" horiz-adv-x="743" 
d="M815 1516c16.667 -51.333 25 -100.667 25 -148c0 -99.333 -46.667 -193.666 -140 -282.999l-145 31c35.333 70.667 53 139.667 53 207c0 45.333 -13 98.666 -39 159.999zM705 5.99902c-46.667 -13.333 -106.333 -20 -179 -20c-56 0 -105.333 5.5 -148 16.5
s-80.667 28.833 -114 53.5s-58.666 59 -75.999 103s-26 97.333 -26 160v433h-133v252h133v299l307 49v-348h190l39 -252h-229v-383c0 -79.333 41 -119 123 -119c25.333 0 50.666 3.33301 75.999 10z" />
    <glyph glyph-name="Umacron" unicode="&#x16a;" horiz-adv-x="1409" 
d="M1296 561c0 -96 -15 -181.499 -45 -256.499s-71.667 -136.167 -125 -183.5s-116 -83.166 -188 -107.499s-151.333 -36.5 -238 -36.5c-179.333 0 -322 49.167 -428 147.5s-159 243.166 -159 434.499v854h352v-852c0 -92 20.5 -163.167 61.5 -213.5
s100.5 -75.5 178.5 -75.5c78.667 0 138.167 24.667 178.5 74s60.5 119.666 60.5 210.999v856h352v-852zM1014 1532h-623v215h623v-215z" />
    <glyph glyph-name="umacron" unicode="&#x16b;" horiz-adv-x="1099" 
d="M993 0h-272l-23 137c-51.333 -50.667 -101.833 -89.5 -151.5 -116.5s-103.5 -40.5 -161.5 -40.5c-92 0 -162.5 27 -211.5 81s-73.5 130 -73.5 228v715h310v-629c0 -82 34.667 -123 104 -123c53.333 0 110 30 170 90v662h309v-1004zM858 1141h-622v215h622v-215z" />
    <glyph glyph-name="Ubreve" unicode="&#x16c;" horiz-adv-x="1409" 
d="M1296 561c0 -96 -15 -181.499 -45 -256.499s-71.667 -136.167 -125 -183.5s-116 -83.166 -188 -107.499s-151.333 -36.5 -238 -36.5c-179.333 0 -322 49.167 -428 147.5s-159 243.166 -159 434.499v854h352v-852c0 -92 20.5 -163.167 61.5 -213.5
s100.5 -75.5 178.5 -75.5c78.667 0 138.167 24.667 178.5 74s60.5 119.666 60.5 210.999v856h352v-852zM1028 1776c-14 -88.667 -48.332 -157.334 -102.999 -206.001s-129 -73 -223 -73c-93.333 0 -167 24.333 -221 73s-88 117.334 -102 206.001l170 26
c15.333 -41.333 34.666 -70.666 57.999 -87.999s55 -26 95 -26s71.833 8.66699 95.5 26s43.167 46.666 58.5 87.999z" />
    <glyph glyph-name="ubreve" unicode="&#x16d;" horiz-adv-x="1099" 
d="M993 0h-272l-23 137c-51.333 -50.667 -101.833 -89.5 -151.5 -116.5s-103.5 -40.5 -161.5 -40.5c-92 0 -162.5 27 -211.5 81s-73.5 130 -73.5 228v715h310v-629c0 -82 34.667 -123 104 -123c53.333 0 110 30 170 90v662h309v-1004zM872 1397
c-14 -88.667 -48.167 -157.334 -102.5 -206.001s-128.5 -73 -222.5 -73c-93.333 0 -167.166 24.333 -221.499 73s-88.5 117.334 -102.5 206.001l170 26c15.333 -41.333 34.833 -70.666 58.5 -87.999s55.5 -26 95.5 -26s71.667 8.66699 95 26s42.666 46.666 57.999 87.999z
" />
    <glyph glyph-name="Uring" unicode="&#x16e;" horiz-adv-x="1409" 
d="M973 1708c0 -64 -23.666 -116.833 -70.999 -158.5s-114 -62.5 -200 -62.5s-152.5 20.833 -199.5 62.5s-70.5 94.5 -70.5 158.5c0 63.333 23.667 116 71 158s113.666 63 198.999 63s151.833 -21 199.5 -63s71.5 -94.667 71.5 -158zM805.001 1708
c0 32.667 -9.66699 60.667 -29 84s-44 35 -74 35s-54.5 -11.667 -73.5 -35s-28.5 -51.333 -28.5 -84c0 -33.333 9.5 -61.5 28.5 -84.5s43.5 -34.5 73.5 -34.5s54.667 11.5 74 34.5s29 51.167 29 84.5zM1296 561c0 -96 -15 -181.499 -45 -256.499
s-71.667 -136.167 -125 -183.5s-116 -83.166 -188 -107.499s-151.333 -36.5 -238 -36.5c-179.333 0 -322 49.167 -428 147.5s-159 243.166 -159 434.499v854h352v-852c0 -92 20.5 -163.167 61.5 -213.5s100.5 -75.5 178.5 -75.5c78.667 0 138.167 24.667 178.5 74
s60.5 119.666 60.5 210.999v856h352v-852z" />
    <glyph glyph-name="uring" unicode="&#x16f;" horiz-adv-x="1099" 
d="M817 1323c0 -64 -23.499 -116.833 -70.499 -158.5s-113.5 -62.5 -199.5 -62.5s-152.667 20.833 -200 62.5s-71 94.5 -71 158.5c0 63.333 23.833 116 71.5 158s114.167 63 199.5 63s151.666 -21 198.999 -63s71 -94.667 71 -158zM649.001 1323
c0 32.667 -9.5 60.667 -28.5 84s-43.5 35 -73.5 35s-54.667 -11.667 -74 -35s-29 -51.333 -29 -84c0 -33.333 9.66699 -61.5 29 -84.5s44 -34.5 74 -34.5s54.5 11.5 73.5 34.5s28.5 51.167 28.5 84.5zM993.001 0h-272l-23 137c-51.333 -50.667 -101.833 -89.5 -151.5 -116.5
s-103.5 -40.5 -161.5 -40.5c-92 0 -162.5 27 -211.5 81s-73.5 130 -73.5 228v715h310v-629c0 -82 34.667 -123 104 -123c53.333 0 110 30 170 90v662h309v-1004z" />
    <glyph glyph-name="Uhungarumlaut" unicode="&#x170;" horiz-adv-x="1409" 
d="M1296 561c0 -96 -15 -181.499 -45 -256.499s-71.667 -136.167 -125 -183.5s-116 -83.166 -188 -107.499s-151.333 -36.5 -238 -36.5c-179.333 0 -322 49.167 -428 147.5s-159 243.166 -159 434.499v854h352v-852c0 -92 20.5 -163.167 61.5 -213.5
s100.5 -75.5 178.5 -75.5c78.667 0 138.167 24.667 178.5 74s60.5 119.666 60.5 210.999v856h352v-852zM1217 1759l-275 -246h-192l100 234l-260 -234h-193l131 308l328 -62l27 62z" />
    <glyph glyph-name="uhungarumlaut" unicode="&#x171;" horiz-adv-x="1099" 
d="M993 0h-272l-23 137c-51.333 -50.667 -101.833 -89.5 -151.5 -116.5s-103.5 -40.5 -161.5 -40.5c-92 0 -162.5 27 -211.5 81s-73.5 130 -73.5 228v715h310v-629c0 -82 34.667 -123 104 -123c53.333 0 110 30 170 90v662h309v-1004zM1061 1368l-275 -246h-192l100 234
l-260 -234h-192l131 308l327 -62l27 62z" />
    <glyph glyph-name="Uogonek" unicode="&#x172;" horiz-adv-x="1409" 
d="M1296 561c0 -169.333 -43.832 -302.668 -131.499 -400.001s-206.167 -155.666 -355.5 -174.999l-21 -35c-32.667 -51.333 -49 -91.666 -49 -120.999c0 -40.667 24 -61 72 -61c21.333 0 50 4.66699 86 14v-152c-70.667 -31.333 -141 -47 -211 -47
c-58.667 0 -104.334 14.167 -137.001 42.5s-49 69.5 -49 123.5c0 61.333 34 139.333 102 234c-152 16 -271.5 72.333 -358.5 169s-130.5 232 -130.5 406v854h352v-852c0 -92 20.5 -163.167 61.5 -213.5s100.5 -75.5 178.5 -75.5c78.667 0 138.167 24.667 178.5 74
s60.5 119.666 60.5 210.999v856h352v-852z" />
    <glyph glyph-name="uogonek" unicode="&#x173;" horiz-adv-x="1099" 
d="M993 0l-55 -0.000976562l-31 -49c-32.667 -51.333 -49 -91.666 -49 -120.999c0 -40.667 24 -61 72 -61c21.333 0 50 4.66699 86 14v-152c-70.667 -31.333 -141 -47 -211 -47c-58.667 0 -104.5 14.167 -137.5 42.5s-49.5 69.5 -49.5 123.5c0 62.667 39 146 117 250h-14
l-23 137c-51.333 -50.667 -101.833 -89.5 -151.5 -116.5s-103.5 -40.5 -161.5 -40.5c-92 0 -162.5 27 -211.5 81s-73.5 130 -73.5 228v715h310v-629c0 -82 34.667 -123 104 -123c53.333 0 110 30 170 90v662h309v-1004z" />
    <glyph glyph-name="Wcircumflex" unicode="&#x174;" horiz-adv-x="2027" 
d="M1382 1518h-196l-152 118l-151 -118h-197l205 301h287zM1991 1413l-385 -1415h-355l-243 913l-244 -913h-352l-373 1370l379 59l213 -899l229 885h352l230 -885l200 885h349z" />
    <glyph glyph-name="wcircumflex" unicode="&#x175;" horiz-adv-x="1484" 
d="M1104 1120h-197l-151 119l-152 -119h-196l204 301h287zM1464 1004l-280 -1006h-297l-146 573l-143 -573h-299l-274 981l319 39l137 -604l142 590h278l143 -588l132 588h288z" />
    <glyph glyph-name="Ycircumflex" unicode="&#x176;" horiz-adv-x="1372" 
d="M1370 1413l-510 -893v-520h-350v516l-490 860l373 51l307 -585l297 571h373zM1047 1511h-197l-152 119l-151 -119h-197l205 301h287z" />
    <glyph glyph-name="ycircumflex" unicode="&#x177;" horiz-adv-x="1044" 
d="M1028 1004l-358.001 -1029c-44 -128 -98.667 -218 -164 -270s-152.666 -78 -261.999 -78c-38.667 0 -79 4.33301 -121 13l-41 249c37.333 -10.667 78.333 -16 123 -16c82 0 138.667 34.667 170 104l8 21l-365 981l332 39l193 -631l182 617h303zM890.999 1120h-197
l-151 119l-152 -119h-196l204 301h287z" />
    <glyph glyph-name="Ydieresis" unicode="&#x178;" horiz-adv-x="1372" 
d="M1370 1413l-510 -893v-520h-350v516l-490 860l373 51l307 -585l297 571h373zM1036 1513h-266v269h266v-269zM631 1513h-266v269h266v-269z" />
    <glyph glyph-name="Zacute" unicode="&#x179;" horiz-adv-x="1251" 
d="M1010 1765l-301 -247h-197l123 309zM1184 0h-1104v254l657 881h-587l-44 278h1059v-254l-657 -880h633z" />
    <glyph glyph-name="zacute" unicode="&#x17a;" horiz-adv-x="956" 
d="M856 1368l-301 -248h-197l123 310zM907 0h-852v233l445 529h-391l-37 242h811v-236l-443 -526h428z" />
    <glyph glyph-name="Zdotaccent" unicode="&#x17b;" horiz-adv-x="1251" 
d="M1184 0h-1104v254l657 881h-587l-44 278h1059v-254l-657 -880h633zM778 1520h-276v268h276v-268z" />
    <glyph glyph-name="zdotaccent" unicode="&#x17c;" horiz-adv-x="956" 
d="M907 0h-852v233l445 529h-391l-37 242h811v-236l-443 -526h428zM623 1122h-277v269h277v-269z" />
    <glyph glyph-name="Zcaron" unicode="&#x17d;" horiz-adv-x="1251" 
d="M291 1819h196l152 -119l152 119h196l-205 -301h-286zM1184 0h-1104v254l657 881h-587l-44 278h1059v-254l-657 -880h633z" />
    <glyph glyph-name="zcaron" unicode="&#x17e;" horiz-adv-x="956" 
d="M137 1421h197l151 -118l152 118h197l-205 -301h-287zM907 0h-852v233l445 529h-391l-37 242h811v-236l-443 -526h428z" />
    <glyph glyph-name="uni018F" unicode="&#x18f;" horiz-adv-x="1411" 
d="M614 1145c-81.333 0 -158.167 -10.498 -230.5 -31.498s-153.166 -56.167 -242.499 -105.5l-37 286c160.667 97.333 338.334 146 533.001 146c213.333 0 382.333 -64.167 507 -192.5s187 -307.833 187 -538.5c0 -112 -15.833 -214.167 -47.5 -306.5
s-75.667 -169.833 -132 -232.5s-123.833 -111.167 -202.5 -145.5s-164.334 -51.5 -257.001 -51.5c-98 0 -185.167 17.667 -261.5 53s-138.5 85.166 -186.5 149.499s-84.333 140.333 -109 228s-37 185.167 -37 292.5c0 69.333 2 118.666 6 147.999h869
c-15.333 92 -55.333 165.167 -120 219.5s-144.334 81.5 -239.001 81.5zM706.999 244.002c78 0 141.833 31.833 191.5 95.5s76.5 153.167 80.5 268.5h-533c4 -242.667 91 -364 261 -364z" />
    <glyph glyph-name="florin" unicode="&#x192;" horiz-adv-x="911" 
d="M782 936v-256h-231l-109 -680h-329l106 680h-151l36 256h156l19 119c18.667 125.333 61.167 214.333 127.5 267s161.5 79 285.5 79c57.333 0 112 -3.33301 164 -10v-254c-32 6.66699 -64.667 10 -98 10c-46 0 -81.167 -11.333 -105.5 -34s-40.5 -59 -48.5 -109l-12 -68
h190z" />
    <glyph glyph-name="Aringacute" unicode="&#x1fa;" horiz-adv-x="1437" 
d="M991 1499c0 -52.667 -17 -99 -51 -139l471 -1317l-352 -57l-105 307h-491l-94 -293h-342l481 1352c-38 38 -57 87 -57 147c0 63.333 23.667 116 71 158s113.666 63 198.999 63c84.667 0 150.834 -21 198.501 -63s71.5 -94.667 71.5 -158zM1092 2023l-301 -247h-197
l123 309zM709 1059l-162 -492h319zM823 1499c0 32.667 -9.5 60.667 -28.5 84s-43.5 35 -73.5 35s-54.667 -11.667 -74 -35s-29 -51.333 -29 -84c0 -33.333 9.66699 -61.5 29 -84.5s44 -34.5 74 -34.5s54.5 11.5 73.5 34.5s28.5 51.167 28.5 84.5z" />
    <glyph glyph-name="aringacute" unicode="&#x1fb;" horiz-adv-x="1038" 
d="M940 0h-273.999l-21 125c-92 -96.667 -197 -145 -315 -145c-82 0 -148 24.167 -198 72.5s-75 116.833 -75 205.5c0 116.667 46 204.834 138 264.501s237.333 98.5 436 116.5v18c0 43.333 -12.5 75.333 -37.5 96s-63.167 31 -114.5 31
c-102.667 0 -210.334 -25 -323.001 -75l-37 233c127.333 52 263 78 407 78c142 0 246.5 -26.833 313.5 -80.5s100.5 -142.834 100.5 -267.501v-672zM631.001 276v213c-99.333 -15.333 -169 -38.833 -209 -70.5s-60 -71.5 -60 -119.5c0 -30.667 9 -54.667 27 -72
s42 -26 72 -26c57.333 0 114 25 170 75zM918.001 1872l-302 -248h-196l123 309zM799.001 1337c0 -64 -23.666 -116.833 -70.999 -158.5s-114 -62.5 -200 -62.5s-152.5 20.833 -199.5 62.5s-70.5 94.5 -70.5 158.5c0 63.333 23.667 116.166 71 158.499
s113.666 63.5 198.999 63.5s151.833 -21.167 199.5 -63.5s71.5 -95.166 71.5 -158.499zM631.002 1337c0 32.667 -9.66699 60.667 -29 84s-44 35 -74 35s-54.5 -11.667 -73.5 -35s-28.5 -51.333 -28.5 -84c0 -33.333 9.5 -61.333 28.5 -84s43.5 -34 73.5 -34
s54.667 11.333 74 34s29 50.667 29 84z" />
    <glyph glyph-name="AEacute" unicode="&#x1fc;" horiz-adv-x="1857" 
d="M2 0l694 1413h1073v-283h-536v-266h409l46 -280h-455v-299h555v-285h-885v293h-403l-138 -293h-360zM1419 1765l-301 -247h-196l122 309zM623 567h280v613z" />
    <glyph glyph-name="aeacute" unicode="&#x1fd;" horiz-adv-x="1599" 
d="M1188 1368l-301 -248h-197l123 310zM1538 504c0 -34.667 -1.3291 -61.334 -3.99609 -80.001h-604c14.667 -146 96.667 -219 246 -219c102.667 0 212.334 35.333 329.001 106l33 -219c-116 -74.667 -249 -112 -399 -112c-174 0 -306.667 49.667 -398 149
c-119.333 -99.333 -242 -149 -368 -149c-94.667 0 -171 23.5 -229 70.5s-87 115.5 -87 205.5c0 114.667 45.5 202.5 136.5 263.5s234.833 100.833 431.5 119.5v18c0 44 -11.667 76.167 -35 96.5s-60.333 30.5 -111 30.5c-102.667 0 -210.334 -25 -323.001 -75l-37 233
c127.333 52 257.666 78 390.999 78c80.667 0 145 -10.333 193 -31s86.667 -54.667 116 -102c76.667 91.333 173.667 137 291 137c71.333 0 134.666 -13.333 189.999 -40s100.166 -63.667 134.499 -111s60.166 -102.166 77.499 -164.499s26 -130.5 26 -204.5zM1243 594
c-4 75.333 -19.5 132.333 -46.5 171s-64.167 58 -111.5 58c-43.333 0 -79 -19.5 -107 -58.5s-44 -95.833 -48 -170.5h313zM653.004 283c-20 68 -30 135.333 -30 202v2c-96 -15.333 -163.5 -38.833 -202.5 -70.5s-58.5 -69.5 -58.5 -113.5c0 -68 35.667 -102 107 -102
c62 0 123.333 27.333 184 82z" />
    <glyph glyph-name="Oslashacute" unicode="&#x1fe;" horiz-adv-x="1505" 
d="M1427 705c0 -108 -16.167 -207.332 -48.5 -297.999s-77.5 -167.834 -135.5 -231.501s-128.833 -113.334 -212.5 -149.001s-175.167 -53.5 -274.5 -53.5c-153.333 0 -286 41 -398 123l-94 -114l-213 47l168 204c-94 130.667 -141 289.334 -141 476.001
c0 144 28 271.333 84 382s135 196.5 237 257.5s219 91.5 351 91.5c150 0 282.333 -41 397 -123l94 115l213 -48l-168 -204c94 -130.667 141 -289 141 -475zM752 1178c-101.333 0 -181.332 -42.832 -239.999 -128.499s-88 -199.834 -88 -342.501
c0 -88.667 11 -164.667 33 -228l504 608c-58.667 60.667 -128.334 91 -209.001 91zM1081 707.002c0 80.667 -10.667 156.334 -32 227.001l-504 -610c54.667 -58.667 123.667 -88 207 -88c102.667 0 183.167 42.667 241.5 128s87.5 199.666 87.5 342.999zM1124 1786
l-301 -248h-196l123 309z" />
    <glyph glyph-name="oslashacute" unicode="&#x1ff;" horiz-adv-x="1079" 
d="M1022 502c0 -104.667 -21.166 -197 -63.499 -277s-99.5 -140.833 -171.5 -182.5s-152.667 -62.5 -242 -62.5c-108 0 -201.667 27 -281 81l-65 -81l-166 36l125 150c-66 90 -99 201.333 -99 334c0 158 45.167 284.833 135.5 380.5s204.5 143.5 342.5 143.5
c105.333 0 198.666 -28.667 279.999 -86l68 86l166 -37l-127 -153c65.333 -92 98 -202.667 98 -332zM909.001 1368l-301 -248h-196l123 310zM733.001 500c0 44.667 -5.33203 87.667 -15.999 129l-293 -365c29.333 -31.333 67.666 -47 114.999 -47
c61.333 0 109 25.667 143 77s51 120 51 206zM539.002 786c-60 0 -106.499 -25.833 -139.499 -77.5s-49.5 -120.5 -49.5 -206.5c0 -48 5 -90.333 15 -127l290 362c-32.667 32.667 -71.334 49 -116.001 49z" />
    <glyph glyph-name="uni0218" unicode="&#x218;" horiz-adv-x="1132" 
d="M418 -166l248 47c61.333 -55.333 92 -115.333 92 -180c0 -90.667 -61 -178.667 -183 -264l-190 39c37.333 43.333 64 81 80 113s24 63.333 24 94c0 50 -23.667 100.333 -71 151zM1071 426c0 -74.667 -13.0029 -140.662 -39.0029 -197.995s-62.333 -103.5 -109 -138.5
s-100 -61.333 -160 -79s-126 -26.5 -198 -26.5c-175.333 0 -339.666 35.333 -492.999 106l51 299c162.667 -87.333 312 -131 448 -131c51.333 0 92.5 11 123.5 33s46.5 53.333 46.5 94s-15.333 73.667 -46 99s-95 56.666 -193 93.999
c-75.333 29.333 -136.666 56.666 -183.999 81.999s-88.666 54.666 -123.999 87.999s-60.5 71.166 -75.5 113.499s-22.5 92.5 -22.5 150.5c0 88 21.833 164 65.5 228s101.5 111.667 173.5 143s153.667 47 245 47c86.667 0 162.667 -7.83301 228 -23.5
s131.333 -39.5 198 -71.5l-54 -295c-131.333 76.667 -254 115 -368 115c-51.333 0 -90.5 -10 -117.5 -30s-40.5 -47 -40.5 -81c0 -36.667 14 -66.334 42 -89.001s85.667 -51 173 -85c158.667 -58 270 -119 334 -183s96 -151 96 -261z" />
    <glyph glyph-name="uni0219" unicode="&#x219;" horiz-adv-x="950" 
d="M330 -150l248 47.999c61.333 -55.333 92 -115.666 92 -180.999c0 -90.667 -61 -178.667 -183 -264l-190 39c37.333 43.333 64 81 80 113s24 63.333 24 94c0 50 -23.667 100.333 -71 151zM891 308.999c0 -106 -35.333 -186.999 -106 -242.999s-172.667 -84 -306 -84
c-147.333 0 -285 32.667 -413 98l36 237c59.333 -36.667 122.833 -65.5 190.5 -86.5s130.5 -31.5 188.5 -31.5c42 0 73.667 6.83301 95 20.5s32 32.5 32 56.5c0 25.333 -11.167 45.666 -33.5 60.999s-67.833 31.333 -136.5 48c-132 34.667 -224.667 74.667 -278 120
s-80 113.333 -80 204c0 94.667 34 170.5 102 227.5s163 85.5 285 85.5c136.667 0 259.667 -24.667 369 -74l-39 -237c-116 62.667 -226 94 -330 94c-34.667 0 -61.167 -6 -79.5 -18s-27.5 -28 -27.5 -48c0 -22 11.167 -40 33.5 -54s67.833 -30.667 136.5 -50
c136.667 -36 231 -76.667 283 -122s78 -113.333 78 -204z" />
    <glyph glyph-name="circumflex" unicode="&#x2c6;" horiz-adv-x="929" 
d="M815 1120h-197l-151 119l-152 -119h-196l205 301h286z" />
    <glyph glyph-name="caron" unicode="&#x2c7;" horiz-adv-x="929" 
d="M115 1421h196l152 -118l151 118h197l-205 -301h-287z" />
    <glyph glyph-name="breve" unicode="&#x2d8;" horiz-adv-x="929" 
d="M791 1397c-14 -88.667 -48.333 -157.334 -103 -206.001s-129 -73 -223 -73c-93.333 0 -167.166 24.333 -221.499 73s-88.5 117.334 -102.5 206.001l170 26c15.333 -41.333 34.833 -70.666 58.5 -87.999s55.5 -26 95.5 -26s71.667 8.66699 95 26
s42.666 46.666 57.999 87.999z" />
    <glyph glyph-name="dotaccent" unicode="&#x2d9;" horiz-adv-x="929" 
d="M604 1122h-276v269h276v-269z" />
    <glyph glyph-name="ring" unicode="&#x2da;" horiz-adv-x="929" 
d="M735 1337c0 -64 -23.498 -116.833 -70.498 -158.5s-113.5 -62.5 -199.5 -62.5s-152.5 20.833 -199.5 62.5s-70.5 94.5 -70.5 158.5c0 63.333 23.667 116.166 71 158.499s113.666 63.5 198.999 63.5s151.666 -21.167 198.999 -63.5s71 -95.166 71 -158.499zM567.002 1337
c0 32.667 -9.5 60.667 -28.5 84s-43.5 35 -73.5 35s-54.667 -11.667 -74 -35s-29 -51.333 -29 -84c0 -33.333 9.66699 -61.333 29 -84s44 -34 74 -34s54.5 11.333 73.5 34s28.5 50.667 28.5 84z" />
    <glyph glyph-name="ogonek" unicode="&#x2db;" horiz-adv-x="929" 
d="M473 86l168.001 -37l-61 -98c-33.333 -52.667 -50 -93 -50 -121c0 -40.667 24 -61 72 -61c21.333 0 50 4.66699 86 14v-152c-70.667 -31.333 -141 -47 -211 -47c-58.667 0 -104.334 14.167 -137.001 42.5s-49 69.5 -49 123.5c0 62.667 41 148.667 123 258z" />
    <glyph glyph-name="tilde" unicode="&#x2dc;" horiz-adv-x="929" 
d="M807 1405c-13.333 -102 -35.8311 -174.999 -67.498 -218.999s-74.167 -66 -127.5 -66c-24 0 -46 3.16699 -66 9.5s-46.333 16.833 -79 31.5c-42.667 18 -71.834 29.667 -87.501 35s-30.834 8 -45.501 8c-16 0 -29 -6.33301 -39 -19s-19 -36.334 -27 -71.001l-147 31
c14 103.333 37 177 69 221s74.333 66 127 66c39.333 0 88 -13.667 146 -41c64 -28.667 108.333 -43 133 -43c16 0 29 6.66699 39 20s19 37.333 27 72z" />
    <glyph glyph-name="hungarumlaut" unicode="&#x2dd;" horiz-adv-x="929" 
d="M877 1368l-275 -246h-192l100 234l-260 -234h-193l131 308l328 -62l27 62z" />
    <glyph glyph-name="Alphatonos" unicode="&#x386;" horiz-adv-x="1437" 
d="M27 0l508 1419h385l491 -1376l-354 -57l-105 307h-487l-94 -293h-344zM303 1413l-135 -385h-199l8 385h326zM709 1059l-160 -492h317z" />
    <glyph glyph-name="Epsilontonos" unicode="&#x388;" 
d="M59 1413l-135 -385h-198l8 385h325zM1028 0h-899v1413h881v-283h-537v-266h410l45 -280h-455v-299h555v-285z" />
    <glyph glyph-name="Etatonos" unicode="&#x389;" horiz-adv-x="1447" 
d="M1321 0h-352v573h-490v-573h-350v1413h350v-534h490v534h352v-1413zM59 1413l-135 -385h-198l8 385h325z" />
    <glyph glyph-name="Iotatonos" unicode="&#x38a;" horiz-adv-x="624" 
d="M487 0h-350v1413h350v-1413zM68 1413l-136 -385h-198l8 385h326z" />
    <glyph glyph-name="Omicrontonos" unicode="&#x38c;" horiz-adv-x="1505" 
d="M139 1413l-135 -385h-199l9 385h325zM1427 709c0 -144.667 -27.5 -272.501 -82.5 -383.501s-134 -197.5 -237 -259.5s-222.167 -93 -357.5 -93c-202 0 -364.5 67.333 -487.5 202s-184.5 311.334 -184.5 530.001c0 220 61.667 397.5 185 532.5s287 202.5 491 202.5
c134.667 0 253.167 -30.5 355.5 -91.5s180.833 -146.667 235.5 -257s82 -237.833 82 -382.5zM1075 706.999c0 142 -28.333 253.832 -85 335.499s-136 122.5 -238 122.5c-100.667 0 -179.834 -41 -237.501 -123s-86.5 -193.667 -86.5 -335s28.833 -253.166 86.5 -335.499
s136.834 -123.5 237.501 -123.5c101.333 0 180.5 41 237.5 123s85.5 194 85.5 336z" />
    <glyph glyph-name="Upsilontonos" unicode="&#x38e;" horiz-adv-x="1372" 
d="M1370 1413l-510 -893v-520h-350v516l-490 860l373 51l307 -585l297 571h373zM8 1413l-135 -385h-199l9 385h325z" />
    <glyph glyph-name="Omegatonos" unicode="&#x38f;" horiz-adv-x="1501" 
d="M117 272l215 -8.00098c-162.667 160 -244 340.333 -244 541c0 86.667 15.167 168.334 45.5 245.001s73.333 143.834 129 201.501s125.667 103.167 210 136.5s177.5 50 279.5 50c136.667 0 255.667 -28.5 357 -85.5s177.333 -132.833 228 -227.5s76 -201.334 76 -320.001
c0 -200 -82.667 -380.333 -248 -541l219 8v-272h-546l-27 246l72 80c62.667 72 109.667 143.667 141 215s47 153 47 245c0 111.333 -28 202.333 -84 273s-134.333 106 -235 106c-102 0 -181.167 -35.333 -237.5 -106s-84.5 -161.667 -84.5 -273
c0 -92 15.667 -173.667 47 -245s78.333 -143 141 -215l72 -80l-26 -246h-547v272zM127 1413l-135 -385h-199l8 385h326z" />
    <glyph glyph-name="iotadieresistonos" unicode="&#x390;" horiz-adv-x="608" 
d="M731 1122h-262v269h262v-269zM55 1122h-264v269h264v-269zM461 1481l-152 -361h-186l41 393zM102 1004h310v-695c0 -53.333 25 -80 75 -80c23.333 0 53.666 5.66699 90.999 17l-33 -236c-45.333 -14.667 -102.666 -22 -171.999 -22c-89.333 0 -156.833 22.667 -202.5 68
s-68.5 118 -68.5 218v730z" />
    <glyph glyph-name="Alpha" unicode="&#x391;" horiz-adv-x="1437" 
d="M27 0l508 1419h385l491 -1376l-354 -57l-105 307h-487l-94 -293h-344zM709 1059l-160 -492h317z" />
    <glyph glyph-name="Beta" unicode="&#x392;" horiz-adv-x="1214" 
d="M1143 408c0 -134 -47.333 -235.498 -142 -304.498s-227.667 -103.5 -399 -103.5h-473v1413h481c158.667 0 278.667 -31.833 360 -95.5s122 -153.834 122 -270.501c0 -138.667 -68.333 -238.334 -205 -299.001c170.667 -54 256 -167.333 256 -340zM778 1008
c0 102 -64 153 -192 153h-125v-319h117c64.667 0 114.167 14.667 148.5 44s51.5 70 51.5 122zM813 432.002c0 122.667 -75.667 184.001 -227 184.001h-125v-364h129c71.333 0 126.333 15.167 165 45.5s58 75.166 58 134.499z" />
    <glyph glyph-name="Gamma" unicode="&#x393;" horiz-adv-x="1024" 
d="M129 1413h807l49 -309h-506v-1104h-350v1413z" />
    <glyph glyph-name="uni0394" unicode="&#x394;" horiz-adv-x="1435" 
d="M66 256l458 1163h391l455 -1157l-33 -262h-1239zM705 1057l-293 -783h583z" />
    <glyph glyph-name="Epsilon" unicode="&#x395;" 
d="M1028 0h-899v1413h881v-283h-537v-266h410l45 -280h-455v-299h555v-285z" />
    <glyph glyph-name="Zeta" unicode="&#x396;" horiz-adv-x="1251" 
d="M1184 0h-1104v254l657 881h-587l-44 278h1059v-254l-657 -880h633z" />
    <glyph glyph-name="Eta" unicode="&#x397;" horiz-adv-x="1447" 
d="M1321 0h-352v573h-490v-573h-350v1413h350v-534h490v534h352v-1413z" />
    <glyph glyph-name="Theta" unicode="&#x398;" horiz-adv-x="1505" 
d="M983 573h-463v263h463v-263zM1090 707c0 146.667 -29.667 261.167 -89 343.5s-142.333 123.5 -249 123.5c-105.333 0 -188 -41.833 -248 -125.5s-90 -197.5 -90 -341.5c0 -147.333 29.833 -262 89.5 -344s142.5 -123 248.5 -123s188.833 41.667 248.5 125
s89.5 197.333 89.5 342zM1427 709c0 -144.667 -27.5 -272.501 -82.5 -383.501s-134 -197.5 -237 -259.5s-222.167 -93 -357.5 -93c-202 0 -364.5 67.333 -487.5 202s-184.5 311.334 -184.5 530.001c0 220 61.667 397.5 185 532.5s287 202.5 491 202.5
c134.667 0 253.167 -30.5 355.5 -91.5s180.833 -146.667 235.5 -257s82 -237.833 82 -382.5z" />
    <glyph glyph-name="Iota" unicode="&#x399;" horiz-adv-x="624" 
d="M487 0h-350v1413h350v-1413z" />
    <glyph glyph-name="Kappa" unicode="&#x39a;" horiz-adv-x="1331" 
d="M1333 43l-383 -57l-471 671v-657h-350v1413h350v-604l436 604h406l-508 -659z" />
    <glyph glyph-name="Lambda" unicode="&#x39b;" horiz-adv-x="1429" 
d="M27 0l505 1421h379l494 -1378l-375 -57l-328 993l-313 -979h-362z" />
    <glyph glyph-name="Mu" unicode="&#x39c;" horiz-adv-x="1824" 
d="M1737 0h-357l-61 946l-266 -948h-332l-266 948l-62 -946h-305l102 1413h453l275 -973l276 973h440z" />
    <glyph glyph-name="Nu" unicode="&#x39d;" horiz-adv-x="1443" 
d="M1315 0h-303l-557 846v-846h-326v1413h340l520 -790v790h326v-1413z" />
    <glyph glyph-name="Xi" unicode="&#x39e;" horiz-adv-x="1171" 
d="M1022 582h-854v286h807zM1085 1124h-997v289h997v-289zM1100 0h-1028v289h1028v-289z" />
    <glyph glyph-name="Omicron" unicode="&#x39f;" horiz-adv-x="1505" 
d="M1427 709c0 -144.667 -27.5 -272.501 -82.5 -383.501s-134 -197.5 -237 -259.5s-222.167 -93 -357.5 -93c-202 0 -364.5 67.333 -487.5 202s-184.5 311.334 -184.5 530.001c0 220 61.667 397.5 185 532.5s287 202.5 491 202.5c134.667 0 253.167 -30.5 355.5 -91.5
s180.833 -146.667 235.5 -257s82 -237.833 82 -382.5zM1075 706.999c0 142 -28.333 253.832 -85 335.499s-136 122.5 -238 122.5c-100.667 0 -179.834 -41 -237.501 -123s-86.5 -193.667 -86.5 -335s28.833 -253.166 86.5 -335.499s136.834 -123.5 237.501 -123.5
c101.333 0 180.5 41 237.5 123s85.5 194 85.5 336z" />
    <glyph glyph-name="Pi" unicode="&#x3a0;" horiz-adv-x="1435" 
d="M1311 0h-353v1116h-479v-1116h-350v1413h1182v-1413z" />
    <glyph glyph-name="Rho" unicode="&#x3a1;" horiz-adv-x="1181" 
d="M1139 952c0 -156 -51.167 -275.5 -153.5 -358.5s-241.166 -124.5 -416.499 -124.5h-90v-469h-350v1413h455c175.333 0 311.666 -39.167 408.999 -117.5s146 -192.833 146 -343.5zM799 946c0 135.333 -78.667 203 -236 203h-88v-416h82c161.333 0 242 71 242 213z" />
    <glyph glyph-name="Sigma" unicode="&#x3a3;" horiz-adv-x="1218" 
d="M479 727l-391 432v254h1057v-278h-602l364 -406l-399 -450h616l43 -279h-1097v254z" />
    <glyph glyph-name="Tau" unicode="&#x3a4;" horiz-adv-x="1247" 
d="M1219 1116h-416v-1116h-352v1116h-400v297h1118z" />
    <glyph glyph-name="Upsilon" unicode="&#x3a5;" horiz-adv-x="1372" 
d="M1370 1413l-510 -893v-520h-350v516l-490 860l373 51l307 -585l297 571h373z" />
    <glyph glyph-name="Phi" unicode="&#x3a6;" horiz-adv-x="1816" 
d="M1083 -23l-350 0.00292969v152c-214.667 13.333 -380.667 71.666 -498 174.999s-176 237.666 -176 402.999c0 164 58.833 298.167 176.5 402.5s283.5 162.5 497.5 174.5v152h350v-152c214 -12 379.833 -69.833 497.5 -173.5s176.5 -238.167 176.5 -403.5
c0 -164.667 -59.167 -298.834 -177.5 -402.501s-283.833 -162.167 -496.5 -175.5v-152zM1421 709.003c0 93.333 -28.833 168 -86.5 224s-144.167 88.333 -259.5 97v-645c112.667 8 198.5 40.5 257.5 97.5s88.5 132.5 88.5 226.5zM397 709.003
c0 -94.667 28.833 -170.332 86.5 -226.999s144.167 -89 259.5 -97v645c-114.667 -8.66699 -201 -41.334 -259 -98.001s-87 -131 -87 -223z" />
    <glyph glyph-name="Chi" unicode="&#x3a7;" horiz-adv-x="1353" 
d="M1327 45l-375 -59l-290 501l-279 -487h-358l444 719l-408 649l373 59l256 -448l242 434h362l-411 -668z" />
    <glyph glyph-name="Psi" unicode="&#x3a8;" horiz-adv-x="1689" 
d="M1020 0l-350 -0.000976562v358c-188.667 6.66699 -331.5 54 -428.5 142s-145.5 212.667 -145.5 374v539h344v-522c0 -158 78.667 -238 236 -240v762h338v-762c78.667 1.33301 137.5 21.333 176.5 60s58.5 98 58.5 178v524h344v-532c0 -164.667 -49 -291.167 -147 -379.5
s-240 -136.166 -426 -143.499v-358z" />
    <glyph glyph-name="uni03A9" unicode="&#x3a9;" horiz-adv-x="1501" 
d="M117 272l215 -8.00098c-162.667 160 -244 340.333 -244 541c0 86.667 15.167 168.334 45.5 245.001s73.333 143.834 129 201.501s125.667 103.167 210 136.5s177.5 50 279.5 50c136.667 0 255.667 -28.5 357 -85.5s177.333 -132.833 228 -227.5s76 -201.334 76 -320.001
c0 -200 -82.667 -380.333 -248 -541l219 8v-272h-546l-27 246l72 80c62.667 72 109.667 143.667 141 215s47 153 47 245c0 111.333 -28 202.333 -84 273s-134.333 106 -235 106c-102 0 -181.167 -35.333 -237.5 -106s-84.5 -161.667 -84.5 -273
c0 -92 15.667 -173.667 47 -245s78.333 -143 141 -215l72 -80l-26 -246h-547v272z" />
    <glyph glyph-name="Iotadieresis" unicode="&#x3aa;" horiz-adv-x="624" 
d="M487 0h-350v1413h350v-1413zM649 1520h-266v268h266v-268zM244 1520h-267v268h267v-268z" />
    <glyph glyph-name="Upsilondieresis" unicode="&#x3ab;" horiz-adv-x="1372" 
d="M1370 1413l-510 -893v-520h-350v516l-490 860l373 51l307 -585l297 571h373zM1036 1513h-266v269h266v-269zM631 1513h-266v269h266v-269z" />
    <glyph glyph-name="alphatonos" unicode="&#x3ac;" horiz-adv-x="1294" 
d="M483 1024c91.333 0 164.334 -20.168 219.001 -60.501s101.334 -105.5 140.001 -195.5l90 236h303l-215 -533l57 -156c12 -31.333 25.167 -53.5 39.5 -66.5s33.5 -19.5 57.5 -19.5c20 0 48.667 5.66699 86 17l-33 -236c-38.667 -14.667 -80.334 -22 -125.001 -22
c-76 0 -135.667 17.333 -179 52s-80 92.334 -110 173.001c-40.667 -82.667 -87.834 -142.167 -141.501 -178.5s-121.167 -54.5 -202.5 -54.5c-126 0 -225.833 48.333 -299.5 145s-110.5 221 -110.5 373c0 156.667 39 283.5 117 380.5s180.333 145.5 307 145.5z
M504.001 228.999c40.667 0 76.3311 19.1689 106.998 57.502s63.334 105.833 98.001 202.5c-34 108 -65 182.167 -93 222.5s-62.667 60.5 -104 60.5c-45.333 0 -82.666 -24.333 -111.999 -73s-44 -114.334 -44 -197.001c0 -84.667 13.667 -151.334 41 -200.001
s63 -73 107 -73zM927.998 1393l-217 -273h-193l53 307z" />
    <glyph glyph-name="epsilontonos" unicode="&#x3ad;" horiz-adv-x="995" 
d="M90 727c0 88.667 37.333 160 112 214s184.667 81 330 81c132.667 0 260.334 -24.667 383.001 -74l-36 -235c-128.667 47.333 -243.334 71 -344.001 71c-100 0 -150 -28 -150 -84c0 -57.333 50 -86 150 -86h213l34 -208h-262c-50 0 -87.333 -8.5 -112 -25.5
s-37 -39.5 -37 -67.5c0 -30.667 12.167 -54 36.5 -70s64.5 -24 120.5 -24c108 0 231 28.667 369 86l39 -235c-135.333 -60 -278 -90 -428 -90c-145.333 0 -254.333 25.833 -327 77.5s-109 122.5 -109 212.5c0 106.667 52.333 184.667 157 234
c-92.667 44 -139 118.333 -139 223zM809 1393l-217 -273h-193l54 307z" />
    <glyph glyph-name="etatonos" unicode="&#x3ae;" horiz-adv-x="1099" 
d="M860 1393l-217 -273h-192l53 307zM106 1004h273l22 -138c50.667 50.667 100.834 89.667 150.501 117s104.167 41 163.5 41c92 0 162.333 -27 211 -81s73 -130.667 73 -230v-1045l-311 -49v1010c0 80.667 -34 121 -102 121c-52.667 0 -109.334 -30.333 -170.001 -91v-659
h-310v1004z" />
    <glyph glyph-name="iotatonos" unicode="&#x3af;" horiz-adv-x="608" 
d="M565 1393l-217 -273h-192l53 307zM102 1004h310v-695c0 -53.333 25 -80 75 -80c23.333 0 53.666 5.66699 90.999 17l-33 -236c-45.333 -14.667 -102.666 -22 -171.999 -22c-89.333 0 -156.833 22.667 -202.5 68s-68.5 118 -68.5 218v730z" />
    <glyph glyph-name="upsilondieresistonos" unicode="&#x3b0;" horiz-adv-x="1089" 
d="M1016 1122h-262v269h262v-269zM340 1122h-264v269h264v-269zM745 1481l-151 -361h-186l41 393zM993 381c0 -128 -39.499 -226.833 -118.499 -296.5s-189.5 -104.5 -331.5 -104.5c-142.667 0 -252.834 34.667 -330.501 104s-116.5 168.333 -116.5 297v623h312v-607
c0 -106 45.667 -159 137 -159s137 53 137 159v607h311v-623z" />
    <glyph glyph-name="alpha" unicode="&#x3b1;" horiz-adv-x="1294" 
d="M483 1024c91.333 0 164.334 -20.168 219.001 -60.501s101.334 -105.5 140.001 -195.5l90 236h303l-215 -533l57 -156c12 -31.333 25.167 -53.5 39.5 -66.5s33.5 -19.5 57.5 -19.5c20 0 48.667 5.66699 86 17l-33 -236c-38.667 -14.667 -80.334 -22 -125.001 -22
c-76 0 -135.667 17.333 -179 52s-80 92.334 -110 173.001c-40.667 -82.667 -87.834 -142.167 -141.501 -178.5s-121.167 -54.5 -202.5 -54.5c-126 0 -225.833 48.333 -299.5 145s-110.5 221 -110.5 373c0 156.667 39 283.5 117 380.5s180.333 145.5 307 145.5z
M504.001 228.999c40.667 0 76.3311 19.1689 106.998 57.502s63.334 105.833 98.001 202.5c-34 108 -65 182.167 -93 222.5s-62.667 60.5 -104 60.5c-45.333 0 -82.666 -24.333 -111.999 -73s-44 -114.334 -44 -197.001c0 -84.667 13.667 -151.334 41 -200.001
s63 -73 107 -73z" />
    <glyph glyph-name="beta" unicode="&#x3b2;" horiz-adv-x="1167" 
d="M686 -18c-94 0 -184.666 22.333 -271.999 67v-383l-308 -47v1339c0 158 44.167 282.5 132.5 373.5s210.166 136.5 365.499 136.5c136 0 243.333 -35.667 322 -107s118 -163.333 118 -276c0 -160.667 -77.667 -274.667 -233 -342c199.333 -54.667 299 -174.667 299 -360
c0 -118.667 -39 -215.167 -117 -289.5s-180.333 -111.5 -307 -111.5zM414.001 965l0.000976562 -670.001c69.333 -39.333 140.333 -59 213 -59c57.333 0 102.666 14.333 135.999 43s50 68 50 118c0 57.333 -21 104.666 -63 141.999s-109 66 -201 86l-25 180
c82.667 38 141.667 77.333 177 118s53 87.334 53 140.001c0 44 -13.5 80.667 -40.5 110s-64.167 44 -111.5 44c-58.667 0 -104.667 -23.167 -138 -69.5s-50 -107.166 -50 -182.499z" />
    <glyph glyph-name="gamma" unicode="&#x3b3;" horiz-adv-x="1079" 
d="M381 -381l0.000976562 143.001c0 119.333 -9 229 -27 329s-45.5 200.333 -82.5 301s-91.167 227.334 -162.5 380.001l-99 207l340 39l66 -162c75.333 -184.667 123.666 -364.334 144.999 -539.001c12.667 97.333 30.167 185.666 52.5 264.999s53.5 170.666 93.5 273.999
l59 148h307l-108 -230c-104.667 -226.667 -176.667 -410.167 -216 -550.5s-59 -294.166 -59 -461.499v-96z" />
    <glyph glyph-name="delta" unicode="&#x3b4;" 
d="M156 1202l-0.000976562 260h788l-39 -245l-409 4l223 -191c112.667 -94 194 -183.333 244 -268s75 -181.667 75 -291c0 -141.333 -45 -258.5 -135 -351.5s-210 -139.5 -360 -139.5c-150.667 0 -269 45.167 -355 135.5s-129 204.833 -129 343.5c0 114 28.333 212 85 294
s140.334 154.667 251.001 218zM740.999 471c0 55.333 -12.999 108.832 -38.999 160.499s-72.333 110.834 -139 177.501c-138 -98.667 -207 -212 -207 -340c0 -72.667 17.167 -131.167 51.5 -175.5s80.166 -66.5 137.499 -66.5c58.667 0 106 22.5 142 67.5
s54 103.833 54 176.5z" />
    <glyph glyph-name="epsilon" unicode="&#x3b5;" horiz-adv-x="995" 
d="M90 727c0 88.667 37.333 160 112 214s184.667 81 330 81c132.667 0 260.334 -24.667 383.001 -74l-36 -235c-128.667 47.333 -243.334 71 -344.001 71c-100 0 -150 -28 -150 -84c0 -57.333 50 -86 150 -86h213l34 -208h-262c-50 0 -87.333 -8.5 -112 -25.5
s-37 -39.5 -37 -67.5c0 -30.667 12.167 -54 36.5 -70s64.5 -24 120.5 -24c108 0 231 28.667 369 86l39 -235c-135.333 -60 -278 -90 -428 -90c-145.333 0 -254.333 25.833 -327 77.5s-109 122.5 -109 212.5c0 106.667 52.333 184.667 157 234
c-92.667 44 -139 118.333 -139 223z" />
    <glyph glyph-name="zeta" unicode="&#x3b6;" horiz-adv-x="944" 
d="M899 -4c0 -47.333 -12.5 -100.171 -37.5 -158.504s-65.167 -131.166 -120.5 -218.499l-266 33c42.667 84 70.5 142 83.5 174s19.5 56.667 19.5 74c0 21.333 -8.33301 39.333 -25 54s-53 30.667 -109 48c-142 40.667 -241.667 88.334 -299 143.001
s-86 133.334 -86 236.001c0 74.667 18.5 149 55.5 223s103.167 167.667 198.5 281l277 332h-473l39 245h755v-235l-387 -506c-60 -78 -100.833 -137 -122.5 -177s-32.5 -78 -32.5 -114c0 -45.333 15 -80.5 45 -105.5s86.667 -49.833 170 -74.5
c88 -26 154.333 -50.833 199 -74.5s75.167 -48.667 91.5 -75s24.5 -61.166 24.5 -104.499z" />
    <glyph glyph-name="eta" unicode="&#x3b7;" horiz-adv-x="1099" 
d="M106 1004h273l22 -138c50.667 50.667 100.834 89.667 150.501 117s104.167 41 163.5 41c92 0 162.333 -27 211 -81s73 -130.667 73 -230v-1045l-311 -49v1010c0 80.667 -34 121 -102 121c-52.667 0 -109.334 -30.333 -170.001 -91v-659h-310v1004z" />
    <glyph glyph-name="theta" unicode="&#x3b8;" horiz-adv-x="1222" 
d="M614 1468c166 0 296 -65.333 390 -196s141 -313.667 141 -549c0 -234 -47.5 -416.333 -142.5 -547s-225.833 -196 -392.5 -196c-166 0 -296.167 65.333 -390.5 196s-141.5 313 -141.5 547c0 235.333 47.5 418.333 142.5 549s226.167 196 393.5 196zM612 223
c71.333 0 127.5 32.667 168.5 98s65.5 159 73.5 281h-487c8 -120.667 33 -214 75 -280s98.667 -99 170 -99zM612 1223c-70 0 -125.668 -32 -167.001 -96s-66.666 -154.333 -75.999 -271h485c-8 116.667 -32.667 207 -74 271s-97.333 96 -168 96z" />
    <glyph glyph-name="iota" unicode="&#x3b9;" horiz-adv-x="608" 
d="M102 1004h310v-695c0 -53.333 25 -80 75 -80c23.333 0 53.666 5.66699 90.999 17l-33 -236c-45.333 -14.667 -102.666 -22 -171.999 -22c-89.333 0 -156.833 22.667 -202.5 68s-68.5 118 -68.5 218v730z" />
    <glyph glyph-name="kappa" unicode="&#x3ba;" horiz-adv-x="1054" 
d="M963 1016l44.998 -268c-55.333 -4 -99.166 -15.167 -131.499 -33.5s-65.166 -50.5 -98.499 -96.5l-71 -98l325 -489l-325 -45l-291 473v-459h-310v1004h310v-437l133 217c36.667 58.667 72 104.167 106 136.5s75.667 56.5 125 72.5s110.333 23.667 183 23z" />
    <glyph glyph-name="lambda" unicode="&#x3bb;" horiz-adv-x="1062" 
d="M1042 25l-326.998 -39l-185 643l-192 -629h-307l358 1001l-18 64c-14.667 54 -35 92 -61 114s-59 33 -99 33c-36.667 0 -72.334 -4.66699 -107.001 -14l46 250c37.333 12 86.333 18 147 18c99.333 0 175.166 -21.167 227.499 -63.5s96.5 -117.833 132.5 -226.5z" />
    <glyph glyph-name="uni03BC" unicode="&#x3bc;" horiz-adv-x="1163" 
d="M106 -381v1385h310v-633c0 -79.333 34.667 -119 104 -119c54 0 110 30 168 90v662h311v-707c0 -45.333 21.333 -68 64 -68c20.667 0 42.334 5 65.001 15l-32 -234c-45.333 -14.667 -95.333 -22 -150 -22c-121.333 0 -199 46.333 -233 139
c-34 -40.667 -73.667 -73.334 -119 -98.001s-91 -37 -137 -37c-30.667 0 -59.334 5.33301 -86.001 16c24.667 -66 37 -150.667 37 -254v-88z" />
    <glyph glyph-name="nu" unicode="&#x3bd;" horiz-adv-x="1062" 
d="M690 1004l313.999 -0.000976562v-84c0 -175.333 -26.667 -336.666 -80 -483.999s-130.666 -294 -231.999 -440h-317l-359 983l330 39l211 -688c47.333 85.333 81.333 173.333 102 264s31 197.667 31 321v89z" />
    <glyph glyph-name="xi" unicode="&#x3be;" horiz-adv-x="974" 
d="M59 369c0 86.667 25.667 160.667 77 222s120.666 107.333 207.999 138c-129.333 46 -194 125.333 -194 238c0 102 54.333 185.333 163 250h-225l39 245h795v-239h-136c-113.333 -0.666992 -198.333 -19.667 -255 -57s-85 -86 -85 -146c0 -53.333 23 -95 69 -125
s110 -45 192 -45h129l36 -238h-184c-107.333 0 -189.5 -18 -246.5 -54s-85.5 -80 -85.5 -132c0 -40 16.833 -72.667 50.5 -98s97.5 -52.666 191.5 -81.999c132 -41.333 220.333 -79.5 265 -114.5s67 -84.167 67 -147.5c0 -46 -11.667 -97.167 -35 -153.5
s-61.666 -126.833 -114.999 -211.5l-266 33c42 82 69.5 139.167 82.5 171.5s19.5 56.5 19.5 72.5c0 21.333 -9.33301 38.666 -28 51.999s-59.667 30 -123 50c-150 46 -255.167 96.5 -315.5 151.5s-90.5 128.167 -90.5 219.5z" />
    <glyph glyph-name="omicron" unicode="&#x3bf;" horiz-adv-x="1079" 
d="M1022 502c0 -158.667 -45.332 -285.332 -135.999 -379.999s-207 -142 -349 -142c-140.667 0 -255.834 47.167 -345.501 141.5s-134.5 220.5 -134.5 378.5c0 158.667 45.167 285.667 135.5 381s205.833 143 346.5 143c142 0 258 -47.333 348 -142
s135 -221.334 135 -380.001zM723.001 500.002c0 82.667 -15.998 148.667 -47.998 198s-77.333 74 -136 74s-103.834 -24.167 -135.501 -72.5s-47.5 -114.166 -47.5 -197.499c0 -82.667 16.167 -148.834 48.5 -198.501s77.166 -74.5 134.499 -74.5
c58.667 0 104 24.5 136 73.5s48 114.833 48 197.5z" />
    <glyph glyph-name="pi" unicode="&#x3c0;" horiz-adv-x="1280" 
d="M1217 752h-162.001v-447c0 -28 6.33301 -48.333 19 -61s32.334 -19 59.001 -19c20.667 0 50.667 5.66699 90 17l-33 -232c-47.333 -14.667 -105.333 -22 -174 -22c-88.667 0 -155.5 22.667 -200.5 68s-67.5 118 -67.5 218v482h-238v-756h-309v752h-144l-39 252h1199v-252
z" />
    <glyph glyph-name="rho" unicode="&#x3c1;" horiz-adv-x="1095" 
d="M1036 508c0 -86.667 -11.002 -163.5 -33.002 -230.5s-52.333 -121.167 -91 -162.5s-83.167 -72.5 -133.5 -93.5s-105.166 -31.5 -164.499 -31.5c-65.333 0 -135.666 12.333 -210.999 37v-361l-309 -47v905c0 152 43.167 273.333 129.5 364s201.5 136 345.5 136
c138.667 0 251.167 -46 337.5 -138s129.5 -218 129.5 -378zM726.998 506c0 82.667 -14.332 144.998 -42.999 186.998s-68.334 63 -119.001 63c-49.333 0 -88.666 -19.167 -117.999 -57.5s-44 -95.166 -44 -170.499v-262c41.333 -22 88.666 -33 141.999 -33
c55.333 0 99.5 22.333 132.5 67s49.5 113.334 49.5 206.001z" />
    <glyph glyph-name="sigma1" unicode="&#x3c2;" horiz-adv-x="917" 
d="M57 500c0 156 44.8301 281.669 134.497 377.002s208.834 143 357.501 143c114.667 0 216.334 -25.333 305.001 -76l-41 -264c-77.333 49.333 -153.666 74 -228.999 74c-63.333 0 -114.666 -22.667 -153.999 -68s-59 -102.666 -59 -171.999
c0 -66.667 14.667 -118.834 44 -156.501s85 -74.834 167 -111.501c106.667 -47.333 176.667 -86.833 210 -118.5s50 -73.5 50 -125.5c0 -48.667 -12 -101.334 -36 -158.001s-64.667 -131.667 -122 -225l-266 33c44.667 83.333 74.5 143.166 89.5 179.499
s22.5 63.833 22.5 82.5c0 20 -6.66699 36.833 -20 50.5s-38 27.5 -74 41.5c-94.667 39.333 -168.334 79.333 -221.001 120s-92.167 90.834 -118.5 150.501s-39.5 134.167 -39.5 223.5z" />
    <glyph glyph-name="sigma" unicode="&#x3c3;" horiz-adv-x="1163" 
d="M1126 752l-198.001 -0.000976562c60 -103.333 90 -207.333 90 -312c0 -134.667 -43.667 -245 -131 -331s-205.666 -129 -354.999 -129c-146.667 0 -262.5 46.333 -347.5 139s-127.5 215.334 -127.5 368.001c0 156.667 49.833 282 149.5 376s240.5 141 422.5 141h456z
M716.999 476.999c0 98 -24.667 192.333 -74 283h-31c-78.667 0 -141 -25.5 -187 -76.5s-69 -117.833 -69 -200.5c0 -77.333 15.833 -139.333 47.5 -186s74.5 -70 128.5 -70c57.333 0 102.5 22.5 135.5 67.5s49.5 105.833 49.5 182.5z" />
    <glyph glyph-name="tau" unicode="&#x3c4;" horiz-adv-x="991" 
d="M909 29c-78.667 -28.667 -162 -43.001 -250 -43.001c-111.333 0 -195.833 27.333 -253.5 82s-86.5 141.334 -86.5 260.001v424h-278v252h862l37 -252h-313v-402c0 -83.333 39.333 -125 118 -125c34.667 0 77.667 8.33301 129 25z" />
    <glyph glyph-name="upsilon" unicode="&#x3c5;" horiz-adv-x="1089" 
d="M993 381c0 -128 -39.499 -226.833 -118.499 -296.5s-189.5 -104.5 -331.5 -104.5c-142.667 0 -252.834 34.667 -330.501 104s-116.5 168.333 -116.5 297v623h312v-607c0 -106 45.667 -159 137 -159s137 53 137 159v607h311v-623z" />
    <glyph glyph-name="phi" unicode="&#x3c6;" horiz-adv-x="1529" 
d="M1477 502c0 -146 -48 -264.499 -144 -355.499s-233.667 -143.167 -413 -156.5v-324l-310 -47v371c-182 13.333 -320.333 65 -415 155s-142 208.333 -142 355c0 146 47.667 264.667 143 356s233.333 144 414 158v416l310 49v-465
c180.667 -13.333 318.667 -65.333 414 -156s143 -209.334 143 -356.001zM348 502.001c0 -78 23 -140.166 69 -186.499s112.333 -73.833 199 -82.5v533c-87.333 -8 -153.833 -34.833 -199.5 -80.5s-68.5 -106.834 -68.5 -183.501zM1182 500.002
c0 76.667 -23.333 137.834 -70 183.501s-113 73.167 -199 82.5v-533c87.333 9.33301 154 36.666 200 81.999s69 107 69 185z" />
    <glyph glyph-name="chi" unicode="&#x3c7;" horiz-adv-x="1071" 
d="M1042 1004l-337 -639l370 -707l-321 -39l-234 481l-229 -467h-295l373 699l-340 647l323 39l201 -416l195 402h294z" />
    <glyph glyph-name="psi" unicode="&#x3c8;" horiz-adv-x="1525" 
d="M920 -332l-308 -49v371c-174.667 6 -305 49.167 -391 129.5s-129 201.5 -129 363.5v521h305v-525c0 -150 73 -229 219 -237v1190l299 47v-1237c148 8 222 87 222 237v525h303v-521c0 -161.333 -43.333 -282.333 -130 -363s-216.667 -124 -390 -130v-322z" />
    <glyph glyph-name="omega" unicode="&#x3c9;" horiz-adv-x="1617" 
d="M664 819h290.002v-280c0 -94 13.667 -167.333 41 -220s65 -79 113 -79c41.333 0 74.166 20.333 98.499 61s36.5 97.334 36.5 170.001c0 73.333 -13.333 147.166 -40 221.499s-73.334 165.166 -140.001 272.499l301 59c67.333 -109.333 115.166 -205.333 143.499 -288
s42.5 -171.667 42.5 -267c0 -149.333 -36.167 -268.166 -108.5 -356.499s-171.166 -132.5 -296.499 -132.5c-77.333 0 -143 16.833 -197 50.5s-101 84.834 -141 153.501c-78 -136 -191.333 -204 -340 -204c-122.667 0 -219.834 44.167 -291.501 132.5
s-107.5 207.166 -107.5 356.499c0 94.667 14.333 183.167 43 265.5s76.334 178.833 143.001 289.5l299 -59c-64.667 -102.667 -110.5 -191.5 -137.5 -266.5s-40.5 -150.833 -40.5 -227.5c0 -74 12 -131 36 -171s57 -60 99 -60c48 0 85.667 26.333 113 79s41 126 41 220v280z
" />
    <glyph glyph-name="iotadieresis" unicode="&#x3ca;" horiz-adv-x="608" 
d="M598 1122h-266v269h266v-269zM193 1122h-267v269h267v-269zM102 1004h310v-695c0 -53.333 25 -80 75 -80c23.333 0 53.666 5.66699 90.999 17l-33 -236c-45.333 -14.667 -102.666 -22 -171.999 -22c-89.333 0 -156.833 22.667 -202.5 68s-68.5 118 -68.5 218v730z" />
    <glyph glyph-name="upsilondieresis" unicode="&#x3cb;" horiz-adv-x="1089" 
d="M879 1122h-267v269h267v-269zM473 1122h-266v269h266v-269zM993 381c0 -128 -39.499 -226.833 -118.499 -296.5s-189.5 -104.5 -331.5 -104.5c-142.667 0 -252.834 34.667 -330.501 104s-116.5 168.333 -116.5 297v623h312v-607c0 -106 45.667 -159 137 -159
s137 53 137 159v607h311v-623z" />
    <glyph glyph-name="omicrontonos" unicode="&#x3cc;" horiz-adv-x="1079" 
d="M842 1393l-217 -273h-193l53 307zM1022 502c0 -158.667 -45.332 -285.332 -135.999 -379.999s-207 -142 -349 -142c-140.667 0 -255.834 47.167 -345.501 141.5s-134.5 220.5 -134.5 378.5c0 158.667 45.167 285.667 135.5 381s205.833 143 346.5 143
c142 0 258 -47.333 348 -142s135 -221.334 135 -380.001zM723.001 500.002c0 82.667 -15.998 148.667 -47.998 198s-77.333 74 -136 74s-103.834 -24.167 -135.501 -72.5s-47.5 -114.166 -47.5 -197.499c0 -82.667 16.167 -148.834 48.5 -198.501
s77.166 -74.5 134.499 -74.5c58.667 0 104 24.5 136 73.5s48 114.833 48 197.5z" />
    <glyph glyph-name="upsilontonos" unicode="&#x3cd;" horiz-adv-x="1089" 
d="M848 1393l-217 -273h-193l54 307zM993 381c0 -128 -39.499 -226.833 -118.499 -296.5s-189.5 -104.5 -331.5 -104.5c-142.667 0 -252.834 34.667 -330.501 104s-116.5 168.333 -116.5 297v623h312v-607c0 -106 45.667 -159 137 -159s137 53 137 159v607h311v-623z" />
    <glyph glyph-name="omegatonos" unicode="&#x3ce;" horiz-adv-x="1617" 
d="M664 819h290.002v-280c0 -94 13.667 -167.333 41 -220s65 -79 113 -79c41.333 0 74.166 20.333 98.499 61s36.5 97.334 36.5 170.001c0 73.333 -13.333 147.166 -40 221.499s-73.334 165.166 -140.001 272.499l301 59c67.333 -109.333 115.166 -205.333 143.499 -288
s42.5 -171.667 42.5 -267c0 -149.333 -36.167 -268.166 -108.5 -356.499s-171.166 -132.5 -296.499 -132.5c-77.333 0 -143 16.833 -197 50.5s-101 84.834 -141 153.501c-78 -136 -191.333 -204 -340 -204c-122.667 0 -219.834 44.167 -291.501 132.5
s-107.5 207.166 -107.5 356.499c0 94.667 14.333 183.167 43 265.5s76.334 178.833 143.001 289.5l299 -59c-64.667 -102.667 -110.5 -191.5 -137.5 -266.5s-40.5 -150.833 -40.5 -227.5c0 -74 12 -131 36 -171s57 -60 99 -60c48 0 85.667 26.333 113 79s41 126 41 220v280z
M1110 1378l-217 -272h-193l54 307z" />
    <glyph glyph-name="uni0400" unicode="&#x400;" 
d="M1028 0h-899v1413h881v-283h-537v-266h410l45 -280h-455v-299h555v-285zM705 1518h-205l-299 247l379 62z" />
    <glyph glyph-name="uni0401" unicode="&#x401;" 
d="M911 1520h-266v268h266v-268zM506 1520h-266v268h266v-268zM1028 0h-899v1413h881v-283h-537v-266h410l45 -280h-455v-299h555v-285z" />
    <glyph glyph-name="uni0402" unicode="&#x402;" horiz-adv-x="1579" 
d="M1212 1116h-416.999v-266c80 13.333 155 20 225 20c162.667 0 288 -37.667 376 -113s132 -185 132 -329c0 -138 -44 -245.167 -132 -321.5s-208 -115.166 -360 -116.499c-31.333 0 -62 3.33301 -92 10l8 258c14 -4 27 -6 39 -6
c62.667 0.666992 112.167 16.167 148.5 46.5s54.5 70.166 54.5 119.499c0 110.667 -72.333 166 -217 166c-58.667 0 -119.334 -7.66699 -182.001 -23v-561h-351v1116h-389v297h1108z" />
    <glyph glyph-name="uni0403" unicode="&#x403;" horiz-adv-x="1024" 
d="M889 1765l-301 -247h-197l123 309zM129 1413h807l49 -309h-506v-1104h-350v1413z" />
    <glyph glyph-name="uni0404" unicode="&#x404;" horiz-adv-x="1277" 
d="M1208 94c-134 -79.333 -280 -119 -438 -119c-216 0 -385.333 64.833 -508 194.5s-184 308.167 -184 535.5c0 222.667 62.833 400.5 188.5 533.5s296.167 199.5 511.5 199.5c152 0 288.667 -35 410 -105l-49 -299c-114 76.667 -228.667 115 -344 115
c-101.333 0 -182.5 -25 -243.5 -75s-100.833 -124 -119.5 -222l539 6l43 -280l-586 4c16 -106 55.833 -185.5 119.5 -238.5s146.167 -79.5 247.5 -79.5c116 0 238 39 366 117z" />
    <glyph glyph-name="uni0405" unicode="&#x405;" horiz-adv-x="1132" 
d="M1071 426c0 -74.667 -13.0029 -140.662 -39.0029 -197.995s-62.333 -103.5 -109 -138.5s-100 -61.333 -160 -79s-126 -26.5 -198 -26.5c-175.333 0 -339.666 35.333 -492.999 106l51 299c162.667 -87.333 312 -131 448 -131c51.333 0 92.5 11 123.5 33
s46.5 53.333 46.5 94s-15.333 73.667 -46 99s-95 56.666 -193 93.999c-75.333 29.333 -136.666 56.666 -183.999 81.999s-88.666 54.666 -123.999 87.999s-60.5 71.166 -75.5 113.499s-22.5 92.5 -22.5 150.5c0 88 21.833 164 65.5 228s101.5 111.667 173.5 143
s153.667 47 245 47c86.667 0 162.667 -7.83301 228 -23.5s131.333 -39.5 198 -71.5l-54 -295c-131.333 76.667 -254 115 -368 115c-51.333 0 -90.5 -10 -117.5 -30s-40.5 -47 -40.5 -81c0 -36.667 14 -66.334 42 -89.001s85.667 -51 173 -85c158.667 -58 270 -119 334 -183
s96 -151 96 -261z" />
    <glyph glyph-name="uni0406" unicode="&#x406;" horiz-adv-x="624" 
d="M487 0h-350v1413h350v-1413z" />
    <glyph glyph-name="uni0407" unicode="&#x407;" horiz-adv-x="624" 
d="M487 0h-350v1413h350v-1413zM649 1520h-266v268h266v-268zM244 1520h-267v268h267v-268z" />
    <glyph glyph-name="uni0408" unicode="&#x408;" horiz-adv-x="870" 
d="M754 430c0 -78.667 -11.832 -147.001 -35.499 -205.001s-57.167 -104.167 -100.5 -138.5s-93 -59.666 -149 -75.999s-118.667 -24.5 -188 -24.5c-85.333 0 -150.333 6 -195 18l-47 295c57.333 -15.333 112.666 -23 165.999 -23c64.667 0 113.5 15.833 146.5 47.5
s49.5 85.5 49.5 161.5v928h353v-983z" />
    <glyph glyph-name="uni0409" unicode="&#x409;" horiz-adv-x="2045" 
d="M2003 483c0 -156 -51.498 -275.499 -154.498 -358.499s-243.5 -124.5 -421.5 -124.5h-436v1118h-260l-49 -393c-16.667 -136 -38.334 -247.833 -65.001 -335.5s-63.834 -161.334 -111.501 -221.001s-105 -104 -172 -133s-151.5 -49.833 -253.5 -62.5l-47 297
c104 19.333 176.667 64 218 134s73 194.667 95 374l78 635h917v-463h117c170 0 303.333 -39.833 400 -119.5s145 -195.5 145 -347.5zM1665 479.001c0 138 -81.334 207 -244.001 207h-84v-422h82c78.667 0 139.334 18 182.001 54s64 89.667 64 161z" />
    <glyph glyph-name="uni040A" unicode="&#x40a;" horiz-adv-x="2011" 
d="M1968 483c0 -156 -51.333 -275.5 -154 -358.5s-243 -124.5 -421 -124.5h-439v573h-475v-573h-350v1413h350v-534h475v534h351v-463h118c170 0 303.333 -39.833 400 -119.5s145 -195.5 145 -347.5zM1628 479c0 138 -80.667 207 -242 207h-83v-422h81
c78 0 138.167 18 180.5 54s63.5 89.667 63.5 161z" />
    <glyph glyph-name="uni040B" unicode="&#x40b;" horiz-adv-x="1630" 
d="M1212 1116h-417.001v-270c90 14.667 171.667 22 245 22c164.667 0 287.834 -35.833 369.501 -107.5s122.5 -185.167 122.5 -340.5v-420h-352v387c0 64 -16.167 110 -48.5 138s-81.833 42 -148.5 42c-53.333 0 -116 -6 -188 -18v-549h-351v1116h-389v297h1108z" />
    <glyph glyph-name="uni040C" unicode="&#x40c;" horiz-adv-x="1331" 
d="M1065 1759l-301 -248h-197l123 310zM1333 43l-383 -57l-471 671v-657h-350v1413h350v-604l436 604h406l-508 -659z" />
    <glyph glyph-name="uni040D" unicode="&#x40d;" horiz-adv-x="1458" 
d="M856 1511h-205l-299 248l379 62zM451 0h-322v1413h344v-835l506 835h350v-1413h-342v879z" />
    <glyph glyph-name="uni040E" unicode="&#x40e;" horiz-adv-x="1372" 
d="M1368 1413l-526.001 -1124c-52 -112 -112.167 -192.333 -180.5 -241s-154.5 -73 -258.5 -73c-71.333 0 -136.666 7 -195.999 21l-45 295c66 -15.333 120 -23 162 -23c53.333 0 96.333 10.667 129 32s60 59.333 82 114l-492 958l383 55l303 -671l275 657h364zM1053 1788
c-14 -88.667 -48.334 -157.334 -103.001 -206.001s-129 -73 -223 -73c-93.333 0 -167.166 24.333 -221.499 73s-88.5 117.334 -102.5 206.001l170 27c15.333 -41.333 34.833 -70.833 58.5 -88.5s55.5 -26.5 95.5 -26.5s71.833 8.83301 95.5 26.5s43.167 47.167 58.5 88.5z
" />
    <glyph glyph-name="uni040F" unicode="&#x40f;" horiz-adv-x="1437" 
d="M887 -293l-336 -39v332h-422v1413h350v-1116h479v1116h353v-1413h-424v-293z" />
    <glyph glyph-name="uni0410" unicode="&#x410;" horiz-adv-x="1437" 
d="M27 0l508 1419h385l491 -1376l-354 -57l-105 307h-487l-94 -293h-344zM709 1059l-160 -492h317z" />
    <glyph glyph-name="uni0411" unicode="&#x411;" horiz-adv-x="1200" 
d="M1139 446c0 -145.333 -48.167 -256 -144.5 -332s-233.833 -114 -412.5 -114h-453v1413h872l50 -293h-584v-243h131c180 0 315.167 -37.833 405.5 -113.5s135.5 -181.5 135.5 -317.5zM803 440c0 116 -74.333 174 -223 174h-115v-360h110c152 0 228 62 228 186z" />
    <glyph glyph-name="uni0412" unicode="&#x412;" horiz-adv-x="1214" 
d="M1143 408c0 -134 -47.333 -235.498 -142 -304.498s-227.667 -103.5 -399 -103.5h-473v1413h481c158.667 0 278.667 -31.833 360 -95.5s122 -153.834 122 -270.501c0 -138.667 -68.333 -238.334 -205 -299.001c170.667 -54 256 -167.333 256 -340zM778 1008
c0 102 -64 153 -192 153h-125v-319h117c64.667 0 114.167 14.667 148.5 44s51.5 70 51.5 122zM813 432.002c0 122.667 -75.667 184.001 -227 184.001h-125v-364h129c71.333 0 126.333 15.167 165 45.5s58 75.166 58 134.499z" />
    <glyph glyph-name="uni0413" unicode="&#x413;" horiz-adv-x="1024" 
d="M129 1413h807l49 -309h-506v-1104h-350v1413z" />
    <glyph glyph-name="uni0414" unicode="&#x414;" horiz-adv-x="1552" 
d="M360 -317h-331v587c125.333 133.333 216.333 259.333 273 378s96 270.667 118 456l37 309h899v-1106h164v-600l-334 -39v332h-826v-317zM750 1126l-17 -147c-19.333 -157.333 -50 -287 -92 -389s-104.667 -201.667 -188 -299h555v835h-258z" />
    <glyph glyph-name="uni0415" unicode="&#x415;" 
d="M1028 0h-899v1413h881v-283h-537v-266h410l45 -280h-455v-299h555v-285z" />
    <glyph glyph-name="uni0416" unicode="&#x416;" horiz-adv-x="1976" 
d="M422 1427l399 -618l-8 604h352l-10 -618l406 618h393l-461 -661l473 -709l-375 -57l-436 686l10 -672h-352l8 682l-413 -682h-394l471 735l-438 635z" />
    <glyph glyph-name="uni0417" unicode="&#x417;" horiz-adv-x="1171" 
d="M1092 395c0 -132 -49.832 -235.001 -149.499 -309.001s-232.167 -111 -397.5 -111c-166.667 0 -324.334 35.667 -473.001 107l45 287c149.333 -72.667 285.666 -109 408.999 -109c71.333 0 127.166 14.5 167.499 43.5s60.5 69.167 60.5 120.5
c0 56 -23.167 97.333 -69.5 124s-122.166 40 -227.499 40h-154l-41 270h199c89.333 0 156 13.833 200 41.5s66 65.834 66 114.501c0 44.667 -17.667 79.334 -53 104.001s-86.666 37 -153.999 37c-120.667 0 -247.667 -39.667 -381 -119l-45 281
c136 80.667 295.667 121 479 121c154.667 0 276 -33.333 364 -100s132 -158.334 132 -275.001c0 -156 -82.667 -265.333 -248 -328c180.667 -56 271 -169.333 271 -340z" />
    <glyph glyph-name="uni0418" unicode="&#x418;" horiz-adv-x="1458" 
d="M451 0h-322v1413h344v-835l506 835h350v-1413h-342v879z" />
    <glyph glyph-name="uni0419" unicode="&#x419;" horiz-adv-x="1458" 
d="M451 0h-322v1413h344v-835l506 835h350v-1413h-342v879zM1053 1788c-14 -88.667 -48.334 -157.334 -103.001 -206.001s-129 -73 -223 -73c-93.333 0 -167.166 24.333 -221.499 73s-88.5 117.334 -102.5 206.001l170 27c15.333 -41.333 34.833 -70.833 58.5 -88.5
s55.5 -26.5 95.5 -26.5s71.833 8.83301 95.5 26.5s43.167 47.167 58.5 88.5z" />
    <glyph glyph-name="uni041A" unicode="&#x41a;" horiz-adv-x="1331" 
d="M1333 43l-383 -57l-471 671v-657h-350v1413h350v-604l436 604h406l-508 -659z" />
    <glyph glyph-name="uni041B" unicode="&#x41b;" horiz-adv-x="1476" 
d="M1348 1413l0.00195312 -1413h-351v1118h-266l-49 -393c-16.667 -136 -38.334 -247.833 -65.001 -335.5s-63.834 -161.334 -111.501 -221.001s-105 -104 -172 -133s-151.5 -49.833 -253.5 -62.5l-47 297c104 19.333 176.667 64 218 134s73 194.667 95 374l78 635h924z" />
    <glyph glyph-name="uni041C" unicode="&#x41c;" horiz-adv-x="1824" 
d="M1737 0h-357l-61 946l-266 -948h-332l-266 948l-62 -946h-305l102 1413h453l275 -973l276 973h440z" />
    <glyph glyph-name="uni041D" unicode="&#x41d;" horiz-adv-x="1447" 
d="M1321 0h-352v573h-490v-573h-350v1413h350v-534h490v534h352v-1413z" />
    <glyph glyph-name="uni041E" unicode="&#x41e;" horiz-adv-x="1505" 
d="M1427 709c0 -144.667 -27.5 -272.501 -82.5 -383.501s-134 -197.5 -237 -259.5s-222.167 -93 -357.5 -93c-202 0 -364.5 67.333 -487.5 202s-184.5 311.334 -184.5 530.001c0 220 61.667 397.5 185 532.5s287 202.5 491 202.5c134.667 0 253.167 -30.5 355.5 -91.5
s180.833 -146.667 235.5 -257s82 -237.833 82 -382.5zM1075 706.999c0 142 -28.333 253.832 -85 335.499s-136 122.5 -238 122.5c-100.667 0 -179.834 -41 -237.501 -123s-86.5 -193.667 -86.5 -335s28.833 -253.166 86.5 -335.499s136.834 -123.5 237.501 -123.5
c101.333 0 180.5 41 237.5 123s85.5 194 85.5 336z" />
    <glyph glyph-name="uni041F" unicode="&#x41f;" horiz-adv-x="1437" 
d="M1311 0h-353v1116h-479v-1116h-350v1413h1182v-1413z" />
    <glyph glyph-name="uni0420" unicode="&#x420;" horiz-adv-x="1181" 
d="M1139 952c0 -156 -51.167 -275.5 -153.5 -358.5s-241.166 -124.5 -416.499 -124.5h-90v-469h-350v1413h455c175.333 0 311.666 -39.167 408.999 -117.5s146 -192.833 146 -343.5zM799 946c0 135.333 -78.667 203 -236 203h-88v-416h82c161.333 0 242 71 242 213z" />
    <glyph glyph-name="uni0421" unicode="&#x421;" horiz-adv-x="1230" 
d="M1165 84c-124.667 -72.667 -260.999 -108.999 -408.999 -108.999c-210 0 -375.5 65.667 -496.5 197s-181.5 309 -181.5 533c0 220.667 62.833 398 188.5 532s294.167 201 505.5 201c142.667 0 267 -30.667 373 -92l-49 -316c-97.333 76.667 -199 115 -305 115
c-110.667 0 -198.834 -39.333 -264.501 -118s-98.5 -185.334 -98.5 -320.001c0 -135.333 33.833 -242.333 101.5 -321s157.5 -118 269.5 -118c99.333 0 206.333 36.333 321 109z" />
    <glyph glyph-name="uni0422" unicode="&#x422;" horiz-adv-x="1247" 
d="M1219 1116h-416v-1116h-352v1116h-400v297h1118z" />
    <glyph glyph-name="uni0423" unicode="&#x423;" horiz-adv-x="1372" 
d="M1368 1413l-526.001 -1124c-52 -112 -112.167 -192.333 -180.5 -241s-154.5 -73 -258.5 -73c-71.333 0 -136.666 7 -195.999 21l-45 295c66 -15.333 120 -23 162 -23c53.333 0 96.333 10.667 129 32s60 59.333 82 114l-492 958l383 55l303 -671l275 657h364z" />
    <glyph glyph-name="uni0424" unicode="&#x424;" horiz-adv-x="1816" 
d="M1083 -23l-350 0.00292969v152c-214.667 13.333 -380.667 71.666 -498 174.999s-176 237.666 -176 402.999c0 164 58.833 298.167 176.5 402.5s283.5 162.5 497.5 174.5v152h350v-152c214 -12 379.833 -69.833 497.5 -173.5s176.5 -238.167 176.5 -403.5
c0 -164.667 -59.167 -298.834 -177.5 -402.501s-283.833 -162.167 -496.5 -175.5v-152zM1421 709.003c0 93.333 -28.833 168 -86.5 224s-144.167 88.333 -259.5 97v-645c112.667 8 198.5 40.5 257.5 97.5s88.5 132.5 88.5 226.5zM397 709.003
c0 -94.667 28.833 -170.332 86.5 -226.999s144.167 -89 259.5 -97v645c-114.667 -8.66699 -201 -41.334 -259 -98.001s-87 -131 -87 -223z" />
    <glyph glyph-name="uni0425" unicode="&#x425;" horiz-adv-x="1353" 
d="M1327 45l-375 -59l-290 501l-279 -487h-358l444 719l-408 649l373 59l256 -448l242 434h362l-411 -668z" />
    <glyph glyph-name="uni0426" unicode="&#x426;" horiz-adv-x="1501" 
d="M479 297h473v1116h353v-1106h163v-600l-333 -39v332h-1006v1413h350v-1116z" />
    <glyph glyph-name="uni0427" unicode="&#x427;" horiz-adv-x="1312" 
d="M96 1413h350v-493c0 -64 16.333 -110.167 49 -138.5s82.667 -42.5 150 -42.5c60.667 0 122.667 6.33301 186 19v655h353v-1413h-353v459c-107.333 -15.333 -189 -23 -245 -23c-162.667 0 -285 36.167 -367 108.5s-123 185.833 -123 340.5v528z" />
    <glyph glyph-name="uni0428" unicode="&#x428;" horiz-adv-x="2015" 
d="M479 295h352v1118h353v-1118h352v1118h352v-1413h-1759v1413h350v-1118z" />
    <glyph glyph-name="uni0429" unicode="&#x429;" horiz-adv-x="2082" 
d="M479 295h352v1118h351v-1118h352v1118h350v-1106h164v-600l-332 -39v332h-1587v1413h350v-1118z" />
    <glyph glyph-name="uni042A" unicode="&#x42a;" horiz-adv-x="1441" 
d="M1401 483c0 -156 -51.833 -275.5 -155.5 -358.5s-244.5 -124.5 -422.5 -124.5h-436v1116h-367l50 297h667v-463h117c170.667 0 304.5 -40 401.5 -120s145.5 -195.667 145.5 -347zM1061 479c0 138 -81.333 207 -244 207h-84v-422h84c78 0 138.167 18 180.5 54
s63.5 89.667 63.5 161z" />
    <glyph glyph-name="uni042B" unicode="&#x42b;" horiz-adv-x="1757" 
d="M1133 481c0 -158 -50.332 -277.667 -150.999 -359s-240.334 -122 -419.001 -122h-434v1413h350v-463h107c170 0 303.667 -40.167 401 -120.5s146 -196.5 146 -348.5zM793.001 477c0 139.333 -80.667 209 -242 209h-76v-422h74c162.667 0 244 71 244 213zM1624 0h-352
v1413h352v-1413z" />
    <glyph glyph-name="uni042C" unicode="&#x42c;" horiz-adv-x="1183" 
d="M1143 483c0 -156 -51.833 -275.5 -155.5 -358.5s-244.5 -124.5 -422.5 -124.5h-436v1413h350v-463h117c170.667 0 304.5 -40 401.5 -120s145.5 -195.667 145.5 -347zM803 479c0 138 -81.333 207 -244 207h-84v-422h84c78 0 138.167 18 180.5 54s63.5 89.667 63.5 161z
" />
    <glyph glyph-name="uni042D" unicode="&#x42d;" horiz-adv-x="1277" 
d="M139 1040l-47.0029 288.998c128.667 72.667 272.667 109 432 109c209.333 0 374.666 -64.5 495.999 -193.5s182 -306.167 182 -531.5c0 -226 -62.333 -405.5 -187 -538.5s-295 -199.5 -511 -199.5c-156.667 0 -301.334 39 -434.001 117l49 297
c62.667 -41.333 123 -72.5 181 -93.5s121 -31.5 189 -31.5c100.667 0 182.334 26.833 245.001 80.5s102 132.834 118 237.501l-545 -4l-43 280l584 -6c-19.333 96.667 -60.166 170.334 -122.499 221.001s-140.166 76 -233.499 76c-65.333 0 -125.666 -9 -180.999 -27
s-112.666 -45.333 -171.999 -82z" />
    <glyph glyph-name="uni042E" unicode="&#x42e;" horiz-adv-x="2013" 
d="M1933 709c0 -144 -26.332 -271.667 -78.999 -383s-127.834 -198 -225.501 -260s-210.5 -93 -338.5 -93c-173.333 0 -315.333 53.667 -426 161s-177.334 252.333 -200.001 435h-185v-569h-350v1413h350v-536h189c28.667 173.333 98.167 310.5 208.5 411.5
s249.5 151.5 417.5 151.5c192.667 0 347.334 -67.167 464.001 -201.5s175 -310.833 175 -529.5zM1583 707c0 142 -25.667 253.833 -77 335.5s-122.666 122.5 -213.999 122.5c-92.667 0 -164.667 -40.667 -216 -122s-77 -193.333 -77 -336s25.667 -254.834 77 -336.501
s123.333 -122.5 216 -122.5c91.333 0 162.666 40.833 213.999 122.5s77 193.834 77 336.501z" />
    <glyph glyph-name="uni042F" unicode="&#x42f;" horiz-adv-x="1261" 
d="M14 45l338 512c-88 34.667 -152.667 84.167 -194 148.5s-62 145.166 -62 242.499c0 142.667 51.833 255.834 155.5 339.501s244.5 125.5 422.5 125.5h459v-1413h-349v485h-112l-299 -499zM438 948c0 -68.667 21.332 -121 63.999 -157s101.334 -54 176.001 -54h108v412
h-110c-74 0 -132.167 -17.5 -174.5 -52.5s-63.5 -84.5 -63.5 -148.5z" />
    <glyph glyph-name="uni0430" unicode="&#x430;" horiz-adv-x="1038" 
d="M940 0h-273.999l-21 125c-92 -96.667 -197 -145 -315 -145c-82 0 -148 24.167 -198 72.5s-75 116.833 -75 205.5c0 116.667 46 204.834 138 264.501s237.333 98.5 436 116.5v18c0 43.333 -12.5 75.333 -37.5 96s-63.167 31 -114.5 31
c-102.667 0 -210.334 -25 -323.001 -75l-37 233c127.333 52 263 78 407 78c142 0 246.5 -26.833 313.5 -80.5s100.5 -142.834 100.5 -267.501v-672zM631.001 276v213c-99.333 -15.333 -169 -38.833 -209 -70.5s-60 -71.5 -60 -119.5c0 -30.667 9 -54.667 27 -72
s42 -26 72 -26c57.333 0 114 25 170 75z" />
    <glyph glyph-name="uni0431" unicode="&#x431;" horiz-adv-x="1103" 
d="M639 1147c-113.333 -20 -196.5 -55.333 -249.5 -106s-87.167 -130.667 -102.5 -240c78.667 114.667 194 172 346 172c122.667 0 222.334 -42.167 299.001 -126.5s115 -200.5 115 -348.5c0 -158 -45.167 -283.833 -135.5 -377.5s-210.5 -140.5 -360.5 -140.5
c-126.667 0 -231 40 -313 120c-54.667 54.667 -95.334 124.667 -122.001 210s-40 196.333 -40 333c0 167.333 17.833 303.5 53.5 408.5s92.667 187.167 171 246.5s183.5 100.333 315.5 123l322 58l41 -273zM750 485c0 74 -16.332 133.834 -48.999 179.501
s-78 68.5 -136 68.5c-60 0 -107.333 -24.333 -142 -73s-52 -110.334 -52 -185.001c0 -76.667 16.167 -137.5 48.5 -182.5s77.5 -67.5 135.5 -67.5c59.333 0 106.666 24.167 141.999 72.5s53 110.833 53 187.5z" />
    <glyph glyph-name="uni0432" unicode="&#x432;" horiz-adv-x="1062" 
d="M1008 285c0 -92.667 -36 -163.332 -108 -211.999s-176.667 -73 -314 -73h-480v1004h492c118 0 209.667 -21.833 275 -65.5s98 -109.5 98 -197.5c0 -100 -51.333 -173 -154 -219c60.667 -20 107.667 -48.833 141 -86.5s50 -87.834 50 -150.501zM715 311.002
c0 36.667 -12.832 65 -38.499 85s-64.167 30 -115.5 30h-174v-225h172c49.333 0 87.666 9.33301 114.999 28s41 46 41 82zM698.001 700.002c0 67.333 -46.333 101 -139 101h-172v-207h168c95.333 0 143 35.333 143 106z" />
    <glyph glyph-name="uni0433" unicode="&#x433;" horiz-adv-x="833" 
d="M106 0v1004h660l37 -263h-387v-741h-310z" />
    <glyph glyph-name="uni0434" unicode="&#x434;" horiz-adv-x="1222" 
d="M23 -293v505.999c84 80.667 145.5 158.834 184.5 234.501s67.5 178.5 85.5 308.5l35 248h731v-752h131v-528l-285 -35v311h-596v-293h-286zM575 773.999l-16 -117c-14.667 -96 -35.667 -175 -63 -237s-68.333 -122.667 -123 -182h389v536h-187z" />
    <glyph glyph-name="uni0435" unicode="&#x435;" horiz-adv-x="1034" 
d="M973 92c-116 -74.667 -249.334 -111.999 -400.001 -111.999c-157.333 0 -282.666 43.5 -375.999 130.5s-140 216.167 -140 387.5c0 161.333 44.167 289.333 132.5 384s201.833 142 340.5 142c75.333 0 141.833 -13.333 199.5 -40s104.167 -63.834 139.5 -111.501
s61.833 -102.5 79.5 -164.5s26.5 -130 26.5 -204c0 -32 -1.33301 -58.667 -4 -80h-606c14.667 -146 97 -219 247 -219c101.333 0 211.333 35.333 330 106zM521.999 823.001c-45.333 0 -82.167 -19.333 -110.5 -58s-44.833 -95.667 -49.5 -171h318
c-10 152.667 -62.667 229 -158 229z" />
    <glyph glyph-name="uni0436" unicode="&#x436;" horiz-adv-x="1550" 
d="M344 0h-330l330 516l-315 457l319 45l277 -447l-4 433h309l-6 -435l268 435h332l-316 -474l330 -499l-321 -45l-293 487l6 -473h-309l4 475z" />
    <glyph glyph-name="uni0437" unicode="&#x437;" horiz-adv-x="989" 
d="M903 752c0 -108 -57.3311 -185.334 -171.998 -232.001c130 -43.333 195 -124.666 195 -243.999c0 -90.667 -38.5 -162.667 -115.5 -216s-190.167 -80 -339.5 -80c-145.333 0 -282 29.333 -410 88l39 241c134 -58.667 255 -88 363 -88c105.333 0 158 30.667 158 92
c0 62 -54 93 -162 93h-185l-38 208h217c50.667 0 88.167 7.83301 112.5 23.5s36.5 37.167 36.5 64.5c0 54.667 -52 82 -156 82c-94 0 -203.667 -24.333 -329 -73l-37 237c127.333 49.333 261.666 74 402.999 74s246.666 -24.5 315.999 -73.5s104 -114.5 104 -196.5z" />
    <glyph glyph-name="uni0438" unicode="&#x438;" horiz-adv-x="1146" 
d="M106 0v1004h300v-539l323 539h311v-1004h-299v571l-346 -571h-289z" />
    <glyph glyph-name="uni0439" unicode="&#x439;" horiz-adv-x="1146" 
d="M106 0v1004h300v-539l323 539h311v-1004h-299v571l-346 -571h-289zM897 1397c-14 -88.667 -48.332 -157.334 -102.999 -206.001s-129 -73 -223 -73c-93.333 0 -167 24.333 -221 73s-88 117.334 -102 206.001l170 26c15.333 -41.333 34.666 -70.666 57.999 -87.999
s55 -26 95 -26s71.833 8.66699 95.5 26s43.167 46.666 58.5 87.999z" />
    <glyph glyph-name="uni043A" unicode="&#x43a;" horiz-adv-x="1042" 
d="M702 -14l-286 469v-455h-310v1004h310v-426l268 426h342l-326 -476l330 -497z" />
    <glyph glyph-name="uni043B" unicode="&#x43b;" horiz-adv-x="1175" 
d="M20 223c81.333 17.333 137.5 50.334 168.5 99.001s54.833 138 71.5 268l53 414h756v-1004h-309v760h-182l-27 -215c-16 -134.667 -43 -241.5 -81 -320.5s-89.5 -137.333 -154.5 -175s-151.167 -61.834 -258.5 -72.501z" />
    <glyph glyph-name="uni043C" unicode="&#x43c;" horiz-adv-x="1519" 
d="M1440 0h-295l-37 727l-213 -729h-303l-215 729l-35 -727h-262l65 1004h420l193 -644l192 644h424z" />
    <glyph glyph-name="uni043D" unicode="&#x43d;" horiz-adv-x="1126" 
d="M1020 0h-311v387h-293v-387h-310v1004h310v-365h293v365h311v-1004z" />
    <glyph glyph-name="uni043E" unicode="&#x43e;" horiz-adv-x="1079" 
d="M1022 502c0 -158.667 -45.332 -285.332 -135.999 -379.999s-207 -142 -349 -142c-140.667 0 -255.834 47.167 -345.501 141.5s-134.5 220.5 -134.5 378.5c0 158.667 45.167 285.667 135.5 381s205.833 143 346.5 143c142 0 258 -47.333 348 -142
s135 -221.334 135 -380.001zM723.001 500.002c0 82.667 -15.998 148.667 -47.998 198s-77.333 74 -136 74s-103.834 -24.167 -135.501 -72.5s-47.5 -114.166 -47.5 -197.499c0 -82.667 16.167 -148.834 48.5 -198.501s77.166 -74.5 134.499 -74.5
c58.667 0 104 24.5 136 73.5s48 114.833 48 197.5z" />
    <glyph glyph-name="uni043F" unicode="&#x43f;" horiz-adv-x="1118" 
d="M1012 0h-312v752h-284v-752h-310v1004h906v-1004z" />
    <glyph glyph-name="uni0440" unicode="&#x440;" horiz-adv-x="1114" 
d="M1051 528c0 -92 -11.5049 -173.332 -34.5049 -243.999s-54.667 -126.834 -95 -168.501s-85.166 -73 -134.499 -94s-102.666 -31.5 -159.999 -31.5c-66.667 0 -137 11.667 -211 35v-359l-310 -47v1385h273l20 -132c42.667 46 86.834 82.833 132.501 110.5
s97.834 41.5 156.501 41.5c108.667 0 196.334 -41.833 263.001 -125.5s100 -207.167 100 -370.5zM738.995 508.001c0 80.667 -13.667 140.833 -41 180.5s-64 59.5 -110 59.5c-32 0 -61.333 -8.66699 -88 -26s-54.667 -43 -84 -77v-381c44.667 -20.667 91.667 -31 141 -31
c55.333 0 99.5 22.5 132.5 67.5s49.5 114.167 49.5 207.5z" />
    <glyph glyph-name="uni0441" unicode="&#x441;" horiz-adv-x="925" 
d="M862 70c-95.333 -58.667 -201.665 -88 -318.998 -88c-146.667 0 -264.334 45.333 -353.001 136s-133 216 -133 376c0 85.333 13.167 162 39.5 230s62.333 123.167 108 165.5s98.5 74.666 158.5 96.999s124.667 33.5 194 33.5c108 0 207 -25.333 297 -76l-41 -264
c-78.667 49.333 -153.667 74 -225 74c-66 0 -118.667 -21.667 -158 -65s-59 -105.666 -59 -186.999c0 -82.667 21 -145.667 63 -189s96 -65 162 -65c75.333 0 151.666 25.333 228.999 76z" />
    <glyph glyph-name="uni0442" unicode="&#x442;" horiz-adv-x="974" 
d="M334 0v750h-291v254h870l37 -254h-307v-750h-309z" />
    <glyph glyph-name="uni0443" unicode="&#x443;" horiz-adv-x="1044" 
d="M1028 1004l-358.001 -1029c-44 -128 -98.667 -218 -164 -270s-152.666 -78 -261.999 -78c-38.667 0 -79 4.33301 -121 13l-41 249c37.333 -10.667 78.333 -16 123 -16c82 0 138.667 34.667 170 104l8 21l-365 981l332 39l193 -631l182 617h303z" />
    <glyph glyph-name="uni0444" unicode="&#x444;" horiz-adv-x="1529" 
d="M1477 502c0 -146 -48 -264.499 -144 -355.499s-233.667 -143.167 -413 -156.5v-324l-310 -47v371c-182 13.333 -320.333 65 -415 155s-142 208.333 -142 355c0 146 47.667 264.667 143 356s233.333 144 414 158v416l310 49v-465
c180.667 -13.333 318.667 -65.333 414 -156s143 -209.334 143 -356.001zM348 502.001c0 -78 23 -140.166 69 -186.499s112.333 -73.833 199 -82.5v533c-87.333 -8 -153.833 -34.833 -199.5 -80.5s-68.5 -106.834 -68.5 -183.501zM1182 500.002
c0 76.667 -23.333 137.834 -70 183.501s-113 73.167 -199 82.5v-533c87.333 9.33301 154 36.666 200 81.999s69 107 69 185z" />
    <glyph glyph-name="uni0445" unicode="&#x445;" horiz-adv-x="1015" 
d="M985 25l-321 -39l-172 317l-166 -303h-295l303 496l-289 483l324 39l155 -291l152 277h293l-289 -474z" />
    <glyph glyph-name="uni0446" unicode="&#x446;" horiz-adv-x="1169" 
d="M106 0v1004h310v-752h280v752h310v-752h131v-526l-289 -37v311h-742z" />
    <glyph glyph-name="uni0447" unicode="&#x447;" horiz-adv-x="1064" 
d="M76 1004h309.001v-326c0 -48 12.667 -82.5 38 -103.5s66.666 -31.5 123.999 -31.5c42 0 76 2.66699 102 8v453h309v-1004h-309v291c-72 -12.667 -133.333 -19 -184 -19c-131.333 0 -229 30.167 -293 90.5s-96 155.833 -96 286.5v355z" />
    <glyph glyph-name="uni0448" unicode="&#x448;" horiz-adv-x="1675" 
d="M684 1004h309v-752h267v752h309v-1004h-1463v1004h312v-752h266v752z" />
    <glyph glyph-name="uni0449" unicode="&#x449;" horiz-adv-x="1728" 
d="M682 1004h311v-752h264v752h310v-752h129v-526l-287 -37v311h-1303v1004h312v-752h264v752z" />
    <glyph glyph-name="uni044A" unicode="&#x44a;" horiz-adv-x="1167" 
d="M1128 365c0 -115.333 -39.999 -205 -119.999 -269s-192.667 -96 -338 -96h-394v752h-266l39 252h535v-291h118c139.333 0 245.166 -30 317.499 -90s108.5 -146 108.5 -258zM838.001 356c0 100 -57.334 150.001 -172.001 150.001h-82v-297h80
c56.667 0 99.834 13.167 129.501 39.5s44.5 62.166 44.5 107.499z" />
    <glyph glyph-name="uni044B" unicode="&#x44b;" horiz-adv-x="1490" 
d="M1384 0h-311v1004h311v-1004zM954 365c0 -115.333 -40 -205 -120 -269s-192.667 -96 -338 -96h-390v1004h308v-291h116c138.667 0 244 -30 316 -90s108 -146 108 -258zM664 356c0 100 -56.667 150.001 -170 150.001h-80v-297h75c58 0 101.667 13.167 131 39.5
s44 62.166 44 107.499z" />
    <glyph glyph-name="uni044C" unicode="&#x44c;" horiz-adv-x="997" 
d="M958 365c0 -115.333 -39.999 -205 -119.999 -269s-192.667 -96 -338 -96h-394v1004h308v-291h118c139.333 0 245.166 -30 317.499 -90s108.5 -146 108.5 -258zM668.001 356c0 100 -57.334 150.001 -172.001 150.001h-82v-297h80c56.667 0 99.834 13.167 129.501 39.5
s44.5 62.166 44.5 107.499z" />
    <glyph glyph-name="uni044D" unicode="&#x44d;" horiz-adv-x="972" 
d="M106 707l-32 234.999c98 54.667 210.667 82 338 82c154 0 276 -46.167 366 -138.5s135 -220.166 135 -383.499c0 -168 -48.167 -297 -144.5 -387s-225.5 -135 -387.5 -135c-114 0 -218.333 24.333 -313 73l41 240c82 -49.333 173.333 -74 274 -74
c142 0 224 60.667 246 182l-408 -2l-31 209l437 -4c-12.667 58 -40.167 102.167 -82.5 132.5s-97.5 45.5 -165.5 45.5c-90 0 -181 -25 -273 -75z" />
    <glyph glyph-name="uni044E" unicode="&#x44e;" horiz-adv-x="1533" 
d="M1477 502c0 -158.667 -43.834 -285.332 -131.501 -379.999s-201.5 -142 -341.5 -142c-117.333 0 -216.5 36 -297.5 108s-132.167 171 -153.5 297h-137v-385h-310v1004h310v-367h143c22.667 120 74.334 214.5 155.001 283.5s178.667 103.5 294 103.5
c138.667 0 251.5 -47.333 338.5 -142s130.5 -221.334 130.5 -380.001zM1180 500.002c0 82 -14.8311 147.501 -44.498 196.501s-72.834 73.5 -129.501 73.5s-99.167 -23.833 -127.5 -71.5s-42.5 -113.167 -42.5 -196.5c0 -82.667 14.5 -148.834 43.5 -198.501
s71.167 -74.5 126.5 -74.5c57.333 0 100.666 24.5 129.999 73.5s44 114.833 44 197.5z" />
    <glyph glyph-name="uni044F" unicode="&#x44f;" horiz-adv-x="1087" 
d="M334 -20l-309 53l256 334c-54.667 28 -97.5 66.333 -128.5 115s-46.5 105 -46.5 169c0 108 39.333 193.833 118 257.5s193 95.5 343 95.5h414v-1004h-307v299h-109zM397 653c0 -95.333 59.333 -143.001 178 -143.001h103v281h-100c-56.667 0 -101 -12.167 -133 -36.5
s-48 -58.166 -48 -101.499z" />
    <glyph glyph-name="uni0450" unicode="&#x450;" horiz-adv-x="1034" 
d="M973 92c-116 -74.667 -249.334 -111.999 -400.001 -111.999c-157.333 0 -282.666 43.5 -375.999 130.5s-140 216.167 -140 387.5c0 161.333 44.167 289.333 132.5 384s201.833 142 340.5 142c75.333 0 141.833 -13.333 199.5 -40s104.167 -63.834 139.5 -111.501
s61.833 -102.5 79.5 -164.5s26.5 -130 26.5 -204c0 -32 -1.33301 -58.667 -4 -80h-606c14.667 -146 97 -219 247 -219c101.333 0 211.333 35.333 330 106zM663.999 1120h-205l-299 248l379 62zM521.999 823.001c-45.333 0 -82.167 -19.333 -110.5 -58
s-44.833 -95.667 -49.5 -171h318c-10 152.667 -62.667 229 -158 229z" />
    <glyph glyph-name="uni0451" unicode="&#x451;" horiz-adv-x="1034" 
d="M973 92c-116 -74.667 -249.334 -111.999 -400.001 -111.999c-157.333 0 -282.666 43.5 -375.999 130.5s-140 216.167 -140 387.5c0 161.333 44.167 289.333 132.5 384s201.833 142 340.5 142c75.333 0 141.833 -13.333 199.5 -40s104.167 -63.834 139.5 -111.501
s61.833 -102.5 79.5 -164.5s26.5 -130 26.5 -204c0 -32 -1.33301 -58.667 -4 -80h-606c14.667 -146 97 -219 247 -219c101.333 0 211.333 35.333 330 106zM464.999 1122h-266v269h266v-269zM869.999 1122h-266v269h266v-269zM521.999 823.001
c-45.333 0 -82.167 -19.333 -110.5 -58s-44.833 -95.667 -49.5 -171h318c-10 152.667 -62.667 229 -158 229z" />
    <glyph glyph-name="uni0452" unicode="&#x452;" horiz-adv-x="1083" 
d="M698 1061h-278.001v-207c68 12 128 18 180 18c137.333 0 240.333 -36.167 309 -108.5s103 -185.5 103 -339.5c0 -238.667 -72.333 -507 -217 -805l-291 47c132 299.333 198 545 198 737c0 69.333 -14.667 119.833 -44 151.5s-76.666 47.5 -141.999 47.5
c-31.333 0 -63.333 -2.66699 -96 -8v-594h-309v1061h-136l-36 221h172v148l309 49v-197h278v-221z" />
    <glyph glyph-name="uni0453" unicode="&#x453;" horiz-adv-x="833" 
d="M805 1368l-301 -248h-197l123 310zM106 0v1004h660l37 -263h-387v-741h-310z" />
    <glyph glyph-name="uni0454" unicode="&#x454;" horiz-adv-x="972" 
d="M780 399l-436.001 2.00098c13.333 -58.667 42.333 -103.334 87 -134.001s100.334 -46 167.001 -46c93.333 0 184 25.333 272 76l33 -236c-94.667 -54 -208 -81 -340 -81c-154 0 -276.833 46.333 -368.5 139s-137.5 219.667 -137.5 381c0 166.667 48.333 295.667 145 387
s224 137 382 137c118.667 0 223.667 -24.667 315 -74l-39 -239c-84.667 48.667 -170.667 73 -258 73c-145.333 0 -231.333 -59.333 -258 -178l408 4z" />
    <glyph glyph-name="uni0455" unicode="&#x455;" horiz-adv-x="950" 
d="M891 309c0 -106 -35.333 -186.999 -106 -242.999s-172.667 -84 -306 -84c-147.333 0 -285 32.667 -413 98l36 237c59.333 -36.667 122.833 -65.5 190.5 -86.5s130.5 -31.5 188.5 -31.5c42 0 73.667 6.83301 95 20.5s32 32.5 32 56.5
c0 25.333 -11.167 45.666 -33.5 60.999s-67.833 31.333 -136.5 48c-132 34.667 -224.667 74.667 -278 120s-80 113.333 -80 204c0 94.667 34 170.5 102 227.5s163 85.5 285 85.5c136.667 0 259.667 -24.667 369 -74l-39 -237c-116 62.667 -226 94 -330 94
c-34.667 0 -61.167 -6 -79.5 -18s-27.5 -28 -27.5 -48c0 -22 11.167 -40 33.5 -54s67.833 -30.667 136.5 -50c136.667 -36 231 -76.667 283 -122s78 -113.333 78 -204z" />
    <glyph glyph-name="uni0456" unicode="&#x456;" horiz-adv-x="536" 
d="M444 1300c0 -49.333 -16.667 -89.166 -50 -119.499s-75.333 -45.5 -126 -45.5c-50 0 -91.833 15.167 -125.5 45.5s-50.5 70.166 -50.5 119.499c0 50 16.833 90.833 50.5 122.5s75.5 47.5 125.5 47.5c50.667 0 92.667 -15.667 126 -47s50 -72.333 50 -123zM424 0h-311
v1004h311v-1004z" />
    <glyph glyph-name="uni0457" unicode="&#x457;" horiz-adv-x="536" 
d="M604 1122h-266v269h266v-269zM199 1122h-267v269h267v-269zM424 0h-311v1004h311v-1004z" />
    <glyph glyph-name="uni0458" unicode="&#x458;" horiz-adv-x="538" 
d="M444 1300c0 -49.333 -16.667 -89.166 -50 -119.499s-75.333 -45.5 -126 -45.5c-50 0 -91.833 15.167 -125.5 45.5s-50.5 70.166 -50.5 119.499c0 50 16.833 90.833 50.5 122.5s75.5 47.5 125.5 47.5c50.667 0 92.667 -15.667 126 -47s50 -72.333 50 -123zM424 -29
c0 -119.333 -30.834 -206.5 -92.501 -261.5s-147.5 -82.5 -257.5 -82.5c-47.333 0 -84.333 2.66699 -111 8l-37 242c30.667 -5.33301 55.334 -8 74.001 -8c37.333 0 65.5 9.5 84.5 28.5s28.5 51.833 28.5 98.5v1008h311v-1033z" />
    <glyph glyph-name="uni0459" unicode="&#x459;" horiz-adv-x="1644" 
d="M1606 365c0 -115.333 -40.167 -204.999 -120.5 -268.999s-193.166 -96 -338.499 -96h-393v760h-176l-27 -215c-16 -134.667 -43 -241.5 -81 -320.5s-89.5 -137.333 -154.5 -175s-151.167 -61.834 -258.5 -72.501l-37 246c81.333 17.333 137.5 50.333 168.5 99
s54.833 138 71.5 268l53 414h750v-291h117c139.333 0 245.166 -30 317.499 -90s108.5 -146 108.5 -258zM1315 356.001c0 100 -57.333 150.001 -172 150.001h-82v-297h80c58 0 101.5 13.167 130.5 39.5s43.5 62.166 43.5 107.499z" />
    <glyph glyph-name="uni045A" unicode="&#x45a;" horiz-adv-x="1585" 
d="M1544 365c0 -115.333 -40.168 -205 -120.501 -269s-193.166 -96 -338.499 -96h-387v389h-282v-389h-310v1004h310v-363h282v363h310v-291h112c138.667 0 244 -30 316 -90s108 -146 108 -258zM1253 356c0 100 -56.667 150.001 -170 150.001h-77v-297h75
c56.667 0 99.5 13.167 128.5 39.5s43.5 62.166 43.5 107.499z" />
    <glyph glyph-name="uni045B" unicode="&#x45b;" horiz-adv-x="1093" 
d="M698 1061h-278v-207c68 12 130.667 18 188 18c132.667 0 231 -30 295 -90s96 -155.333 96 -286v-496h-309v467c0 48 -13 82.5 -39 103.5s-69.667 31.5 -131 31.5c-32 0 -65.333 -2.66699 -100 -8v-594h-309v1061h-136l-36 221h172v148l309 49v-197h278v-221z" />
    <glyph glyph-name="uni045C" unicode="&#x45c;" horiz-adv-x="1042" 
d="M915 1368l-301 -248h-196l123 310zM702 -14l-286 469v-455h-310v1004h310v-426l268 426h342l-326 -476l330 -497z" />
    <glyph glyph-name="uni045D" unicode="&#x45d;" horiz-adv-x="1146" 
d="M700 1120h-204l-299 248l378 62zM106 0v1004h300v-539l323 539h311v-1004h-299v571l-346 -571h-289z" />
    <glyph glyph-name="uni045E" unicode="&#x45e;" horiz-adv-x="1044" 
d="M1028 1004l-358.001 -1029c-44 -128 -98.667 -218 -164 -270s-152.666 -78 -261.999 -78c-38.667 0 -79 4.33301 -121 13l-41 249c37.333 -10.667 78.333 -16 123 -16c82 0 138.667 34.667 170 104l8 21l-365 981l332 39l193 -631l182 617h303zM869.999 1397
c-14 -88.667 -48.167 -157.334 -102.5 -206.001s-128.5 -73 -222.5 -73c-93.333 0 -167.166 24.333 -221.499 73s-88.5 117.334 -102.5 206.001l170 26c15.333 -41.333 34.833 -70.666 58.5 -87.999s55.5 -26 95.5 -26s71.667 8.66699 95 26s42.666 46.666 57.999 87.999z
" />
    <glyph glyph-name="uni045F" unicode="&#x45f;" horiz-adv-x="1118" 
d="M700 1004h312v-1004h-310l3 -274l-291 -37v311h-308v1004h310v-752h284v752z" />
    <glyph glyph-name="uni0462" unicode="&#x462;" horiz-adv-x="1443" 
d="M1397 424c0 -134.667 -47.1689 -239 -141.502 -313s-226.166 -111 -395.499 -111h-473v1006h-364l38 249h326v181h346v-181h404v-245h-404v-179h139c172.667 0 303.334 -35.667 392.001 -107s133 -171.333 133 -300zM1061 422c0 48 -16.833 86.333 -50.5 115
s-83.167 43 -148.5 43h-131v-322h127c65.333 0 115.5 14.833 150.5 44.5s52.5 69.5 52.5 119.5z" />
    <glyph glyph-name="uni0463" unicode="&#x463;" horiz-adv-x="1167" 
d="M1128 336c0 -106.667 -39.167 -189.333 -117.5 -248s-186.5 -88 -324.5 -88h-410v782h-266l33 222h233v426l306 49v-475h321v-220h-321v-129h129c136 0 239.5 -27.333 310.5 -82s106.5 -133.667 106.5 -237zM840 332.001c0 38.667 -13.5 68.5 -40.5 89.5
s-65.5 31.5 -115.5 31.5h-104v-246h100c51.333 0 90.833 10.833 118.5 32.5s41.5 52.5 41.5 92.5z" />
    <glyph glyph-name="uni0472" unicode="&#x472;" horiz-adv-x="1505" 
d="M1427 709c0 -144.667 -27.5 -272.501 -82.5 -383.501s-134 -197.5 -237 -259.5s-222.167 -93 -357.5 -93c-202 0 -364.5 67.333 -487.5 202s-184.5 311.334 -184.5 530.001c0 220 61.667 397.5 185 532.5s287 202.5 491 202.5c134.667 0 253.167 -30.5 355.5 -91.5
s180.833 -146.667 235.5 -257s82 -237.833 82 -382.5zM752 243.999c93.333 0 169.169 29 227.502 87s95.166 139.333 110.499 244h-674c15.333 -104.667 52.166 -186 110.499 -244s133.5 -87 225.5 -87zM752.003 1169c-91.333 0 -166 -28.5 -224 -85.5
s-95.333 -136.167 -112 -237.5h671c-16.667 102 -53.667 181.333 -111 238s-132 85 -224 85z" />
    <glyph glyph-name="uni0473" unicode="&#x473;" horiz-adv-x="1079" 
d="M1020 502c0 -158 -45.001 -284.5 -135.001 -379.5s-206 -142.5 -348 -142.5c-141.333 0 -256.666 47.333 -345.999 142s-134 220.667 -134 378c0 158 45.167 284.833 135.5 380.5s206.5 143.5 348.5 143.5c141.333 0 256.5 -47.5 345.5 -142.5s133.5 -221.5 133.5 -379.5
zM538.999 801c-55.333 0 -101.167 -17.667 -137.5 -53s-59.5 -86.666 -69.5 -153.999h416c-11.333 67.333 -35 118.666 -71 153.999s-82 53 -138 53zM538.998 201c55.333 0 101.169 17.167 137.502 51.5s60.166 84.5 71.499 150.5h-416
c11.333 -65.333 35.166 -115.333 71.499 -150s81.5 -52 135.5 -52z" />
    <glyph glyph-name="uni0474" unicode="&#x474;" horiz-adv-x="1454" 
d="M1407 1436l45.002 -308.001c-72.667 -15.333 -128.834 -47 -168.501 -95s-79.167 -128.667 -118.5 -242l-280 -799h-373l-485 1378l374 57l318 -991l143 451c22.667 75.333 45.667 140 69 194s50.166 103.5 80.499 148.5s64 81.333 101 109s79.833 49.834 128.5 66.501
s104 27 166 31z" />
    <glyph glyph-name="uni0475" unicode="&#x475;" horiz-adv-x="1073" 
d="M1073 748c-66.667 -10.667 -115.833 -34.168 -147.5 -70.501s-59.5 -94.166 -83.5 -173.499l-160 -508h-330l-334 983l334 39l183 -633l71 246c24.667 90.667 52.834 162.5 84.501 215.5s75.167 94.5 130.5 124.5s125.666 47 210.999 51z" />
    <glyph glyph-name="uni0490" unicode="&#x490;" horiz-adv-x="1048" 
d="M129 1413h543v281l334 -39v-551h-527v-1104h-350v1413z" />
    <glyph glyph-name="uni0491" unicode="&#x491;" horiz-adv-x="878" 
d="M414 741v-741h-308v1004h453v286l287 -35v-514h-432z" />
    <glyph glyph-name="uni0492" unicode="&#x492;" horiz-adv-x="1085" 
d="M188 1413h807l49 -309h-505v-377h272v-143h-272v-584h-351v584h-143l-25 143h168v686z" />
    <glyph glyph-name="uni0493" unicode="&#x493;" horiz-adv-x="886" 
d="M160 0v365h-127l-23 135h150v504h659l37 -263h-387v-241h227v-135h-227v-365h-309z" />
    <glyph glyph-name="uni0496" unicode="&#x496;" horiz-adv-x="2021" 
d="M422 1427l399 -618l-8 604h352l-10 -618l406 618h393l-461 -661l295 -445h221v-600l-332 -39v332h-96l-426 672l10 -672h-352l8 682l-413 -682h-394l471 735l-438 635z" />
    <glyph glyph-name="uni0497" unicode="&#x497;" horiz-adv-x="1585" 
d="M1208 530l183 -278h186v-526l-289 -37v311h-22v2l-58 -2l-284 473l6 -473h-309l4 475l-281 -475h-330l330 516l-315 457l319 45l277 -447l-4 433h309l-6 -435l268 435h332z" />
    <glyph glyph-name="uni0498" unicode="&#x498;" horiz-adv-x="1171" 
d="M1092 395c0 -107.333 -33.833 -195.834 -101.5 -265.501s-160.167 -115.5 -277.5 -137.5l10 -285l-334 -39l8 318c-112 12.667 -220.333 44.667 -325 96l45 287c149.333 -72.667 285.666 -109 408.999 -109c71.333 0 127.166 14.5 167.499 43.5s60.5 69.167 60.5 120.5
c0 56 -23.167 97.333 -69.5 124s-122.166 40 -227.499 40h-154l-41 270h199c89.333 0 156 13.833 200 41.5s66 65.834 66 114.501c0 44.667 -17.667 79.334 -53 104.001s-86.666 37 -153.999 37c-120.667 0 -247.667 -39.667 -381 -119l-45 281
c136 80.667 295.667 121 479 121c154.667 0 276 -33.333 364 -100s132 -158.334 132 -275.001c0 -156 -82.667 -265.333 -248 -328c180.667 -56 271 -169.333 271 -340z" />
    <glyph glyph-name="uni0499" unicode="&#x499;" horiz-adv-x="989" 
d="M903 752c0 -108 -57.3311 -185.334 -171.998 -232.001c130 -43.333 195 -124.666 195 -243.999c0 -75.333 -27 -138.333 -81 -189s-133.667 -83.667 -239 -99l10 -262l-290 -37l10 299c-94 12 -185.667 38.667 -275 80l39 241c134 -58.667 255 -88 363 -88
c105.333 0 158 30.667 158 92c0 62 -54 93 -162 93h-185l-38 208h217c50.667 0 88.167 7.83301 112.5 23.5s36.5 37.167 36.5 64.5c0 54.667 -52 82 -156 82c-94 0 -203.667 -24.333 -329 -73l-37 237c127.333 49.333 261.666 74 402.999 74s246.666 -24.5 315.999 -73.5
s104 -114.5 104 -196.5z" />
    <glyph glyph-name="uni049A" unicode="&#x49a;" horiz-adv-x="1376" 
d="M1038 -332v332h-98l-461 657v-657h-350v1413h350v-604l436 604h406l-508 -659l326 -447h231v-600z" />
    <glyph glyph-name="uni049B" unicode="&#x49b;" horiz-adv-x="1077" 
d="M416 0h-310v1004h310v-426l268 426h340l-324 -476l183 -276h184v-526l-289 -37v311h-82l-280 455v-455z" />
    <glyph glyph-name="uni049C" unicode="&#x49c;" horiz-adv-x="1439" 
d="M741 1202v-299l279 510h399l-397 -663l412 -707l-381 -57l-312 575v-305h-133v317h-129v-573h-350v1413h350v-534h129v323h133z" />
    <glyph glyph-name="uni049D" unicode="&#x49d;" horiz-adv-x="1179" 
d="M629 870v-225l186 359h330l-268 -474l280 -499l-321 -45l-207 405v-227h-123v225h-94v-389h-306v1004h306v-363h94v229h123z" />
    <glyph glyph-name="uni04A0" unicode="&#x4a0;" horiz-adv-x="1589" 
d="M1591 43l-383 -57l-471 671v-657h-350v1116h-367l50 297h667v-604l437 604h405l-508 -659z" />
    <glyph glyph-name="uni04A1" unicode="&#x4a1;" horiz-adv-x="1212" 
d="M872 -14l-286 469v-455h-310v752h-266l39 252h537v-426l268 426h342l-326 -476l330 -497z" />
    <glyph glyph-name="uni04A2" unicode="&#x4a2;" horiz-adv-x="1517" 
d="M1151 -332v332h-182v573h-490v-573h-350v1413h350v-534h490v534h352v-1106h162v-600z" />
    <glyph glyph-name="uni04A3" unicode="&#x4a3;" horiz-adv-x="1181" 
d="M862 -311v311h-153v387h-293v-387h-310v1004h310v-365h293v365h311v-752h131v-526z" />
    <glyph glyph-name="uni04A4" unicode="&#x4a4;" horiz-adv-x="1835" 
d="M1300 0h-352v573h-469v-573h-350v1413h350v-534h469v534h799l49 -309h-496v-1104z" />
    <glyph glyph-name="uni04A5" unicode="&#x4a5;" horiz-adv-x="1427" 
d="M1014 0h-309v389h-289v-389h-310v1004h310v-363h289v363h655l39 -263h-385v-741z" />
    <glyph glyph-name="uni04AA" unicode="&#x4aa;" horiz-adv-x="1230" 
d="M1165 84c-95.333 -55.333 -196.332 -89.332 -302.999 -101.999l10 -275l-335 -39l10 332c-148.667 40 -264 121.5 -346 244.5s-123 276.5 -123 460.5c0 220.667 62.833 398 188.5 532s294.167 201 505.5 201c142.667 0 267 -30.667 373 -92l-49 -316
c-97.333 76.667 -199 115 -305 115c-110.667 0 -198.834 -39.333 -264.501 -118s-98.5 -185.334 -98.5 -320.001c0 -135.333 33.833 -242.333 101.5 -321s157.5 -118 269.5 -118c99.333 0 206.333 36.333 321 109z" />
    </font>
</defs>
</svg>
